<?xml version="1.0" standalone="no"?>
<!DOCTYPE svg PUBLIC "-//W3C//DTD SVG 1.1//EN" "http://www.w3.org/Graphics/SVG/1.1/DTD/svg11.dtd" >
<svg>
<metadata>
Created by FontForge 20090914 at Thu Aug 15 01:09:18 2013
 By www-data
Created by Nathan Willis,,, with FontForge 2.0 (http://fontforge.sf.net)
</metadata>
<defs>
<font id="NewsCycle" horiz-adv-x="970" >
  <font-face 
    font-family="News Cycle"
    font-weight="500"
    font-stretch="normal"
    units-per-em="2048"
    panose-1="2 0 5 3 0 0 0 0 0 0"
    ascent="1638"
    descent="-410"
    x-height="1055"
    cap-height="1515"
    bbox="-535 -794 3053 2510"
    underline-thickness="102"
    underline-position="-204"
    unicode-range="U+000D-U+FB06"
  />
<missing-glyph horiz-adv-x="748" 
d="M68 0v1365h544v-1365h-544zM136 68h408v1229h-408v-1229z" />
    <glyph glyph-name="ff" unicode="ff" horiz-adv-x="946" 
d="M661 1479c54.667 30 111.333 45.001 170 45.001s91 -3 97 -9v-112h-89c-100 0 -150 -41.667 -150 -125v-223h239v-112h-239v-943h-132v943h-239v-943h-132v943h-173v112h173v223c0 111.333 47.667 184.666 143 219.999c46.667 17.333 94 26 142 26
c82.667 0 146 -15 190 -45zM317.999 1055h239v223c0 36 7 73 21 111c-45.333 10.667 -83.333 16 -114 16c-97.333 0 -146 -42.333 -146 -127v-223z" />
    <glyph glyph-name="fi" unicode="fi" horiz-adv-x="854" 
d="M557 1403l-70.999 1c-58.667 0 -98.334 -7 -119.001 -21c-19.333 -12.667 -31 -24.334 -35 -35.001c-9.33301 -23.333 -14 -46.666 -14 -69.999v-223h384v-1057h-132v945h-252v-943h-132v943h-173v112h173v223c0 108.667 47 182 141 220c44 17.333 93.333 26 148 26
l232 -9v-150h-150v38z" />
    <glyph glyph-name="fl" unicode="fl" horiz-adv-x="878" 
d="M13 943l0.000976562 112.001h173v223c0 107.333 54 180.666 162 219.999c49.333 17.333 95.666 26 138.999 26c81.333 0 149 -2 203 -6l32 -3v-1517h-132v945h-272v-943h-132v943h-173zM501.001 1404c-122 0 -183 -42 -183 -126v-223h272v349h-89z" />
    <glyph glyph-name="ffi" unicode="ffi" horiz-adv-x="1234" 
d="M661 1479c58 30 119.667 45.002 185 45.002c24 0 68.5 -1.33301 133.5 -4s97.833 -4.33398 98.5 -5.00098v-150h-150v39h-89c-100 0 -150 -42 -150 -126v-223h384v-1057h-132v945h-252v-943h-132v943h-239v-943h-132v943h-173v112h173v223c0 164 102.667 246 308 246
c50 0 89.667 -6.83301 119 -20.5s45.333 -21.834 48 -24.501zM318 1055h239v223c0 36 7 73 21 111c-45.333 10.667 -83.333 16 -114 16c-97.333 0 -146 -42.333 -146 -127v-223z" />
    <glyph glyph-name="ffl" unicode="ffl" horiz-adv-x="1216" 
d="M661 1479c51.333 30.667 109.833 45.999 175.5 45.999s140.167 -3.33301 223.5 -10v-1517h-132v945h-239v-943h-132v943h-239v-943h-132v943h-173v112h173v223c0 108 53.333 181.333 160 220c48.667 17.333 89.834 26 123.501 26s55.5 -0.333008 65.5 -1
s19 -1.66699 27 -3l23 -5c17.333 -3.33301 31.166 -8.16602 41.499 -14.499s16.5 -10 18.5 -11s5 -3 9 -6s6.33301 -4.5 7 -4.5zM318 1055h239v223c0 36 7 73 21 111c-45.333 10.667 -83.333 16 -114 16c-97.333 0 -146 -42.333 -146 -127v-223zM689 1055h239v349h-97
c-94.667 0 -142 -42 -142 -126v-223z" />
    <glyph glyph-name="longs_t" unicode="&#x17f;t" horiz-adv-x="994" 
d="M13 943v111.998h173c8.66699 187.333 51.667 315 129 383c66 58 162.333 87 289 87h130v-471h242v-112h-242v-669c0 -67.333 10.333 -113.333 31 -138s54.667 -37 102 -37c19.333 0 42.333 1.66699 69 5s40 5.33301 40 6v-99c-44 -16 -86.833 -24 -128.5 -24
s-70.167 1 -85.5 3s-34 8.33301 -56 19s-40 25.334 -54 44.001c-33.333 47.333 -50 121 -50 221v669h-113v112h113v351c-88.667 0 -154.667 -25.667 -198 -77c-39.333 -46 -64 -129.333 -74 -250c-4 -53.333 -6 -119.666 -6 -198.999v-879h-138v943h-173z" />
    <glyph glyph-name=".notdef" horiz-adv-x="748" 
d="M68 0v1365h544v-1365h-544zM136 68h408v1229h-408v-1229z" />
    <glyph glyph-name="nonmarkingreturn" unicode="&#xd;" horiz-adv-x="2048" 
 />
    <glyph glyph-name="space" unicode=" " horiz-adv-x="512" 
 />
    <glyph glyph-name="exclam" unicode="!" horiz-adv-x="334" 
d="M92 0v150h150v-150h-150zM92 1446h150l-23 -1146h-104z" />
    <glyph glyph-name="quotedbl" unicode="&#x22;" horiz-adv-x="577" 
d="M335 1046l87 250h-65v150h150v-150c-18 -38 -43.333 -88.667 -76 -152s-50 -96 -52 -98h-44zM70 1046l87 250h-65v150h150v-150c-18 -38 -43.333 -88.667 -76 -152s-50 -96 -52 -98h-44z" />
    <glyph glyph-name="numbersign" unicode="#" horiz-adv-x="1328" 
d="M147 488v124h237v319h-237v124h237v462h132v-462h282v462h132v-462h246v-124h-246v-319h246v-124h-246v-488h-132v488h-282v-488h-132v488h-237zM516 612h282v319h-282v-319z" />
    <glyph glyph-name="dollar" unicode="$" horiz-adv-x="1201" 
d="M157 1150c0 50.667 13.668 102.168 41.001 154.501s68 98.166 122 137.499s116 64.333 186 75v47h148v-45c140.667 -15.333 243.334 -79.666 308.001 -192.999c5.33301 -8.66699 11 -18.834 17 -30.501s9.66699 -18.5 11 -20.5l-120 -64c-10.667 34 -28 64.333 -52 91
c-44.667 48.667 -99.334 79 -164.001 91v-555l80 -26c94 -32.667 170.667 -78 230 -136c71.333 -70.667 107 -167.667 107 -291c0 -62 -13.5 -118.167 -40.5 -168.5s-55.333 -90.5 -85 -120.5s-69.834 -55.167 -120.501 -75.5s-107.667 -30.5 -171 -30.5v-203h-148v216
c-114.667 23.333 -210.667 76 -288 158c-18 18.667 -31.333 34 -40 46l-13 18l118 78c0.666992 0 3.16699 -4.5 7.5 -13.5s11.5 -20.5 21.5 -34.5s22.667 -28.667 38 -44c36.667 -36.667 88.667 -63.667 156 -81v610c-133.333 52 -226 111.333 -278 178
c-47.333 60.667 -71 138 -71 232zM359.001 1307c-36 -43.333 -53.999 -92 -53.999 -146s5.16699 -95.833 15.5 -125.5s26.166 -54.167 47.499 -73.5c32 -27.333 78 -52.333 138 -75v504c-62 -12.667 -111 -40.667 -147 -84zM654.002 114.001
c89.333 1.33301 156.5 27 201.5 77s67.5 111.833 67.5 185.5s-14.5 132 -43.5 175s-79.833 79.5 -152.5 109.5l-73 28v-575z" />
    <glyph glyph-name="percent" unicode="%" horiz-adv-x="1075" 
d="M81 1242c0 70.667 24.833 130.834 74.5 180.501s109.834 74.5 180.501 74.5s130.834 -24.833 180.501 -74.5s74.5 -109.834 74.5 -180.501s-24.833 -130.834 -74.5 -180.501s-109.834 -74.5 -180.501 -74.5s-130.834 24.833 -180.501 74.5s-74.5 109.834 -74.5 180.501z
M177 1242c0 -43.333 15.5 -80.5 46.5 -111.5s68.167 -46.5 111.5 -46.5s80.5 15.5 111.5 46.5s46.5 68.167 46.5 111.5s-15.5 80.5 -46.5 111.5s-68.167 46.5 -111.5 46.5s-80.5 -15.5 -111.5 -46.5s-46.5 -68.167 -46.5 -111.5zM512 267
c0 70.667 24.833 130.834 74.5 180.501s109.834 74.5 180.501 74.5s130.834 -24.833 180.501 -74.5s74.5 -109.834 74.5 -180.501s-24.833 -130.834 -74.5 -180.501s-109.834 -74.5 -180.501 -74.5s-130.834 24.833 -180.501 74.5s-74.5 109.834 -74.5 180.501zM608 267
c0 -43.333 15.5 -80.5 46.5 -111.5s68.167 -46.5 111.5 -46.5s80.5 15.5 111.5 46.5s46.5 68.167 46.5 111.5s-15.5 80.5 -46.5 111.5s-68.167 46.5 -111.5 46.5s-80.5 -15.5 -111.5 -46.5s-46.5 -68.167 -46.5 -111.5zM67 66l837 1449l114 -66l-836 -1449z" />
    <glyph glyph-name="ampersand" unicode="&#x26;" horiz-adv-x="1407" 
d="M234 715c44 44 106.333 95.665 187 154.998c-67.333 134.667 -101 247.834 -101 339.501s29 169 87 232s130.667 94.5 218 94.5s158.166 -30.5 212.499 -91.5s81.5 -135.833 81.5 -224.5c0 -99.333 -43 -184 -129 -254c-60 -48.667 -127.333 -93.334 -202 -134.001
c91.333 -152 212 -308.667 362 -470c52.667 72.667 86.334 135.334 101.001 188.001s22 106.667 22 162h132c0 -94 -15.5 -176.167 -46.5 -246.5s-68.833 -137.833 -113.5 -202.5c67.333 -64.667 124 -102 170 -112c22 -4.66699 49.333 -7 82 -7v-144h-82
c-32.667 0 -66.667 9.83301 -102 29.5s-86.333 62.834 -153 129.501c-111.333 -113.333 -247.666 -170 -408.999 -170c-122.667 0 -226.834 40.833 -312.501 122.5s-128.5 181.667 -128.5 300s41.333 219.5 124 303.5zM242 415.998c0 -84.667 30.833 -156.333 92.5 -215
s135.167 -88 220.5 -88c109.333 0 212.333 49 309 147c-160 176 -287.667 343 -383 501l-77 -59c-56 -44 -92.333 -80.667 -109 -110c-35.333 -59.333 -53 -118 -53 -176zM502 1358.5c-33.333 -42.333 -50 -96.166 -50 -161.499s25.333 -150.333 76 -255
c94.667 53.333 154.5 89.666 179.5 108.999s42.5 36.333 52.5 51c26.667 38 40 81.333 40 130s-16 92.5 -48 131.5s-73.333 58.5 -124 58.5s-92.667 -21.167 -126 -63.5z" />
    <glyph glyph-name="quotesingle" unicode="'" horiz-adv-x="334" 
d="M70 1046l87 250h-65v150h150v-150c-18 -38 -43.333 -88.667 -76 -152s-50 -96 -52 -98h-44z" />
    <glyph glyph-name="parenleft" unicode="(" horiz-adv-x="546" 
d="M92 697c0 70.667 5.99902 143.333 17.999 218s27.667 142.5 47 203.5s40.666 120 63.999 177s46.333 106.5 69 148.5c47.333 86 84.333 147.333 111 184l18 25l116 -78c-29.333 -42 -62.666 -98.833 -99.999 -170.5s-68.666 -140 -93.999 -205
s-48.5 -144.167 -69.5 -237.5s-31.5 -183.333 -31.5 -270s10 -177 30 -271s44 -177 72 -249c59.333 -150.667 112 -262 158 -334l30 -48l-116 -78c-65.333 93.333 -130.333 221.333 -195 384c-84.667 212.667 -127 413 -127 601z" />
    <glyph glyph-name="parenright" unicode=")" horiz-adv-x="546" 
d="M92 1575l115.998 78c68.667 -88 134.667 -207 198 -357c86 -202 129 -403 129 -603c0 -93.333 -11 -191 -33 -293s-48.667 -192 -80 -270c-65.333 -160.667 -124 -282.667 -176 -366l-33 -52l-116 78c26.667 40 58.5 97.167 95.5 171.5s68.167 145.166 93.5 212.499
s48.5 148.833 69.5 244.5s31.5 186.834 31.5 273.501s-10.5 176.667 -31.5 270s-44.167 172.5 -69.5 237.5s-54.666 129.833 -87.999 194.5c-41.333 78.667 -76.666 139 -105.999 181z" />
    <glyph glyph-name="asterisk" unicode="*" horiz-adv-x="688" 
d="M63 721l29 88l206 -67v216h92v-216l205 67l29 -88l-205 -67l127 -175l-75 -55l-127 175l-127 -175l-75 55l127 175z" />
    <glyph glyph-name="plus" unicode="+" horiz-adv-x="909" 
d="M75 674v132h314v314h132v-314h313v-132h-313v-314h-132v314h-314z" />
    <glyph glyph-name="comma" unicode="," horiz-adv-x="334" 
d="M70 -250l87 250h-65v150h150v-150c-18 -38 -43.333 -88.667 -76 -152s-50 -96 -52 -98h-44z" />
    <glyph glyph-name="hyphen" unicode="-" horiz-adv-x="512" 
d="M0 523v112h512v-112h-512z" />
    <glyph glyph-name="period" unicode="." horiz-adv-x="334" 
d="M92 0v150h150v-150h-150z" />
    <glyph glyph-name="slash" unicode="/" horiz-adv-x="1003" 
d="M70 -12l744 1591l108 -51l-743 -1591z" />
    <glyph glyph-name="zero" unicode="0" horiz-adv-x="1135" 
d="M94.5 526c-9.66699 68 -14.5 139.831 -14.5 215.498s4.66699 148.667 14 219s26 140.333 50 210s54.167 129.834 90.5 180.501s84 91.834 143 123.501s125.167 47.5 198.5 47.5s138 -15.667 194 -47s101.5 -72.333 136.5 -123s64.167 -110.667 87.5 -180
c40.667 -124.667 61 -269 61 -433c0 -371.333 -94.333 -606.333 -283 -705c-56.667 -30 -121.5 -45 -194.5 -45s-138.667 15 -197 45s-106 69.167 -143 117.5s-67.667 105.833 -92 172.5s-41.333 134 -51 202zM228 738.998c0 -234 35.3301 -401.666 105.997 -502.999
c56 -82 137.667 -123 245 -123c118 0 201.667 45.333 251 136c31.333 57.333 51 118.333 59 183c12 96.667 18 187 18 271s-1.66699 151 -5 201s-9.16602 101 -17.499 153s-20.666 97.667 -36.999 137s-36.166 74.666 -59.499 105.999c-48 65.333 -117.667 98 -209 98
c-234 0 -351 -219.667 -351 -659z" />
    <glyph glyph-name="one" unicode="1" horiz-adv-x="887" 
d="M106 1400l327 115h106v-1373h220v-142h-612v142h244v1210l-237 -69z" />
    <glyph glyph-name="two" unicode="2" horiz-adv-x="1180" 
d="M90 0c0 90 4.33105 147.665 12.998 172.998s18.334 51.333 29.001 78s23.834 50.834 39.501 72.501s35.334 47.334 59.001 77.001s51.167 58.834 82.5 87.501c76.667 71.333 141.667 126.666 195 165.999l184 134c48 34 81.167 60.667 99.5 80s34.833 38.333 49.5 57
s25.667 37 33 55c18.667 44 28 89.333 28 136c0 86 -24.333 155.333 -73 208s-123 79 -223 79c-124.667 0 -217.334 -50.333 -278.001 -151c-31.333 -53.333 -47 -108 -47 -164h-148c0 83.333 23.167 159 69.5 227s106.833 120.333 181.5 157s152.334 55 233.001 55
s153.667 -18 219 -54s117.333 -85.667 156 -149s58 -132.666 58 -207.999s-16.667 -140 -50 -194c-36.667 -60 -73.334 -106 -110.001 -138l-86 -73l-83 -63c-312.667 -232.667 -469 -401.334 -469 -506.001h777v-142h-939z" />
    <glyph glyph-name="three" unicode="3" horiz-adv-x="1171" 
d="M70 237l101 87c33.333 -50 87.666 -98.667 162.999 -146c70.667 -43.333 148.167 -65 232.5 -65s159.833 26.5 226.5 79.5s100 126.333 100 220s-28.667 169.834 -86 228.501s-133.333 88 -228 88h-213v125h213c87.333 0 153.333 27.167 198 81.5s67 122.166 67 203.499
s-27.5 145.666 -82.5 192.999s-125.167 71 -210.5 71c-106.667 0 -206.334 -41.667 -299.001 -125c-18.667 -16 -33.667 -31 -45 -45l-96 93c48.667 56 111.334 103.5 188.001 142.5s158.834 58.5 246.501 58.5s164.167 -17 229.5 -51s117.833 -80.167 157.5 -138.5
s59.5 -121.166 59.5 -188.499c0 -106 -33 -198 -99 -276c-29.333 -34.667 -59 -61.667 -89 -81c82 -49.333 142 -104.666 180 -165.999c38 -60.667 57 -130.334 57 -209.001c0 -138.667 -44.667 -244.667 -134 -318s-208 -110 -356 -110c-190.667 0 -351 82.667 -481 248z
" />
    <glyph glyph-name="four" unicode="4" horiz-adv-x="1273" 
d="M128 390v120l656 1005h178v-1001h231v-124h-231v-390h-148v390h-686zM279 514h535v826z" />
    <glyph glyph-name="five" unicode="5" horiz-adv-x="1048" 
d="M87 276l98.0039 75.001c12 -37.333 37.667 -76.666 77 -117.999c76 -80 155.667 -120 239 -120c41.333 0 80.666 9.66699 117.999 29s67.666 39.666 90.999 60.999s44 46 62 74c40 64 60 149 60 255c0 161.333 -50.333 270 -151 326
c-48.667 27.333 -102.334 41 -161.001 41s-113.667 -21.333 -165 -64s-79.333 -80.334 -84 -113.001h-136v793h762v-124h-614v-460c40.667 38.667 93.667 66 159 82c28 6.66699 56.333 10 85 10c131.333 0 239.666 -45.333 324.999 -136s128 -212.5 128 -365.5
s-44 -280 -132 -381s-202 -151.5 -342 -151.5c-125.333 0 -235 49 -329 147c-48 49.333 -78 96 -90 140z" />
    <glyph glyph-name="six" unicode="6" horiz-adv-x="1163" 
d="M1047 478c0 -94.667 -24.335 -183.665 -73.002 -266.998c-54 -91.333 -128 -155.333 -222 -192c-50.667 -20 -106 -30 -166 -30c-149.333 0 -266.833 60.5 -352.5 181.5s-128.5 290.167 -128.5 507.5c0 265.333 52.667 471 158 617s250.666 219 435.999 219
c46.667 0 97.334 -10.667 152.001 -32s92 -44.333 112 -69l-58 -107c-78.667 56 -153.667 84 -225 84c-122 0 -223.667 -56.333 -305 -169s-126.333 -271.667 -135 -477c0.666992 0.666992 4.83398 6.66699 12.501 18s14.334 20.666 20.001 27.999s14.667 17.666 27 30.999
s24.5 24.833 36.5 34.5s27.167 20.167 45.5 31.5s37.166 20.666 56.499 27.999c46.667 16.667 96.334 25 149.001 25c135.333 0 245.833 -42.167 331.5 -126.5s128.5 -196.166 128.5 -335.499zM813.998 725.502c-56.667 60.333 -132.333 90.499 -227 90.499
c-103.333 0 -186 -38.333 -248 -115c-36.667 -45.333 -64 -107.333 -82 -186c14.667 -204 88 -331.333 220 -382c34.667 -13.333 68.667 -20 102 -20s64 4 92 12s55.833 21.333 83.5 40s52.167 41.334 73.5 68.001c47.333 60 71 142 71 246s-28.333 186.167 -85 246.5z" />
    <glyph glyph-name="seven" unicode="7" horiz-adv-x="982" 
d="M84 1376v139h873v-141l-593 -1374h-164l607 1376h-723z" />
    <glyph glyph-name="eight" unicode="8" horiz-adv-x="1204" 
d="M102 400c0 118.667 54.665 220.998 163.998 306.998c53.333 42 110.666 74.667 171.999 98c-80.667 28 -146.667 71.333 -198 130s-77 126.834 -77 204.501s20.833 145.834 62.5 204.501s96.334 103.5 164.001 134.5s141.167 46.5 220.5 46.5
c120.667 0 223.667 -35.667 309 -107s128 -159.333 128 -264c0 -114.667 -63.667 -214 -191 -298c-34 -22 -70.333 -41.667 -109 -59l68 -31c121.333 -56 202.333 -121.333 243 -196c29.333 -52 44 -108.5 44 -169.5s-13.5 -117.333 -40.5 -169
s-62.833 -94.834 -107.5 -129.501c-96 -75.333 -206.667 -113 -332 -113c-89.333 0 -173.166 16 -251.499 48s-142.666 79.833 -192.999 143.5s-75.5 136.834 -75.5 219.501zM351.498 611.998c-67.667 -64 -101.501 -130.499 -101.501 -199.499s18 -125.833 54 -170.5
c69.333 -86 174.333 -129 315 -129c55.333 0 104.833 10.333 148.5 31s77.834 41.667 102.501 63c56 49.333 84 114.666 84 195.999c0 78.667 -29.667 143.667 -89 195c-50 42.667 -116.333 81 -199 115l-76 31c-91.333 -24 -170.833 -68 -238.5 -132zM427.997 948.999
c36 -24.667 70.999 -44.9971 104.999 -60.9971s52.333 -24.667 55 -26c102.667 42 171.334 74.667 206.001 98c70 47.333 105 109.666 105 186.999s-29.667 139 -89 185s-128.333 69 -207 69s-147 -24.333 -205 -73s-87 -110.834 -87 -186.501s39 -139.834 117 -192.501z
" />
    <glyph glyph-name="nine" unicode="9" horiz-adv-x="1163" 
d="M105 1025c0 94.667 24.335 183.665 73.002 266.998c54 91.333 128 155.333 222 192c50.667 20 106 30 166 30c149.333 0 266.833 -60.5 352.5 -181.5s128.5 -290.167 128.5 -507.5c0 -265.333 -52.667 -471 -158 -617s-250.666 -219 -435.999 -219
c-46.667 0 -97.334 10.667 -152.001 32s-92 44.333 -112 69l58 107c78.667 -56 153.667 -84 225 -84c122 0 223.667 56.333 305 169s126.333 271.667 135 477c-0.666992 -0.666992 -4.83398 -6.66699 -12.501 -18s-14.334 -20.666 -20.001 -27.999
s-14.667 -17.666 -27 -30.999s-24.5 -24.833 -36.5 -34.5s-27.167 -20.167 -45.5 -31.5s-37.166 -20.666 -56.499 -27.999c-46.667 -16.667 -96.334 -25 -149.001 -25c-135.333 0 -245.833 42.167 -331.5 126.5s-128.5 196.166 -128.5 335.499zM338.002 777.498
c56.667 -60.333 132.333 -90.499 227 -90.499c103.333 0 186 38.333 248 115c36.667 45.333 64 107.333 82 186c-14.667 204 -88 331.333 -220 382c-34.667 13.333 -68.667 20 -102 20s-64 -4 -92 -12s-55.833 -21.333 -83.5 -40s-52.167 -41.334 -73.5 -68.001
c-47.333 -60 -71 -142 -71 -246s28.333 -186.167 85 -246.5z" />
    <glyph glyph-name="colon" unicode=":" horiz-adv-x="334" 
d="M92 0v150h150v-150h-150zM92 905v150h150v-150h-150z" />
    <glyph glyph-name="semicolon" unicode=";" horiz-adv-x="334" 
d="M70 -250l87 250h-65v150h150v-150c-18 -38 -43.333 -88.667 -76 -152s-50 -96 -52 -98h-44zM92 905v150h150v-150h-150z" />
    <glyph glyph-name="less" unicode="&#x3c;" horiz-adv-x="1018" 
d="M64 744l830 555l60 -90l-722 -465l722 -465l-60 -90z" />
    <glyph glyph-name="equal" unicode="=" horiz-adv-x="933" 
d="M75 498v132h783v-132h-783zM75 812v132h783v-132h-783z" />
    <glyph glyph-name="greater" unicode="&#x3e;" horiz-adv-x="1018" 
d="M954 744l-830 -555l-60 90l722 465l-722 465l60 90z" />
    <glyph glyph-name="question" unicode="?" horiz-adv-x="863" 
d="M93 1314c35.333 66.667 78.001 116.833 128.001 150.5s113.333 50.5 190 50.5s141.834 -18.333 195.501 -55s94.667 -84.334 123 -143.001s42.5 -118.334 42.5 -179.001s-12.167 -117.5 -36.5 -170.5s-53.5 -100.167 -87.5 -141.5l-104 -122
c-82.667 -94 -124 -172.333 -124 -235v-149h-132v149c0 82.667 41 172.334 123 269.001l102 121c82 96.667 123 183.667 123 261s-23 141 -69 191s-92.5 75 -139.5 75s-84.333 -5.16699 -112 -15.5s-49.334 -24.166 -65.001 -41.499s-34.834 -45 -57.501 -83z
M273.001 -0.000976562v150h150v-150h-150z" />
    <glyph glyph-name="at" unicode="@" horiz-adv-x="1609" 
d="M107 409.5c-18 67 -26.9971 142.495 -26.9971 226.495s15.167 166.833 45.5 248.5s70.166 149.667 119.499 204s106.333 100.5 171 138.5c121.333 71.333 249.5 107 384.5 107s257.167 -30 366.5 -90s197 -142.333 263 -247s99 -218.334 99 -341.001
c0 -250 -61 -407.333 -183 -472c-38 -20 -82.333 -30 -133 -30c-72 0 -126.5 24.5 -163.5 73.5s-55.5 108.833 -55.5 179.5c-0.666992 0 -4.33398 -6.33301 -11.001 -19s-16.167 -26.167 -28.5 -40.5s-27.833 -29.166 -46.5 -44.499c-42.667 -36 -93.167 -54 -151.5 -54
s-105.166 7.5 -140.499 22.5s-63 33.667 -83 56s-36.333 48.5 -49 78.5c-22 50 -33 106.667 -33 170s18 127.666 54 192.999s83.167 117.666 141.5 156.999s118.166 59 179.499 59s117.333 -21 168 -63l21 76h110v-623c0 -34 12.5 -60.667 37.5 -80s51.5 -29 79.5 -29
s53.333 12 76 36s40.667 55.667 54 95c26.667 78.667 40 167.834 40 267.501s-26.333 193.834 -79 282.501s-124.167 158.334 -214.5 209.001s-189.5 76 -297.5 76c-114 0 -224.333 -28.333 -331 -85c-135.333 -72 -224.333 -187.667 -267 -347
c-16 -60.667 -24 -127.667 -24 -201s14.667 -145.666 44 -216.999s70.166 -135.166 122.499 -191.499s118.5 -101.666 198.5 -135.999s166.667 -51.5 260 -51.5c49.333 0 94.166 5.5 134.499 16.5s68.5 21.833 84.5 32.5l24 17l60 -90
c0 -2.66699 -9.83301 -10.667 -29.5 -24s-52.5 -27.666 -98.5 -42.999s-108.5 -23 -187.5 -23s-162.333 14.333 -250 43s-160.667 67 -219 115s-107.666 103.667 -147.999 167s-69.5 128.5 -87.5 195.5zM658.003 778.495c-50 -58.333 -75 -121.5 -75 -189.5
s16.167 -123 48.5 -165s73.833 -63 124.5 -63c76.667 0 156 47.667 238 143v306c-50 37.333 -106 56 -168 56s-118 -29.167 -168 -87.5z" />
    <glyph glyph-name="A" unicode="A" horiz-adv-x="1130" 
d="M25 0l432 1515h216l432 -1515h-154l-130 478h-509l-133 -478h-154zM346 602h440l-221 787z" />
    <glyph glyph-name="B" unicode="B" horiz-adv-x="1132" 
d="M135 0l0.000976562 1515h473c122 0 222.667 -34.833 302 -104.5s119 -155.834 119 -258.501c0 -170 -59.333 -278.667 -178 -326c-20.667 -8.66699 -46.334 -17.334 -77.001 -26.001c109.333 -28 191.333 -93.667 246 -197c29.333 -56.667 44 -121 44 -193
c0 -124.667 -39 -224.167 -117 -298.5s-191 -111.5 -339 -111.5h-473zM283.001 124.002l325.001 0.00195312c108.667 0 188 22.667 238 68c21.333 19.333 39.666 47.666 54.999 84.999s23 81.666 23 132.999c0 94.667 -29 171 -87 229s-134.333 87 -229 87h-325v-602z
M283.002 853.004l325 0.000976562c93.333 0 164 23.667 212 71c20 19.333 37.5 48.666 52.5 87.999s22.5 86 22.5 140c0 78 -24.5 137.333 -73.5 178s-120.167 61 -213.5 61h-325v-538z" />
    <glyph glyph-name="C" unicode="C" horiz-adv-x="1174" 
d="M88.5 600c-5.66699 52 -8.49805 110.499 -8.49805 175.499s5.83301 133.333 17.5 205s31.167 141.334 58.5 209.001s61.333 126.5 102 176.5s91.834 90.167 153.501 120.5s124.5 45.5 188.5 45.5s118.5 -8.16699 163.5 -24.5s82.833 -37.5 113.5 -63.5
s58.667 -54.833 84 -86.5s45.333 -63.5 60 -95.5c30.667 -66 49.667 -116 57 -150l6 -24v-1l-152 -41c-10.667 76 -24.167 131.5 -40.5 166.5s-32.666 63.667 -48.999 86s-34.5 41.166 -54.5 56.499c-47.333 35.333 -104 53 -170 53c-260 0 -390 -216.333 -390 -649
c0 -185.333 27.333 -336.666 82 -453.999c62 -131.333 164.667 -197 308 -197c117.333 0 208.666 46 273.999 138c45.333 64.667 68 137 68 217l146 -23c-2.66699 -7.33301 -8.83398 -25.333 -18.501 -54s-17.834 -52 -24.501 -70s-17.5 -42.5 -32.5 -73.5
s-30 -56.833 -45 -77.5s-35 -43.5 -60 -68.5s-51.5 -44.833 -79.5 -59.5c-67.333 -35.333 -136.333 -53 -207 -53s-130.167 8 -178.5 24s-90.5 37.833 -126.5 65.5s-68.5 61 -97.5 100s-53.167 81 -72.5 126s-35.333 93.333 -48 145s-21.834 103.5 -27.501 155.5z" />
    <glyph glyph-name="D" unicode="D" horiz-adv-x="1214" 
d="M135 0l-0.000976562 1515h361c334.667 0 539.334 -148.667 614.001 -446c24 -96 36 -194 36 -294s-7 -185.333 -21 -256s-37.167 -138.167 -69.5 -202.5s-72.833 -119.5 -121.5 -165.5c-107.333 -100.667 -253.333 -151 -438 -151h-361zM282.999 124h213
c218 0 366 93 444 279c38.667 93.333 58 207.333 58 342c0 239.333 -46 410 -138 512c-36 39.333 -84.833 71.5 -146.5 96.5s-134.167 37.5 -217.5 37.5h-213v-1267z" />
    <glyph glyph-name="E" unicode="E" horiz-adv-x="1062" 
d="M135 0v1515h821v-124h-673v-533h483v-124h-483v-601h711v-133h-859z" />
    <glyph glyph-name="F" unicode="F" horiz-adv-x="1024" 
d="M135 0v1515h821v-124h-673v-533h483v-124h-483v-734h-148z" />
    <glyph glyph-name="G" unicode="G" horiz-adv-x="1246" 
d="M98.5 542c-12.333 72.667 -18.5 144.167 -18.5 214.5s4.66699 135.833 14 196.5s23.333 119.667 42 177s43.5 110.166 74.5 158.499s66.167 90.833 105.5 127.5c85.333 77.333 192 116 320 116c94 0 182.333 -28.333 265 -85c96.667 -66 167 -182 211 -348l-145 -36
c-0.666992 4.66699 -1.5 11.167 -2.5 19.5s-4.66699 24.5 -11 48.5s-13.833 46.833 -22.5 68.5s-21.834 45.667 -39.501 72s-37.5 49.166 -59.5 68.499c-50.667 45.333 -114.667 68 -192 68s-143.333 -18 -198 -54s-97 -85.333 -127 -148c-58 -120 -87 -266 -87 -438
c0 -205.333 26.667 -358.666 80 -459.999c70 -133.333 180.333 -200 331 -200c187.333 0 295.666 108 324.999 324c6 46.667 9 99.667 9 159h-337v124h482v-715h-120v192c-75.333 -104 -155 -168 -239 -192c-37.333 -10.667 -86.666 -16 -147.999 -16
s-123.833 15.333 -187.5 46s-116.5 71.334 -158.5 122.001s-77.167 110.167 -105.5 178.5s-48.666 138.833 -60.999 211.5z" />
    <glyph glyph-name="H" unicode="H" horiz-adv-x="1254" 
d="M135 0v1515h148v-657h688v657h148v-1515h-148v734h-688v-734h-148z" />
    <glyph glyph-name="I" unicode="I" horiz-adv-x="418" 
d="M135 0v1515h148v-1515h-148z" />
    <glyph glyph-name="J" unicode="J" horiz-adv-x="896" 
d="M25 244l103.001 53c16 -42.667 45.333 -83.667 88 -123c18 -16.667 42.333 -31.834 73 -45.501s63 -20.5 97 -20.5c81.333 0 139.5 27.833 174.5 83.5s52.5 134.834 52.5 237.501v1086h148v-1086c0 -217.333 -72.333 -356.333 -217 -417c-46 -18.667 -97 -28 -153 -28
s-106 8.83301 -150 26.5s-78.333 37.667 -103 60s-46.334 47.833 -65.001 76.5c-26.667 40.667 -42.667 73 -48 97z" />
    <glyph glyph-name="K" unicode="K" horiz-adv-x="1140" 
d="M135 0v1515h149v-824l617 824h159l-434 -569l489 -946h-166l-417 822l-248 -327v-495h-149z" />
    <glyph glyph-name="L" unicode="L" horiz-adv-x="980" 
d="M135 0v1515h148v-1373h672v-142h-820z" />
    <glyph glyph-name="M" unicode="M" horiz-adv-x="1457" 
d="M128 0v1515h268l324 -1163h10l324 1163h268v-1515h-148v1374h-10l-382 -1374h-114l-382 1374h-10v-1374h-148z" />
    <glyph glyph-name="N" unicode="N" horiz-adv-x="1251" 
d="M128 0v1515h236l611 -1154v1154h148v-1515h-127l-720 1368v-1368h-148z" />
    <glyph glyph-name="O" unicode="O" horiz-adv-x="1263" 
d="M101 529.5c-14 72.333 -21.001 146.833 -21.001 223.5s6.33301 151.334 19 224.001s33.334 143 62.001 211s64.167 127.167 106.5 177.5s95.5 90.666 159.5 120.999s134.5 45.5 211.5 45.5s146.333 -15.5 208 -46.5s113 -72 154 -123s75.5 -110.5 103.5 -178.5
c52.667 -128 79 -272 79 -432c0 -292.667 -75.667 -510 -227 -652c-82 -77.333 -187 -116 -315 -116c-74 0 -142.333 14.833 -205 44.5s-115.5 69.334 -158.5 119.001s-79.667 107.667 -110 174s-52.5 135.666 -66.5 207.999zM240.999 951.5
c-8.66699 -62.333 -13.001 -133.167 -13.001 -212.5s7.83301 -156.5 23.5 -231.5s39.334 -142.833 71.001 -203.5s74.667 -108.5 129 -143.5s114.333 -52.5 180 -52.5s122 13.167 169 39.5s84.833 60.5 113.5 102.5s52.334 92 71.001 150c33.333 102.667 50 220 50 352
c0 219.333 -40.333 389.333 -121 510c-28.667 43.333 -66.334 78.5 -113.001 105.5s-100 40.5 -160 40.5s-113.833 -12 -161.5 -36s-87 -56.167 -118 -96.5s-56.667 -88.833 -77 -145.5s-34.833 -116.167 -43.5 -178.5z" />
    <glyph glyph-name="P" unicode="P" horiz-adv-x="1136" 
d="M135 0v1515h529c156.667 0 272 -62 346 -186c38.667 -65.333 58 -130.5 58 -195.5s-7.33301 -121.667 -22 -170s-37.167 -93.333 -67.5 -135s-72.5 -74.834 -126.5 -99.501s-116.667 -37 -188 -37h-381v-692h-148zM283 816.001l279.999 0.000976562
c108 0 194.5 23.667 259.5 71s97.5 119.666 97.5 216.999s-32.667 169.5 -98 216.5s-151.666 70.5 -258.999 70.5h-280v-575z" />
    <glyph glyph-name="Q" unicode="Q" horiz-adv-x="1263" 
d="M112.5 492c-21.667 84.667 -32.5039 168.498 -32.5039 251.498s6.33301 160.833 19 233.5s33.334 143 62.001 211s64.167 127.167 106.5 177.5s95.5 90.666 159.5 120.999s134.5 45.5 211.5 45.5s146.333 -15.5 208 -46.5s113 -72 154 -123s75.5 -110.5 103.5 -178.5
c52.667 -128 79 -272 79 -432c0 -178 -35.667 -338.667 -107 -482c-35.333 -71.333 -82.666 -131.833 -141.999 -181.5s-127.333 -82.167 -204 -97.5c0 -61.333 10.667 -100.333 32 -117c18 -14 49 -21 93 -21h264v-124h-129c-142.667 0 -230.167 4.5 -262.5 13.5
s-56.666 18.333 -72.999 28s-28.5 20.334 -36.5 32.001s-15.333 26.834 -22 45.501c-9.33301 28.667 -14 75.334 -14 140.001c-80 11.333 -152.667 41.333 -218 90s-118.166 108.667 -158.499 180s-71.333 149.333 -93 234zM240.996 951.498
c-8.66699 -62.333 -13.001 -133.167 -13.001 -212.5s7.83301 -156.5 23.5 -231.5s39.334 -142.833 71.001 -203.5s74.667 -108.5 129 -143.5s114.333 -52.5 180 -52.5s122 13.167 169 39.5s84.833 60.5 113.5 102.5s52.334 92 71.001 150c33.333 102.667 50 220 50 352
c0 219.333 -40.333 389.333 -121 510c-28.667 43.333 -66.334 78.5 -113.001 105.5s-100 40.5 -160 40.5s-113.833 -12 -161.5 -36s-87 -56.167 -118 -96.5s-56.667 -88.833 -77 -145.5s-34.833 -116.167 -43.5 -178.5z" />
    <glyph glyph-name="R" unicode="R" horiz-adv-x="1093" 
d="M135 0l0.000976562 1515h510c159.333 0 278.666 -62 357.999 -186c43.333 -67.333 65 -138 65 -212c0 -89.333 -21.333 -171 -64 -245c-46.667 -81.333 -122.667 -133.333 -228 -156l286 -716h-162l-276 692h-341v-692h-148zM283.001 816h376c70 0 129.667 22 179 66
c54.667 48.667 82 124.667 82 228c0 137.333 -74 225.333 -222 264c-44 11.333 -92 17 -144 17h-271v-575z" />
    <glyph glyph-name="S" unicode="S" horiz-adv-x="1033" 
d="M40 368l137.005 47.998c0.666992 0 2.16699 -5.66699 4.5 -17s6.66602 -26 12.999 -44s14.833 -38 25.5 -60s25.834 -44 45.501 -66s42.5 -42 68.5 -60c57.333 -40.667 133 -61 227 -61s164 25.667 210 77s69 114.5 69 189.5s-14.5 134 -43.5 177
s-79.833 79.5 -152.5 109.5c-21.333 8.66699 -49.333 19 -84 31l-95 33c-164.667 54.667 -275.334 124.667 -332.001 210c-39.333 59.333 -59 128.666 -59 207.999c0 94 37.333 181.667 112 263c35.333 37.333 80.333 67.666 135 90.999s112.167 35 172.5 35
s113.666 -8.16699 159.999 -24.5s83.666 -36.5 111.999 -60.5s53.833 -51.667 76.5 -83s39 -59.333 49 -84l29 -74c8.66699 -23.333 14 -37 16 -41l-130 -50c-1.33301 3.33301 -4.5 13.833 -9.5 31.5s-9.33301 32.167 -13 43.5s-10 27 -19 47s-18.333 36.833 -28 50.5
s-22.334 28.667 -38.001 45s-32.5 29.5 -50.5 39.5c-44 24 -93.667 36 -149 36c-82 0 -148.667 -24.167 -200 -72.5s-77 -112.5 -77 -192.5c0 -87.333 22.667 -148.666 68 -183.999c24.667 -19.333 45.5 -33.333 62.5 -42s37 -17.167 60 -25.5s39.833 -14.666 50.5 -18.999
s31.667 -11.166 63 -20.499l84 -26c154.667 -47.333 261 -117.666 319 -210.999c39.333 -63.333 59 -140 59 -230c0 -65.333 -20.667 -133.666 -62 -204.999c-51.333 -90.667 -129.333 -150.667 -234 -180c-39.333 -10.667 -85.166 -16 -137.499 -16s-103.833 7 -154.5 21
s-93.167 32.333 -127.5 55s-65.333 47.667 -93 75s-49.834 54.666 -66.501 81.999c-30.667 50 -52.334 93.333 -65.001 130z" />
    <glyph glyph-name="T" unicode="T" horiz-adv-x="1062" 
d="M25 1391v124h1012v-124h-432v-1391h-148v1391h-432z" />
    <glyph glyph-name="U" unicode="U" horiz-adv-x="1213" 
d="M135 455v1060h148v-1060c0 -90.667 22 -167 66 -229c55.333 -78.667 142 -118 260 -118c176 0 280.333 79.333 313 238c8 36.667 12 73 12 109v1060h151v-1060c0 -109.333 -29.667 -207 -89 -293c-80 -118.667 -209 -178 -387 -178c-212.667 0 -355.667 84.667 -429 254
c-30 70.667 -45 143 -45 217z" />
    <glyph glyph-name="V" unicode="V" horiz-adv-x="1104" 
d="M25 1515h154l373 -1256l373 1256h154l-450 -1515h-154z" />
    <glyph glyph-name="W" unicode="W" horiz-adv-x="1614" 
d="M25 1515h154l259 -1198h10l274 1198h170l274 -1198h10l259 1198h154l-351 -1515h-152l-274 1198h-10l-274 -1198h-152z" />
    <glyph glyph-name="X" unicode="X" horiz-adv-x="1083" 
d="M25 0l437 773l-419 742h154l359 -634l348 634h154l-428 -765l425 -750h-156l-359 636l-359 -636h-156z" />
    <glyph glyph-name="Y" unicode="Y" horiz-adv-x="1122" 
d="M25 1515h154l382 -713l382 713h154l-462 -855v-660h-148v660z" />
    <glyph glyph-name="Z" unicode="Z" horiz-adv-x="1142" 
d="M68 0v107l825 1280h-771v128h952v-123l-794 -1250h788v-142h-1000z" />
    <glyph glyph-name="bracketleft" unicode="[" horiz-adv-x="607" 
d="M100 -285v1923h437v-92h-289v-1739h289v-92h-437z" />
    <glyph glyph-name="backslash" unicode="\" horiz-adv-x="1003" 
d="M81 1528l108 51l744 -1591l-109 -51z" />
    <glyph glyph-name="bracketright" unicode="]" horiz-adv-x="607" 
d="M100 -193h289v1739h-289v92h437v-1923h-437v92z" />
    <glyph glyph-name="asciicircum" unicode="^" horiz-adv-x="624" 
d="M90 1197l222 222l222 -222l-66 -64l-156 156l-157 -157z" />
    <glyph glyph-name="underscore" unicode="_" horiz-adv-x="1112" 
d="M92 0v112h928v-112h-928z" />
    <glyph glyph-name="grave" unicode="`" horiz-adv-x="683" 
d="M179 1368l87 87l295 -295l-66 -65z" />
    <glyph glyph-name="a" unicode="a" horiz-adv-x="928" 
d="M90 382.5c12 35.667 30.8301 67.333 56.4971 95s54.834 52.167 87.501 73.5s73.334 40.666 122.001 57.999c88.667 31.333 197 59.666 325 84.999c0 105.333 -20.333 175.666 -61 210.999c-36 31.333 -88.333 47 -157 47c-84 0 -156.333 -32 -217 -96
c-26 -26 -44 -49.333 -54 -70l-95 63c74.667 143.333 201.667 215 381 215c160.667 0 263.334 -61.667 308.001 -185c18 -50 27 -110.667 27 -182v-549c0 -19.333 3.66699 -45.666 11 -78.999s14 -56.333 20 -69h-133c-20 10 -30 66 -30 168
c-94 -120.667 -197.667 -181 -311 -181c-125.333 0 -212.333 44 -261 132c-24.667 44.667 -37 90.834 -37 138.501s6 89.334 18 125.001zM228.997 371.999c-16.667 -30.667 -24.999 -70.6689 -24.999 -120.002s17.333 -87.166 52 -113.499s73.167 -39.5 115.5 -39.5
s79.666 6.33301 111.999 19s61.833 29 88.5 49c48.667 36.667 85 69.334 109 98.001v317c-126.667 -32.667 -201.667 -52.667 -225 -60c-117.333 -38 -193 -88 -227 -150z" />
    <glyph glyph-name="b" unicode="b" horiz-adv-x="994" 
d="M252 166c0 -102.667 -8.33105 -158 -24.998 -166h-133c17.333 36.667 26 85.334 26 146.001v1369h132v-598c12.667 27.333 45.667 59 99 95s110.666 54 171.999 54c120 0 216 -51.5 288 -154.5s108 -236.833 108 -401.5c0 -98 -18.333 -190.667 -55 -278
c-42.667 -100 -103.334 -170 -182.001 -210c-44 -22 -89 -33 -135 -33s-86 6.66699 -120 20s-62.667 30.666 -86 51.999c-39.333 36 -69 71 -89 105zM252.002 278c67.333 -92.667 126.667 -147.333 178 -164c25.333 -8.66699 57.666 -13 96.999 -13s76.833 10.5 112.5 31.5
s63.834 50.167 84.501 87.5c42 75.333 63 172 63 290c0 296 -99.333 444 -298 444c-87.333 0 -166.333 -50.333 -237 -151v-525z" />
    <glyph glyph-name="c" unicode="c" horiz-adv-x="926" 
d="M75 520c0 364 141.668 545.999 425.001 545.999c70 0 129 -16.667 177 -50c47.333 -33.333 78.666 -63.333 93.999 -90c26.667 -45.333 45 -83 55 -113l-106 -48c-1.33301 13.333 -8.5 33 -21.5 59s-26.833 47.333 -41.5 64s-35.834 31.834 -63.501 45.501
s-58.834 20.5 -93.501 20.5c-195.333 0 -293 -141.667 -293 -425c0 -137.333 25.833 -243 77.5 -317s123.5 -111 215.5 -111c63.333 0 116 24.333 158 73c36.667 42 61.334 79.333 74.001 112l9 22l104 -50c-23.333 -64.667 -61.666 -123.334 -114.999 -176.001
c-24 -23.333 -56.667 -44.666 -98 -63.999s-85.333 -29 -132 -29c-145.333 0 -252.5 46.5 -321.5 139.5s-103.5 223.5 -103.5 391.5z" />
    <glyph glyph-name="d" unicode="d" horiz-adv-x="984" 
d="M742 166c-68 -118 -162.667 -177 -284 -177c-60.667 0 -116 15.167 -166 45.5s-90.333 70.5 -121 120.5c-64 104.667 -96 223 -96 355c0 98 15.833 189 47.5 273s78.167 152.167 139.5 204.5s126.833 78.5 196.5 78.5s131.167 -18 184.5 -54s86.333 -67.667 99 -95v598
h132v-1369c0 -20 2.83301 -46.167 8.5 -78.5s11.5 -54.833 17.5 -67.5h-133c-16.667 8 -25 63.333 -25 166zM207 510c0 -118 20.999 -214.667 62.999 -290c44 -79.333 113.667 -119 209 -119c63.333 0 115.333 18 156 54c32.667 28.667 68.334 69.667 107.001 123v525
c-70.667 100.667 -149.667 151 -237 151c-198.667 0 -298 -148 -298 -444z" />
    <glyph glyph-name="e" unicode="e" horiz-adv-x="925" 
d="M100.5 311c-17 60 -25.498 123.002 -25.498 189.002s4.66699 126.167 14 180.5s21.666 100.5 36.999 138.5s34 71.833 56 101.5s44.667 53.5 68 71.5s48.666 32.667 75.999 44c47.333 20 92.333 30 135 30s79 -3.83301 109 -11.5s62.167 -23.334 96.5 -47.001
s63.833 -54.834 88.5 -93.501c57.333 -90.667 86 -224.334 86 -401.001h-634c0 -178 45 -299.333 135 -364c44.667 -32 94.334 -48 149.001 -48c102.667 0 190 63.667 262 191l91 -63c-26 -48 -60 -91.333 -102 -130c-80 -73.333 -159 -110 -237 -110
s-144.333 14.333 -199 43s-98.334 67.334 -131.001 116.001s-57.5 103 -74.5 163zM213.002 625.002l496 0.00195312c0 99.333 -23 181.666 -69 246.999c-38.667 54.667 -93.667 82 -165 82c-116.667 0 -194.667 -54 -234 -162c-18.667 -50.667 -28 -106.334 -28 -167.001z
" />
    <glyph glyph-name="f" unicode="f" horiz-adv-x="570" 
d="M557 1515v-111h-89c-100 0 -150 -42 -150 -126v-223h239v-112h-239v-943h-132v943h-173v112h173v223c0 108.667 47 182 141 220c44 17.333 91.833 26 143.5 26s80.5 -3 86.5 -9z" />
    <glyph glyph-name="g" unicode="g" horiz-adv-x="1005" 
d="M82.5 -297.5c-27 37 -40.5 73.502 -40.5 109.502s5 64 15 84s25.167 38 45.5 54s38 28.833 53 38.5s35.5 21 61.5 34s41.667 21.167 47 24.5c-54.667 11.333 -96 31.333 -124 60s-42 54.834 -42 78.501s4.5 45.167 13.5 64.5s22.5 37.333 40.5 54
c29.333 26 53.666 45 72.999 57s30 18.667 32 20c-40 34 -75.167 78.5 -105.5 133.5s-45.5 115.333 -45.5 181s18.167 127.5 54.5 185.5s85 103.333 146 136s120.167 49 177.5 49s103.5 -7 138.5 -21s72.5 -34.667 112.5 -62c50.667 41.333 92 65 124 71
c41.333 8.66699 79.333 13.334 114 14.001v-120h-2c-114 0 -171 -10.333 -171 -31c34 -62.667 55.167 -108.834 63.5 -138.501s12.5 -59.5 12.5 -89.5c0 -107.333 -34.5 -198.166 -103.5 -272.499s-158.5 -111.5 -268.5 -111.5c-58 0 -117.333 12.667 -178 38
c-5.33301 -4.66699 -17.333 -13.667 -36 -27c-40 -28 -60 -56 -60 -84c0 -30.667 14 -51.667 42 -63c21.333 -8.66699 47.833 -15.334 79.5 -20.001s54 -7.83398 67 -9.50098s34.833 -2.83398 65.5 -3.50098c74.667 -0.666992 163.334 -13.334 266.001 -38.001
c64.667 -15.333 117.5 -46 158.5 -92s61.5 -101 61.5 -165c0 -190.667 -159.667 -286 -479 -286c-112.667 0 -213 20.333 -301 61c-44.667 20.667 -80.5 49.5 -107.5 86.5zM174 -168.998c0 -65.333 35.333 -109.664 106 -132.997c60.667 -20.667 117.5 -31 170.5 -31
s88.167 0.166992 105.5 0.5s39.666 1.66602 66.999 3.99902s49.666 5.66602 66.999 9.99902s36.333 10.833 57 19.5s37 19 49 31c28 28 42 62 42 102s-13.333 71.833 -40 95.5s-60.5 40.5 -101.5 50.5s-81.5 17.167 -121.5 21.5s-78.167 7.33301 -114.5 9
s-58.166 3.5 -65.499 5.5c-71.333 -26.667 -117.666 -46.334 -138.999 -59.001c-54.667 -32 -82 -74 -82 -126zM238 689.004c0 -78 23.333 -142.833 70 -194.5s110.167 -77.5 190.5 -77.5s141.333 26.333 183 79s62.5 116.667 62.5 192s-20.5 138.5 -61.5 189.5
s-100.5 76.5 -178.5 76.5s-141.833 -24.667 -191.5 -74s-74.5 -113 -74.5 -191z" />
    <glyph glyph-name="h" unicode="h" horiz-adv-x="979" 
d="M129 0v1515h132v-633c98.667 94 179.667 150.667 243 170c32.667 9.33301 66.667 14 102 14c76.667 0 139.667 -23.333 189 -70s74 -116.667 74 -210v-786h-132v786c0 50 -17.833 90.5 -53.5 121.5s-74.167 46.5 -115.5 46.5c-98.667 0 -201 -57.667 -307 -173v-781h-132
z" />
    <glyph glyph-name="i" unicode="i" horiz-adv-x="417" 
d="M120 1188v150h150v-150h-150zM129 0v1055h132v-1055h-132z" />
    <glyph glyph-name="j" unicode="j" horiz-adv-x="362" 
d="M111 1188v150h150v-150h-150zM-63 -225c64.667 0 111.335 11.334 140.002 34.001s43 76.667 43 162v1084h132v-1055c0 -114 -14 -193.333 -42 -238c-10.667 -16.667 -20.334 -30.5 -29.001 -41.5s-21.167 -20.333 -37.5 -28s-29.833 -13.334 -40.5 -17.001
s-26.334 -6.5 -47.001 -8.5c-28 -2.66699 -53 -4 -75 -4h-36z" />
    <glyph glyph-name="k" unicode="k" horiz-adv-x="911" 
d="M130 0v1515h132v-982l404 522h158l-276 -359l338 -696h-146l-282 582l-196 -243v-339h-132z" />
    <glyph glyph-name="l" unicode="l" horiz-adv-x="417" 
d="M129 -2v1517h132v-1517h-132z" />
    <glyph glyph-name="m" unicode="m" horiz-adv-x="1577" 
d="M120 0l-0.00195312 1055h132v-174c92 92 173 148.667 243 170c32.667 10 73.667 15 123 15s96.833 -16 142.5 -48s75.834 -80.333 90.501 -145c96.667 96.667 179.667 155.667 249 177c32.667 10.667 67.334 16 104.001 16c76.667 0 139.667 -23.333 189 -70
s74 -116.667 74 -210v-786h-132v786c0 50 -17.833 90.5 -53.5 121.5s-74.167 46.5 -115.5 46.5c-98 0 -200 -57.667 -306 -173v-781h-132v786c0 50 -17.833 90.5 -53.5 121.5s-74.167 46.5 -115.5 46.5c-98.667 0 -201 -57.667 -307 -173v-781h-132z" />
    <glyph glyph-name="n" unicode="n" 
d="M120 0v1055h132v-173c58.667 58 114.334 103.167 167.001 135.5s114.667 48.5 186 48.5s131.666 -23.333 180.999 -70s74 -116.667 74 -210v-786h-132v786c0 50 -17.833 90.5 -53.5 121.5s-74.167 46.5 -115.5 46.5c-98.667 0 -201 -57.667 -307 -173v-781h-132z" />
    <glyph glyph-name="o" unicode="o" horiz-adv-x="972" 
d="M183.5 921c72.333 96.667 173.5 145 303.5 145s230.833 -48.667 302.5 -146s107.5 -227.333 107.5 -390s-36.167 -293.667 -108.5 -393s-172.833 -149 -301.5 -149c-131.333 0 -233.333 51.333 -306 154c-70.667 100.667 -106 231.5 -106 392.5
s36.167 289.833 108.5 386.5zM207 528c0 -211.333 55.001 -345.331 165.001 -401.998c33.333 -17.333 71.666 -26 114.999 -26s81.833 8.66699 115.5 26s60.5 39.666 80.5 66.999s36.333 60.333 49 99c22 67.333 33 145.666 33 234.999c0 284.667 -93 427 -279 427
s-279 -142 -279 -426z" />
    <glyph glyph-name="p" unicode="p" horiz-adv-x="1015" 
d="M129 -410v1465h132v-164c16 30 42.333 60 79 90c69.333 56.667 141.666 85 216.999 85c140 0 246.667 -76.667 320 -230c42 -88 63 -184.333 63 -289c0 -184 -45 -330.333 -135 -439c-65.333 -79.333 -152.333 -119 -261 -119c-61.333 0 -120.666 18.5 -177.999 55.5
s-92.333 68.833 -105 95.5v-550h-132zM261 254c30.667 -44 68 -80.5 112 -109.5s85.833 -43.5 125.5 -43.5s73 3.83301 100 11.5s53.667 21.667 80 42s48.833 46.833 67.5 79.5c41.333 72 62 176.333 62 313c0 166.667 -38.667 284 -116 352
c-41.333 36.667 -93.333 55 -156 55c-84 0 -157.333 -35.333 -220 -106c-16 -18 -34.333 -41 -55 -69v-525z" />
    <glyph glyph-name="q" unicode="q" horiz-adv-x="996" 
d="M89 385.5c-9.33301 52.333 -13.9971 104.836 -13.9971 157.503s5.16699 103.5 15.5 152.5s26.166 95.833 47.499 140.5s46.666 84 75.999 118c65.333 74.667 146.666 112 243.999 112c95.333 0 182 -42.333 260 -127c16 -17.333 28 -33.333 36 -48l17 164h115v-1465h-132
v550c-12.667 -26.667 -47.667 -58.5 -105 -95.5s-114.833 -55.5 -172.5 -55.5s-109 10.667 -154 32s-82.5 50.166 -112.5 86.499s-55.333 78.666 -76 126.999s-35.667 98.666 -45 150.999zM233.503 755.003c-17.667 -59.333 -26.5 -126.167 -26.5 -200.5
s5.66699 -138.166 17 -191.499s26.333 -96.333 45 -129s41 -59.334 67 -80.001c46.667 -35.333 98.334 -53 155.001 -53c104 0 191.667 51 263 153v525c-40 54.667 -74.667 93 -104 115c-50.667 40 -107.5 60 -170.5 60s-115.333 -18.333 -157 -55
s-71.334 -84.667 -89.001 -144z" />
    <glyph glyph-name="r" unicode="r" horiz-adv-x="639" 
d="M120 0v1055h132v-284c31.333 69.333 55.333 117 72 143c65.333 101.333 150 152 254 152c8 0 20 -0.666992 36 -2v-112c-45.333 -6 -83 -14.5 -113 -25.5s-59.333 -28.5 -88 -52.5c-50 -41.333 -103.667 -123.666 -161 -246.999v-627h-132z" />
    <glyph glyph-name="s" unicode="s" horiz-adv-x="878" 
d="M80 200l99 63.9961c35.333 -54.667 74.666 -95.5 117.999 -122.5s96.333 -40.5 159 -40.5c65.333 0 118.333 17.667 159 53c34 29.333 51 65.333 51 108s-7.33301 76.667 -22 102s-35.334 46 -62.001 62c-44.667 25.333 -91.167 43.833 -139.5 55.5
s-86.333 22.334 -114 32.001s-56.167 22.834 -85.5 39.501s-54.666 35.334 -75.999 56.001c-48.667 47.333 -73 109.833 -73 187.5s31.167 142 93.5 193s141.833 76.5 238.5 76.5c114 0 210.333 -41 289 -123c14.667 -15.333 27 -30.333 37 -45l-91 -68
c-4.66699 4.66699 -14 14.5 -28 29.5s-23 24.5 -27 28.5l-26 21c-12 10.667 -22 17.667 -30 21l-34 12c-21.333 8 -57.333 12 -108 12s-94.334 -14.5 -131.001 -43.5s-55 -60.833 -55 -95.5s6 -62.5 18 -83.5s30 -39.167 54 -54.5c38.667 -24 83.334 -43.667 134.001 -59
s84.167 -25.666 100.5 -30.999s38.333 -13.5 66 -24.5s49.334 -21.5 65.001 -31.5s33.5 -23.167 53.5 -39.5s35.333 -33.5 46 -51.5c26 -45.333 39 -94.666 39 -147.999c0 -88.667 -33.667 -161.334 -101 -218.001s-145.333 -85 -234 -85s-163.167 16.833 -223.5 50.5
s-113.5 87.167 -159.5 160.5z" />
    <glyph glyph-name="t" unicode="t" horiz-adv-x="606" 
d="M36 943v112h178v385h132v-385h242v-112h-242v-669c0 -67.333 10.333 -113.333 31 -138s54.667 -37 102 -37c19.333 0 42.333 1.66699 69 5s40 5.33301 40 6v-99c-44 -16 -86.833 -24 -128.5 -24s-70.167 1 -85.5 3s-34 8.33301 -56 19s-40 25.667 -54 45
c-33.333 46.667 -50 120 -50 220v669h-178z" />
    <glyph glyph-name="u" unicode="u" horiz-adv-x="979" 
d="M129 269v786.001h132v-786c0 -50 17.833 -90.5 53.5 -121.5s74.167 -46.5 115.5 -46.5c98.667 0 201 57.667 307 173v781h132v-1055h-132v174c-94.667 -92.667 -175.667 -149.334 -243 -170.001c-32.667 -10 -66.667 -15 -102 -15c-76.667 0 -139.667 23.333 -189 70
s-74 116.667 -74 210z" />
    <glyph glyph-name="v" unicode="v" horiz-adv-x="901" 
d="M25 1055h138l278 -909h19l278 909h138l-324 -1055h-203z" />
    <glyph glyph-name="w" unicode="w" horiz-adv-x="1316" 
d="M25 1055h123l232 -795l208 795h120l226 -800l222 800h135l-301 -1055h-118l-224 809l-201 -809h-135z" />
    <glyph glyph-name="x" unicode="x" horiz-adv-x="870" 
d="M25 0l330 544l-320 511h148l245 -390l256 390h148l-332 -505l345 -550h-148l-267 425l-257 -425h-148z" />
    <glyph glyph-name="y" unicode="y" horiz-adv-x="905" 
d="M150 -393c-42 0 -83.001 2.66895 -123.001 8.00195l10 121c24 -11.333 56 -17 96 -17s73 5.16699 99 15.5s47.333 23.666 64 39.999s31.834 34.333 45.501 54s24.5 39.5 32.5 59.5c14 37.333 24 73.666 30 108.999l-379 1058h142l299 -859l280 859h134l-368 -1119
c-38 -114 -76 -191.333 -114 -232c-42 -44 -83.333 -71.167 -124 -81.5s-82 -15.5 -124 -15.5z" />
    <glyph glyph-name="z" unicode="z" horiz-adv-x="779" 
d="M25 0v85l560 858h-507v112h676v-74l-568 -861h568v-120h-729z" />
    <glyph glyph-name="braceleft" unicode="{" horiz-adv-x="772" 
d="M80 614l0.000976562 121.999c128.667 0 193 81.667 193 245c0 24 -5 48.333 -15 73c-30 74 -45 144.667 -45 212c0 116.667 30.333 207.834 91 273.501s157.334 98.5 290.001 98.5v-105c-44 0 -83.833 -8.33301 -119.5 -25s-63.834 -38 -84.501 -64
c-42 -53.333 -63 -107 -63 -161c0 -14 10 -55.167 30 -123.5s30 -137.666 30 -207.999s-14 -128.333 -42 -174s-74 -79.834 -138 -102.501c64 -22.667 110 -56.834 138 -102.501s42 -103.667 42 -174s-10 -139.666 -30 -207.999s-30 -112.5 -30 -132.5s5.5 -44 16.5 -72
s26.667 -54.833 47 -80.5s48.333 -46.834 84 -63.501s75.5 -25 119.5 -25v-105c-132.667 0 -229.334 32.833 -290.001 98.5s-91 156.834 -91 273.501c0 67.333 15 138 45 212c10 24.667 15 49 15 73c0 163.333 -64.333 245 -193 245z" />
    <glyph glyph-name="bar" unicode="|" horiz-adv-x="348" 
d="M100 -132v1695h148v-1695h-148z" />
    <glyph glyph-name="braceright" unicode="}" horiz-adv-x="772" 
d="M80 -183c44 0 83.832 8.33398 119.499 25.001s63.834 38 84.501 64c42 53.333 63 107 63 161c0 14 -10 55.167 -30 123.5s-30 137.666 -30 207.999s14 128.333 42 174s74 79.834 138 102.501c-64 22.667 -110 56.834 -138 102.501s-42 103.667 -42 174
s10 139.666 30 207.999s30 112.5 30 132.5s-5.5 44 -16.5 72s-26.667 54.833 -47 80.5s-48.333 46.834 -84 63.501s-75.5 25 -119.5 25v105c132.667 0 229.334 -32.833 290.001 -98.5s91 -156.834 91 -273.501c0 -67.333 -15 -138 -45 -212c-10 -24.667 -15 -49 -15 -73
c0 -163.333 64.333 -245 193 -245v-122c-128.667 0 -193 -81.667 -193 -245c0 -24 5 -48.333 15 -73c30 -74 45 -144.667 45 -212c0 -116.667 -30.333 -207.834 -91 -273.501s-157.334 -98.5 -290.001 -98.5v105z" />
    <glyph glyph-name="asciitilde" unicode="~" horiz-adv-x="789" 
d="M699 1268c-16.667 -48 -41.167 -86.001 -73.5 -114.001s-66.833 -42 -103.5 -42s-68.834 7.66699 -96.501 23s-53.667 30.5 -78 45.5s-47.833 22.5 -70.5 22.5h-10c-21.333 -2 -40.333 -10.667 -57 -26s-29 -34.666 -37 -57.999l-83 40c16.667 48 40 85 70 111
c34.667 30 68.834 45 102.501 45s62 -4.66699 85 -14s41.833 -19.666 56.5 -30.999c38 -30.667 74 -46 108 -46h10c21.333 2 40.333 10.667 57 26s29 34.666 37 57.999z" />
    <glyph glyph-name="exclamdown" unicode="&#xa1;" horiz-adv-x="334" 
d="M92 -168l23 1146h104l23 -1146h-150zM92 1128v150h150v-150h-150z" />
    <glyph glyph-name="cent" unicode="&#xa2;" 
d="M450 -5c-226.667 36.667 -340 214.831 -340 534.498s113.333 496.5 340 530.5v221h132v-218c41.333 -5.33301 79.166 -17.5 113.499 -36.5s61.166 -40.167 80.499 -63.5c40 -48 66 -90.333 78 -127l7 -23l-106 -48c-10.667 64 -43.667 115 -99 153
c-22 15.333 -46.667 25.666 -74 30.999v-842c84.667 22 149.334 89 194.001 201l104 -50c-5.33301 -17.333 -18.166 -42.666 -38.499 -75.999s-41 -61.166 -62 -83.499s-49.167 -44.166 -84.5 -65.499s-73 -35 -113 -41v-228h-132v231zM242 528.997
c0 -114 18.167 -206.5 54.5 -277.5s87.5 -117.167 153.5 -138.5v830c-138.667 -35.333 -208 -173.333 -208 -414z" />
    <glyph glyph-name="sterling" unicode="&#xa3;" horiz-adv-x="1025" 
d="M1000 133c-40.667 -88.667 -170.001 -132.999 -388.001 -132.999h-467v138c8.66699 22.667 16.167 74.167 22.5 154.5s9.5 151.833 9.5 214.5v126h-135v135h135v111c0 216 26.333 369 79 459c50 84 117.667 139 203 165c48.667 14.667 93.667 22 135 22
c102 0 154 -3.33301 156 -10v-112l-103 2c-67.333 0 -122.333 -9.5 -165 -28.5s-76.167 -50.667 -100.5 -95s-41.166 -97.833 -50.499 -160.5s-14 -143.334 -14 -242.001v-111h325v-135h-325v-126c0 -64.667 -2.83301 -137.667 -8.5 -219s-13.5 -131.333 -23.5 -150h327
c155.333 0 255.333 22 300 66c4.66699 5.33301 8 11 10 17z" />
    <glyph glyph-name="currency" unicode="&#xa4;" horiz-adv-x="772" 
d="M75 498l100 99.999c-30 42.667 -45 91.334 -45 146.001s14.667 104 44 148l-99 99l65 65l98 -98c43.333 32 92.833 48 148.5 48s104.5 -16.333 146.5 -49l99 99l65 -65l-100 -100c29.333 -44.667 44 -93.5 44 -146.5s-14.667 -101.833 -44 -146.5l100 -100l-65 -65
l-98 98c-44 -32 -93.167 -48 -147.5 -48s-103.833 16 -148.5 48l-98 -98zM230 744.999c0 -43.333 14.6689 -81 44.002 -113s66.166 -48 110.499 -48s81.166 16.167 110.499 48.5s44 69.833 44 112.5s-14.667 80 -44 112s-65.833 48 -109.5 48s-80.5 -15.833 -110.5 -47.5
s-45 -69.167 -45 -112.5z" />
    <glyph glyph-name="yen" unicode="&#xa5;" horiz-adv-x="1122" 
d="M25 1515h154l382 -713l382 713h154l-462 -855h240v-92h-240v-174h240v-92h-240v-302h-148v302h-229v92h229v174h-229v92h229z" />
    <glyph glyph-name="brokenbar" unicode="&#xa6;" horiz-adv-x="348" 
d="M100 -132v778h148v-778h-148zM100 778v785h148v-785h-148z" />
    <glyph glyph-name="section" unicode="&#xa7;" horiz-adv-x="878" 
d="M80 200l99 63.998c35.333 -54.667 74.666 -95.5 117.999 -122.5s96.333 -40.5 159 -40.5c65.333 0 118.333 17.667 159 53c34 29.333 51 65.333 51 108s-7.33301 76.667 -22 102s-35.334 46 -62.001 62c-44.667 25.333 -91.167 43.833 -139.5 55.5
s-86.333 22.334 -114 32.001s-56.167 22.834 -85.5 39.501s-54.666 35.334 -75.999 56.001c-48.667 47.333 -73 102.666 -73 165.999s15 117.333 45 162c-30 42 -45 89 -45 141c0 86 31.167 154.5 93.5 205.5s141.833 76.5 238.5 76.5c114 0 210.333 -41 289 -123
c14.667 -15.333 27 -30.333 37 -45l-91 -68c-4.66699 4.66699 -14 14.5 -28 29.5s-23 24.5 -27 28.5l-26 21c-12 10.667 -22 17.667 -30 21l-34 12c-21.333 8 -57.333 12 -108 12s-94.334 -14.5 -131.001 -43.5s-55 -60.833 -55 -95.5s6 -62.5 18 -83.5s30 -39.167 54 -54.5
c38.667 -24 83.334 -43.667 134.001 -59s84.167 -25.666 100.5 -30.999s38.333 -13.5 66 -24.5s49.334 -21.5 65.001 -31.5s33.5 -23.167 53.5 -39.5s35.333 -33.5 46 -51.5c26 -45.333 39 -94.5 39 -147.5s-13.333 -101.833 -40 -146.5c26.667 -42 40 -91.333 40 -148
c0 -88.667 -33.667 -161.334 -101 -218.001s-145.333 -85 -234 -85s-163.167 16.833 -223.5 50.5s-113.5 87.167 -159.5 160.5zM232 853.998c-6.66699 -16.667 -10 -36 -10 -58s6 -43.5 18 -64.5s30 -39.167 54 -54.5c38.667 -24 99.334 -48.5 182.001 -73.5
s144.667 -49.833 186 -74.5c2.66699 16 4 35.167 4 57.5s-7.33301 46.166 -22 71.499s-35.334 46 -62.001 62c-44.667 25.333 -101.667 46.333 -171 63s-129 40.334 -179 71.001z" />
    <glyph glyph-name="dieresis" unicode="&#xa8;" horiz-adv-x="653" 
d="M92 1203v150h150v-150h-150zM411 1203v150h150v-150h-150z" />
    <glyph glyph-name="copyright" unicode="&#xa9;" horiz-adv-x="1090" 
d="M75 744c0 129.333 46 240 138 332s202.667 138 332 138s240 -46 332 -138s138 -202.667 138 -332s-46 -240 -138 -332s-202.667 -138 -332 -138s-240 46 -332 138s-138 202.667 -138 332zM140 744c0 -111.333 39.667 -206.5 119 -285.5s174.666 -118.5 285.999 -118.5
s206.5 39.5 285.5 118.5s118.5 174.167 118.5 285.5s-39.5 206.5 -118.5 285.5s-174.167 118.5 -285.5 118.5s-206.666 -39.5 -285.999 -118.5s-119 -174.167 -119 -285.5zM363.5 605c-13 42 -19.502 84.002 -19.502 126.002s4 79.667 12 113s20 64 36 92
c35.333 61.333 87 92 155 92c64 0 115 -36.333 153 -109c8.66699 -16.667 16.334 -36.667 23.001 -60l-66 -13c-11.333 44 -23 71.333 -35 82c-22.667 19.333 -46.5 29 -71.5 29s-45.833 -4.16699 -62.5 -12.5s-29.667 -19 -39 -32s-16.666 -29.833 -21.999 -50.5
c-8 -30 -12 -66 -12 -108s2 -75.333 6 -100s10.667 -47.334 20 -68.001c18.667 -42 54 -63 106 -63c66 0 105.333 37 118 111l66 -8c-1.33301 -18.667 -12 -44.334 -32 -77.001c-38 -64 -88.667 -96 -152 -96c-46 0 -84.833 14.833 -116.5 44.5s-54 65.5 -67 107.5z" />
    <glyph glyph-name="ordfeminine" unicode="&#xaa;" horiz-adv-x="528" 
d="M359 1126c-40 -51.333 -83.1689 -77.001 -129.502 -77.001s-79.5 13.5 -99.5 40.5s-30 55.833 -30 86.5c0 53.333 20.667 92.666 62 117.999s107 47 197 65c0 35.333 -6.16699 60.833 -18.5 76.5s-33.166 23.5 -62.499 23.5s-52.666 -5 -69.999 -15
c-26 -13.333 -43.667 -29.666 -53 -48.999l-44 30c32 60.667 86 91 162 91c101.333 0 152 -52 152 -156v-233c0 -30.667 4.33301 -54.667 13 -72h-66c-8.66699 4.66699 -13 28.334 -13 71.001zM234.998 1106c24 0 47.5 7.83398 70.5 23.501s40.833 31.167 53.5 46.5v126
l-41 -10c-18 -4 -31.333 -7.33301 -40 -10l-34 -11c-52 -16.667 -78 -48.334 -78 -95.001s23 -70 69 -70z" />
    <glyph glyph-name="guillemotleft" unicode="&#xab;" horiz-adv-x="755" 
d="M100 1276l222 222l64 -66l-156 -156l157 -157l-65 -65zM368 1276l222 222l64 -66l-156 -156l157 -157l-65 -65z" />
    <glyph glyph-name="logicalnot" unicode="&#xac;" horiz-adv-x="1112" 
d="M92 694v112h928v-440h-112v328h-816z" />
    <glyph glyph-name="uni00AD" unicode="&#xad;" horiz-adv-x="1112" 
d="M92 694v92h928v-92h-928z" />
    <glyph glyph-name="registered" unicode="&#xae;" horiz-adv-x="1092" 
d="M75 744c0 127.333 45.998 236.167 137.998 326.5s203 135.5 333 135.5c131.333 0 242.333 -44.667 333 -134c42 -41.333 75.5 -90.5 100.5 -147.5s37.5 -122.5 37.5 -196.5s-21.167 -146.5 -63.5 -217.5s-99.666 -126.833 -171.999 -167.5s-150.833 -61 -235.5 -61
s-163.167 20.667 -235.5 62s-129.666 97.5 -171.999 168.5s-63.5 148.167 -63.5 231.5zM142.998 744.001c0 -108.667 39.668 -201.668 119.001 -279.001s174.166 -116 284.499 -116s205 38.5 284 115.5s118.5 170.333 118.5 280s-39.333 202.834 -118 279.501
s-173.667 115 -285 115s-206.333 -38.667 -285 -116s-118 -170.333 -118 -279zM384.999 500v492.001h212c43.333 0 77 -14.833 101 -44.5s36 -60.667 36 -93s-7.5 -62.333 -22.5 -90s-38.833 -44.834 -71.5 -51.501l93 -213h-76l-90 202h-111v-202h-71zM455.999 765.001
l122 0.000976562c57.333 0 86 29.667 86 89c0 29.333 -10.333 49.166 -31 59.499s-50 15.5 -88 15.5h-89v-164z" />
    <glyph glyph-name="macron" unicode="&#xaf;" horiz-adv-x="707" 
d="M90 1231v92h527v-92h-527z" />
    <glyph glyph-name="degree" unicode="&#xb0;" horiz-adv-x="660" 
d="M75 1242c0 70.667 24.833 130.834 74.5 180.501s109.834 74.5 180.501 74.5s130.834 -24.833 180.501 -74.5s74.5 -109.834 74.5 -180.501s-24.833 -130.834 -74.5 -180.501s-109.834 -74.5 -180.501 -74.5s-130.834 24.833 -180.501 74.5s-74.5 109.834 -74.5 180.501z
M171 1242c0 -43.333 15.5 -80.5 46.5 -111.5s68.167 -46.5 111.5 -46.5s80.5 15.5 111.5 46.5s46.5 68.167 46.5 111.5s-15.5 80.5 -46.5 111.5s-68.167 46.5 -111.5 46.5s-80.5 -15.5 -111.5 -46.5s-46.5 -68.167 -46.5 -111.5z" />
    <glyph glyph-name="plusminus" unicode="&#xb1;" horiz-adv-x="909" 
d="M75 251v132h759v-132h-759zM75 819v132h314v314h132v-314h313v-132h-313v-314h-132v314h-314z" />
    <glyph glyph-name="two.superior" unicode="&#xb2;" horiz-adv-x="510" 
d="M100 1055c0 54.667 19.998 101.997 59.998 141.997c20.667 20 40.667 37 60 51l48 35c34 24 53.667 41 59 51c11.333 20 17 39 17 57c0 46 -26 69 -78 69c-26 0 -47 -8.16699 -63 -24.5s-24 -34.166 -24 -53.499h-66c0 38.667 14.833 70.334 44.5 95.001
s65.834 37 108.501 37s77.334 -11.667 104.001 -35s40 -52.666 40 -87.999c0 -36 -13.333 -67.667 -40 -95c-16.667 -16 -33.667 -30.667 -51 -44c-18.667 -14.667 -42 -32 -70 -52c-52 -36.667 -78 -65.667 -78 -87h233v-58h-304z" />
    <glyph glyph-name="three.superior" unicode="&#xb3;" horiz-adv-x="513" 
d="M357 1483c28 -24.667 42 -57.333 42 -98s-19 -73 -57 -97c47.333 -28 71 -64.833 71 -110.5s-14.833 -80 -44.5 -103s-71.167 -34.5 -124.5 -34.5s-101.333 27 -144 81l40 36c6.66699 -10 21 -22.667 43 -38s46.5 -23 73.5 -23s48.833 6.5 65.5 19.5s25 32.333 25 58
s-7 46.5 -21 62.5s-34.667 24 -62 24h-75v55h75c45.333 0 68 26.667 68 80c0 18 -6.83301 34 -20.5 48s-32 21 -55 21s-44.333 -6.5 -64 -19.5s-33.834 -25.167 -42.501 -36.5l-38 40c12 14 22.167 24.833 30.5 32.5s23.333 16.167 45 25.5s48.334 14 80.001 14
s61.5 -12.333 89.5 -37z" />
    <glyph glyph-name="acute" unicode="&#xb4;" horiz-adv-x="683" 
d="M122 1160l295 295l87 -87l-316 -273z" />
    <glyph glyph-name="micro" unicode="&#xb5;" horiz-adv-x="979" 
d="M129 -411v1466h132v-786c0 -50 17.833 -90.5 53.5 -121.5s74.167 -46.5 115.5 -46.5c98.667 0 201 57.667 307 173v781h132v-1055h-132v174c-94.667 -92.667 -175.667 -149.334 -243 -170.001c-32.667 -10 -69.5 -15 -110.5 -15s-80.5 8.66699 -118.5 26v-426h-136z" />
    <glyph glyph-name="paragraph" unicode="&#xb6;" horiz-adv-x="1115" 
d="M89 963.5c-14 48.333 -21.001 94.667 -21.001 139s4.5 84.333 13.5 120s24 71.167 45 106.5s46.5 66.666 76.5 93.999c67.333 61.333 157 92 269 92h508v-1515h-148v692h-218v-692h-148v692c-71.333 0 -133.666 12.333 -186.999 37s-94.833 57.834 -124.5 99.501
s-51.5 86.667 -65.5 135zM282.999 1293.5c-44.667 -45.667 -67 -108.5 -67 -188.5s22.167 -143.333 66.5 -190s105.5 -76.667 183.5 -90v557c-77.333 -13.333 -138.333 -42.833 -183 -88.5zM613.999 816.001h218v575h-218v-575z" />
    <glyph glyph-name="periodcentered" unicode="&#xb7;" horiz-adv-x="334" 
d="M92 786v150h150v-150h-150z" />
    <glyph glyph-name="cedilla" unicode="&#xb8;" horiz-adv-x="350" 
d="M58 -313l-36 1v94c59.333 0 98.833 5.33301 118.5 16s29.5 21 29.5 31c0 50 -26 107 -78 171h98c48.667 -68 73 -134 73 -198c0 -76.667 -68.333 -115 -205 -115z" />
    <glyph glyph-name="one.superior" unicode="&#xb9;" horiz-adv-x="418" 
d="M100 1481l98 35h54v-403h66v-58h-206v58h73v339l-71 -21z" />
    <glyph glyph-name="ordmasculine" unicode="&#xba;" horiz-adv-x="549" 
d="M146.5 1121c-31 42.667 -46.498 98.5 -46.498 167.5s15.333 124 46 165s73.667 61.5 129 61.5s98.166 -20.667 128.499 -62s45.5 -96.5 45.5 -165.5s-15.333 -124.667 -46 -167s-73.334 -63.5 -128.001 -63.5s-97.5 21.333 -128.5 64zM170.002 1286
c0 -110.667 34.833 -166 104.5 -166s104.5 55.333 104.5 166c0 55.333 -7.83301 96.833 -23.5 124.5s-42.5 41.5 -80.5 41.5s-65 -13.667 -81 -41s-24 -69 -24 -125z" />
    <glyph glyph-name="guillemotright" unicode="&#xbb;" horiz-adv-x="755" 
d="M100 1119l157 157l-156 156l64 66l222 -222l-222 -222zM368 1119l157 157l-156 156l64 66l222 -222l-222 -222z" />
    <glyph glyph-name="onequarter" unicode="&#xbc;" horiz-adv-x="1138" 
d="M535 184v78l328 498h110v-496h115v-80h-115v-191h-95v191h-343zM632 264h246v379zM57 1460l163 58h74v-683h110v-80h-326v80h122v596l-119 -34zM148 -41l744 1592h108l-743 -1592h-109z" />
    <glyph glyph-name="onehalf" unicode="&#xbd;" horiz-adv-x="1183" 
d="M57 1460l163 58h74v-683h110v-80h-326v80h122v596l-119 -34zM607 -13c0 76 17.667 137.666 53 184.999c41.333 54 104 112 188 174l82 60c30.667 23.333 49.667 41.666 57 54.999c17.333 30.667 26 60.334 26 89.001c0 91.333 -46 137 -138 137
c-52.667 0 -91.167 -15.833 -115.5 -47.5s-36.5 -66.167 -36.5 -103.5h-95c0 63.333 26.167 117 78.5 161s109.833 66 172.5 66s116.5 -20.667 161.5 -62s67.5 -91.666 67.5 -150.999c0 -72.667 -37.333 -138 -112 -196l-96 -73c-2 -1.33301 -12 -9.33301 -30 -24l-72 -60
c-16 -14 -27.667 -25.667 -35 -35l-26 -32c-18.667 -22.667 -28 -43.667 -28 -63h388v-80h-490zM121 -38.001l744 1592h108l-743 -1592h-109z" />
    <glyph glyph-name="threequarters" unicode="&#xbe;" horiz-adv-x="1213" 
d="M610 184v78l328 498h110v-496h115v-80h-115v-191h-95v191h-343zM707 264h246v379zM54 882l56.001 47.999c10.667 -16 35.5 -36.5 74.5 -61.5s80.833 -37.5 125.5 -37.5s82.167 12.833 112.5 38.5s45.5 59.5 45.5 101.5s-12.833 77.5 -38.5 106.5s-58.167 43.5 -97.5 43.5
h-127v81h127c37.333 0 65.333 13.167 84 39.5s28 57.5 28 93.5s-12.5 65.667 -37.5 89s-57.5 35 -97.5 35s-76.833 -10 -110.5 -30s-57.834 -38.667 -72.501 -56l-52 57c24 28 57.667 53.167 101 75.5s92 33.5 146 33.5s103.833 -19.333 149.5 -58s68.5 -85.667 68.5 -141
c0 -31.333 -6.33301 -60.666 -19 -87.999c-18.667 -38.667 -43.667 -68.667 -75 -90l30 -20c59.333 -40 89 -96.5 89 -169.5s-23.667 -128.167 -71 -165.5s-102.333 -56 -165 -56c-116.667 0 -208 43.667 -274 131zM240.001 -38.001l744 1592h108l-743 -1592h-109z" />
    <glyph glyph-name="questiondown" unicode="&#xbf;" horiz-adv-x="863" 
d="M218 672l102.001 119.998c83.333 94.667 125 173.334 125 236.001v149h132v-149c0 -78 -41 -166 -123 -264l-102 -122c-82 -99.333 -123 -187.833 -123 -265.5s20.667 -140.667 62 -189s86 -72.5 134 -72.5c68.667 0 122.167 10.833 160.5 32.5s70.5 58.5 96.5 110.5
l90 -57c-33.333 -62 -80.333 -111 -141 -147s-129.334 -54 -206.001 -54c-100 0 -180.333 36.333 -241 109s-91 159.334 -91 260.001s41.667 201.667 125 303zM442.001 1347v150h150v-150h-150z" />
    <glyph glyph-name="Agrave" unicode="&#xc0;" horiz-adv-x="1130" 
d="M197 1880l87 87l295 -295l-66 -65zM25 0l432 1515h216l432 -1515h-154l-130 478h-509l-133 -478h-154zM346 602h440l-221 787z" />
    <glyph glyph-name="Aacute" unicode="&#xc1;" horiz-adv-x="1130" 
d="M551 1672l295 295l87 -87l-316 -273zM25 0l432 1515h216l432 -1515h-154l-130 478h-509l-133 -478h-154zM346 602h440l-221 787z" />
    <glyph glyph-name="Acircumflex" unicode="&#xc2;" horiz-adv-x="1130" 
d="M343 1719l222 222l222 -222l-66 -64l-156 156l-157 -157zM25 0l432 1515h216l432 -1515h-154l-130 478h-509l-133 -478h-154zM346 602h440l-221 787z" />
    <glyph glyph-name="Atilde" unicode="&#xc3;" horiz-adv-x="1130" 
d="M869 1807c-16.667 -48 -41.167 -86.001 -73.5 -114.001s-66.833 -42 -103.5 -42s-68.834 7.66699 -96.501 23s-53.667 30.5 -78 45.5s-47.833 22.5 -70.5 22.5h-10c-21.333 -2 -40.333 -10.667 -57 -26s-29 -34.666 -37 -57.999l-83 40c16.667 48 40 85 70 111
c34.667 30 68.834 45 102.501 45s62 -4.66699 85 -14s41.833 -19.666 56.5 -30.999c38 -30.667 74 -46 108 -46h10c21.333 2 40.333 10.667 57 26s29 34.666 37 57.999zM25 -0.000976562l432 1515h216l432 -1515h-154l-130 478h-509l-133 -478h-154zM346 601.999h440
l-221 787z" />
    <glyph glyph-name="Adieresis" unicode="&#xc4;" horiz-adv-x="1130" 
d="M330 1654v150h150v-150h-150zM649 1654v150h150v-150h-150zM25 0l432 1515h216l432 -1515h-154l-130 478h-509l-133 -478h-154zM346 602h440l-221 787z" />
    <glyph glyph-name="Aring" unicode="&#xc5;" horiz-adv-x="1130" 
d="M406 1747c0 -43.333 15.333 -80.5 46 -111.5s67.834 -46.5 111.501 -46.5s81 15.5 112 46.5s46.5 68.167 46.5 111.5s-15.5 80.5 -46.5 111.5s-68.333 46.5 -112 46.5s-80.834 -15.5 -111.501 -46.5s-46 -68.167 -46 -111.5zM310 1747
c0 70.667 24.833 130.834 74.5 180.501s109.667 74.5 180 74.5s130.5 -24.833 180.5 -74.5s75 -109.834 75 -180.501s-25 -131 -75 -181c-22 -22 -46.333 -39 -73 -51h1l432 -1515h-154l-130 478h-509l-133 -478h-154l432 1515c-26 12 -50.333 29 -73 51
c-49.333 50 -74 110.333 -74 181zM346 602h440l-221 787z" />
    <glyph glyph-name="AE" unicode="&#xc6;" horiz-adv-x="1600" 
d="M25 0l432 1515h1037v-124h-673v-533h483v-124h-483v-601h711v-133h-859v478h-361l-133 -478h-154zM346 602h327v787h-108z" />
    <glyph glyph-name="Ccedilla" unicode="&#xc7;" horiz-adv-x="1174" 
d="M535 -319l-35.998 0.998047v94c59.333 0 98.833 5.33301 118.5 16s29.5 21 29.5 31c0 48 -24 102.333 -72 163c-43.333 4 -81.666 11.333 -114.999 22c-48 16 -90 37.833 -126 65.5s-68.5 61 -97.5 100s-53.167 81 -72.5 126s-35.333 93.333 -48 145
s-21.834 103.5 -27.501 155.5s-8.5 110.5 -8.5 175.5s5.83301 133.333 17.5 205s31.167 141.334 58.5 209.001s61.333 126.5 102 176.5s91.834 90.167 153.501 120.5s124.5 45.5 188.5 45.5s118.5 -8.16699 163.5 -24.5s82.833 -37.5 113.5 -63.5s58.667 -54.833 84 -86.5
s45.333 -63.5 60 -95.5c30.667 -66 49.667 -116 57 -150l6 -24v-1l-152 -41c-10.667 76 -24.167 131.5 -40.5 166.5s-32.666 63.667 -48.999 86s-34.5 41.166 -54.5 56.499c-47.333 35.333 -104 53 -170 53c-260 0 -390 -216.333 -390 -649
c0 -185.333 27.333 -336.666 82 -453.999c62 -131.333 164.667 -197 308 -197c117.333 0 208.666 46 273.999 138c45.333 64.667 68 137 68 217l146 -23c-2.66699 -7.33301 -8.83398 -25.333 -18.501 -54s-17.834 -52 -24.501 -70s-17.5 -42.5 -32.5 -73.5
s-30 -56.833 -45 -77.5s-35 -43.5 -60 -68.5s-51.5 -44.833 -79.5 -59.5c-56.667 -29.333 -114.334 -46.666 -173.001 -51.999c44.667 -64.667 67 -127.667 67 -189c0 -76.667 -68.333 -115 -205 -115z" />
    <glyph glyph-name="Egrave" unicode="&#xc8;" horiz-adv-x="1062" 
d="M177 1880l87 87l295 -295l-66 -65zM135 0v1515h821v-124h-673v-533h483v-124h-483v-601h711v-133h-859z" />
    <glyph glyph-name="Eacute" unicode="&#xc9;" horiz-adv-x="1062" 
d="M532 1672l295 295l87 -87l-316 -273zM135 0v1515h821v-124h-673v-533h483v-124h-483v-601h711v-133h-859z" />
    <glyph glyph-name="Ecircumflex" unicode="&#xca;" horiz-adv-x="1062" 
d="M324 1719l222 222l222 -222l-66 -64l-156 156l-157 -157zM135 0v1515h821v-124h-673v-533h483v-124h-483v-601h711v-133h-859z" />
    <glyph glyph-name="Edieresis" unicode="&#xcb;" horiz-adv-x="1062" 
d="M311 1654v150h150v-150h-150zM630 1654v150h150v-150h-150zM135 0v1515h821v-124h-673v-533h483v-124h-483v-601h711v-133h-859z" />
    <glyph glyph-name="Igrave" unicode="&#xcc;" horiz-adv-x="418" 
d="M-159 1880l87 87l295 -295l-66 -65zM135 0v1515h148v-1515h-148z" />
    <glyph glyph-name="Iacute" unicode="&#xcd;" horiz-adv-x="418" 
d="M195 1672l295 295l87 -87l-316 -273zM135 0v1515h148v-1515h-148z" />
    <glyph glyph-name="Icircumflex" unicode="&#xce;" horiz-adv-x="418" 
d="M-13 1719l222 222l222 -222l-66 -64l-156 156l-157 -157zM135 0v1515h148v-1515h-148z" />
    <glyph glyph-name="Idieresis" unicode="&#xcf;" horiz-adv-x="418" 
d="M-26 1654v150h150v-150h-150zM293 1654v150h150v-150h-150zM135 0v1515h148v-1515h-148z" />
    <glyph glyph-name="Eth" unicode="&#xd0;" horiz-adv-x="1224" 
d="M9 676v136h128v703h361c103.333 0 194.333 -14.333 273 -43s142 -66.5 190 -113.5s87 -104.5 117 -172.5c52 -118.667 78 -265.667 78 -441c0 -262.667 -72.667 -461 -218 -595c-107.333 -100 -254 -150 -440 -150h-361v676h-128zM285 124l212.999 0.000976562
c170.667 0 299.334 57.333 386.001 172c82.667 110 124 259.667 124 449c0 289.333 -73.333 480.666 -220 573.999c-75.333 48 -172 72 -290 72h-213v-579h324v-136h-324v-552z" />
    <glyph glyph-name="Ntilde" unicode="&#xd1;" horiz-adv-x="1251" 
d="M930 1807c-16.667 -48 -41.167 -86.001 -73.5 -114.001s-66.833 -42 -103.5 -42s-68.834 7.66699 -96.501 23s-53.667 30.5 -78 45.5s-47.833 22.5 -70.5 22.5h-10c-21.333 -2 -40.333 -10.667 -57 -26s-29 -34.666 -37 -57.999l-83 40c16.667 48 40 85 70 111
c34.667 30 68.834 45 102.501 45s62 -4.66699 85 -14s41.833 -19.666 56.5 -30.999c38 -30.667 74 -46 108 -46h10c21.333 2 40.333 10.667 57 26s29 34.666 37 57.999zM128 -0.000976562v1515h236l611 -1154v1154h148v-1515h-127l-720 1368v-1368h-148z" />
    <glyph glyph-name="Ograve" unicode="&#xd2;" horiz-adv-x="1263" 
d="M273 1880l87 87l295 -295l-66 -65zM101 529.5c-14 72.333 -21.001 146.833 -21.001 223.5s6.33301 151.334 19 224.001s33.334 143 62.001 211s64.167 127.167 106.5 177.5s95.5 90.666 159.5 120.999s134.5 45.5 211.5 45.5s146.333 -15.5 208 -46.5s113 -72 154 -123
s75.5 -110.5 103.5 -178.5c52.667 -128 79 -272 79 -432c0 -292.667 -75.667 -510 -227 -652c-82 -77.333 -187 -116 -315 -116c-74 0 -142.333 14.833 -205 44.5s-115.5 69.334 -158.5 119.001s-79.667 107.667 -110 174s-52.5 135.666 -66.5 207.999zM240.999 951.5
c-8.66699 -62.333 -13.001 -133.167 -13.001 -212.5s7.83301 -156.5 23.5 -231.5s39.334 -142.833 71.001 -203.5s74.667 -108.5 129 -143.5s114.333 -52.5 180 -52.5s122 13.167 169 39.5s84.833 60.5 113.5 102.5s52.334 92 71.001 150c33.333 102.667 50 220 50 352
c0 219.333 -40.333 389.333 -121 510c-28.667 43.333 -66.334 78.5 -113.001 105.5s-100 40.5 -160 40.5s-113.833 -12 -161.5 -36s-87 -56.167 -118 -96.5s-56.667 -88.833 -77 -145.5s-34.833 -116.167 -43.5 -178.5z" />
    <glyph glyph-name="Oacute" unicode="&#xd3;" horiz-adv-x="1263" 
d="M627 1672l295 295l87 -87l-316 -273zM101 529.5c-14 72.333 -21.001 146.833 -21.001 223.5s6.33301 151.334 19 224.001s33.334 143 62.001 211s64.167 127.167 106.5 177.5s95.5 90.666 159.5 120.999s134.5 45.5 211.5 45.5s146.333 -15.5 208 -46.5s113 -72 154 -123
s75.5 -110.5 103.5 -178.5c52.667 -128 79 -272 79 -432c0 -292.667 -75.667 -510 -227 -652c-82 -77.333 -187 -116 -315 -116c-74 0 -142.333 14.833 -205 44.5s-115.5 69.334 -158.5 119.001s-79.667 107.667 -110 174s-52.5 135.666 -66.5 207.999zM240.999 951.5
c-8.66699 -62.333 -13.001 -133.167 -13.001 -212.5s7.83301 -156.5 23.5 -231.5s39.334 -142.833 71.001 -203.5s74.667 -108.5 129 -143.5s114.333 -52.5 180 -52.5s122 13.167 169 39.5s84.833 60.5 113.5 102.5s52.334 92 71.001 150c33.333 102.667 50 220 50 352
c0 219.333 -40.333 389.333 -121 510c-28.667 43.333 -66.334 78.5 -113.001 105.5s-100 40.5 -160 40.5s-113.833 -12 -161.5 -36s-87 -56.167 -118 -96.5s-56.667 -88.833 -77 -145.5s-34.833 -116.167 -43.5 -178.5z" />
    <glyph glyph-name="Ocircumflex" unicode="&#xd4;" horiz-adv-x="1263" 
d="M419 1719l222 222l222 -222l-66 -64l-156 156l-157 -157zM101 529.5c-14 72.333 -21.001 146.833 -21.001 223.5s6.33301 151.334 19 224.001s33.334 143 62.001 211s64.167 127.167 106.5 177.5s95.5 90.666 159.5 120.999s134.5 45.5 211.5 45.5
s146.333 -15.5 208 -46.5s113 -72 154 -123s75.5 -110.5 103.5 -178.5c52.667 -128 79 -272 79 -432c0 -292.667 -75.667 -510 -227 -652c-82 -77.333 -187 -116 -315 -116c-74 0 -142.333 14.833 -205 44.5s-115.5 69.334 -158.5 119.001s-79.667 107.667 -110 174
s-52.5 135.666 -66.5 207.999zM240.999 951.5c-8.66699 -62.333 -13.001 -133.167 -13.001 -212.5s7.83301 -156.5 23.5 -231.5s39.334 -142.833 71.001 -203.5s74.667 -108.5 129 -143.5s114.333 -52.5 180 -52.5s122 13.167 169 39.5s84.833 60.5 113.5 102.5
s52.334 92 71.001 150c33.333 102.667 50 220 50 352c0 219.333 -40.333 389.333 -121 510c-28.667 43.333 -66.334 78.5 -113.001 105.5s-100 40.5 -160 40.5s-113.833 -12 -161.5 -36s-87 -56.167 -118 -96.5s-56.667 -88.833 -77 -145.5s-34.833 -116.167 -43.5 -178.5z
" />
    <glyph glyph-name="Otilde" unicode="&#xd5;" horiz-adv-x="1263" 
d="M945 1807c-16.667 -48 -41.167 -86.001 -73.5 -114.001s-66.833 -42 -103.5 -42s-68.834 7.66699 -96.501 23s-53.667 30.5 -78 45.5s-47.833 22.5 -70.5 22.5h-10c-21.333 -2 -40.333 -10.667 -57 -26s-29 -34.666 -37 -57.999l-83 40c16.667 48 40 85 70 111
c34.667 30 68.834 45 102.501 45s62 -4.66699 85 -14s41.833 -19.666 56.5 -30.999c38 -30.667 74 -46 108 -46h10c21.333 2 40.333 10.667 57 26s29 34.666 37 57.999zM101 529.499c-14 72.333 -21.001 146.833 -21.001 223.5s6.33301 151.334 19 224.001
s33.334 143 62.001 211s64.167 127.167 106.5 177.5s95.5 90.666 159.5 120.999s134.5 45.5 211.5 45.5s146.333 -15.5 208 -46.5s113 -72 154 -123s75.5 -110.5 103.5 -178.5c52.667 -128 79 -272 79 -432c0 -292.667 -75.667 -510 -227 -652
c-82 -77.333 -187 -116 -315 -116c-74 0 -142.333 14.833 -205 44.5s-115.5 69.334 -158.5 119.001s-79.667 107.667 -110 174s-52.5 135.666 -66.5 207.999zM240.999 951.499c-8.66699 -62.333 -13.001 -133.167 -13.001 -212.5s7.83301 -156.5 23.5 -231.5
s39.334 -142.833 71.001 -203.5s74.667 -108.5 129 -143.5s114.333 -52.5 180 -52.5s122 13.167 169 39.5s84.833 60.5 113.5 102.5s52.334 92 71.001 150c33.333 102.667 50 220 50 352c0 219.333 -40.333 389.333 -121 510c-28.667 43.333 -66.334 78.5 -113.001 105.5
s-100 40.5 -160 40.5s-113.833 -12 -161.5 -36s-87 -56.167 -118 -96.5s-56.667 -88.833 -77 -145.5s-34.833 -116.167 -43.5 -178.5z" />
    <glyph glyph-name="Odieresis" unicode="&#xd6;" horiz-adv-x="1263" 
d="M406 1654v150h150v-150h-150zM725 1654v150h150v-150h-150zM101 529.5c-14 72.333 -21.001 146.833 -21.001 223.5s6.33301 151.334 19 224.001s33.334 143 62.001 211s64.167 127.167 106.5 177.5s95.5 90.666 159.5 120.999s134.5 45.5 211.5 45.5
s146.333 -15.5 208 -46.5s113 -72 154 -123s75.5 -110.5 103.5 -178.5c52.667 -128 79 -272 79 -432c0 -292.667 -75.667 -510 -227 -652c-82 -77.333 -187 -116 -315 -116c-74 0 -142.333 14.833 -205 44.5s-115.5 69.334 -158.5 119.001s-79.667 107.667 -110 174
s-52.5 135.666 -66.5 207.999zM240.999 951.5c-8.66699 -62.333 -13.001 -133.167 -13.001 -212.5s7.83301 -156.5 23.5 -231.5s39.334 -142.833 71.001 -203.5s74.667 -108.5 129 -143.5s114.333 -52.5 180 -52.5s122 13.167 169 39.5s84.833 60.5 113.5 102.5
s52.334 92 71.001 150c33.333 102.667 50 220 50 352c0 219.333 -40.333 389.333 -121 510c-28.667 43.333 -66.334 78.5 -113.001 105.5s-100 40.5 -160 40.5s-113.833 -12 -161.5 -36s-87 -56.167 -118 -96.5s-56.667 -88.833 -77 -145.5s-34.833 -116.167 -43.5 -178.5z
" />
    <glyph glyph-name="multiply" unicode="&#xd7;" horiz-adv-x="896" 
d="M75 460l280 280l-280 281l93 93l280 -281l279 280l93 -93l-279 -280l280 -280l-93 -93l-280 280l-280 -280z" />
    <glyph glyph-name="Oslash" unicode="&#xd8;" horiz-adv-x="1271" 
d="M120.5 451.5c-27 97.667 -40.498 191.499 -40.498 281.499s6.33301 171.333 19 244s33.334 143 62.001 211s64.167 127.167 106.5 177.5s95.5 90.666 159.5 120.999s135.333 45.5 214 45.5c116 0 218 -37.333 306 -112l74 129l114 -66l-97 -167
c50 -74 88 -160.833 114 -260.5s39 -194.5 39 -284.5s-6.33301 -171 -19 -243s-33.334 -141.333 -62.001 -208s-63.834 -124.667 -105.501 -174s-93.667 -88.666 -156 -117.999s-131.5 -44 -207.5 -44c-116.667 0 -219.334 36.667 -308.001 110l-76 -132l-115 66l97 168
c-52 72.667 -91.5 157.834 -118.5 255.501zM313.002 321.999l568 983.999c-64.667 68 -144.667 102 -240 102c-171.333 0 -290.333 -92.667 -357 -278c-37.333 -104.667 -56 -237.167 -56 -397.5s28.333 -297.166 85 -410.499zM397.002 203.998
c67.333 -64 148.668 -96 244.001 -96c59.333 0 112.666 13.167 159.999 39.5s85.833 60.5 115.5 102.5s54.167 91.667 73.5 149c35.333 102 53 228.833 53 380.5s-27 286.167 -81 403.5z" />
    <glyph glyph-name="Ugrave" unicode="&#xd9;" horiz-adv-x="1213" 
d="M241 1880l87 87l295 -295l-66 -65zM135 455v1060h148v-1060c0 -90.667 22 -167 66 -229c55.333 -78.667 142 -118 260 -118c176 0 280.333 79.333 313 238c8 36.667 12 73 12 109v1060h151v-1060c0 -109.333 -29.667 -207 -89 -293c-80 -118.667 -209 -178 -387 -178
c-212.667 0 -355.667 84.667 -429 254c-30 70.667 -45 143 -45 217z" />
    <glyph glyph-name="Uacute" unicode="&#xda;" horiz-adv-x="1213" 
d="M594 1672l295 295l87 -87l-316 -273zM135 455v1060h148v-1060c0 -90.667 22 -167 66 -229c55.333 -78.667 142 -118 260 -118c176 0 280.333 79.333 313 238c8 36.667 12 73 12 109v1060h151v-1060c0 -109.333 -29.667 -207 -89 -293c-80 -118.667 -209 -178 -387 -178
c-212.667 0 -355.667 84.667 -429 254c-30 70.667 -45 143 -45 217z" />
    <glyph glyph-name="Ucircumflex" unicode="&#xdb;" horiz-adv-x="1213" 
d="M386 1719l222 222l222 -222l-66 -64l-156 156l-157 -157zM135 455v1060h148v-1060c0 -90.667 22 -167 66 -229c55.333 -78.667 142 -118 260 -118c176 0 280.333 79.333 313 238c8 36.667 12 73 12 109v1060h151v-1060c0 -109.333 -29.667 -207 -89 -293
c-80 -118.667 -209 -178 -387 -178c-212.667 0 -355.667 84.667 -429 254c-30 70.667 -45 143 -45 217z" />
    <glyph glyph-name="Udieresis" unicode="&#xdc;" horiz-adv-x="1213" 
d="M374 1654v150h150v-150h-150zM693 1654v150h150v-150h-150zM135 455v1060h148v-1060c0 -90.667 22 -167 66 -229c55.333 -78.667 142 -118 260 -118c176 0 280.333 79.333 313 238c8 36.667 12 73 12 109v1060h151v-1060c0 -109.333 -29.667 -207 -89 -293
c-80 -118.667 -209 -178 -387 -178c-212.667 0 -355.667 84.667 -429 254c-30 70.667 -45 143 -45 217z" />
    <glyph glyph-name="Yacute" unicode="&#xdd;" horiz-adv-x="1122" 
d="M547 1672l295 295l87 -87l-316 -273zM25 1515h154l382 -713l382 713h154l-462 -855v-660h-148v660z" />
    <glyph glyph-name="Thorn" unicode="&#xde;" horiz-adv-x="1236" 
d="M135 0v1515h148v-335h381c156.667 0 272 -62 346 -186c38.667 -65.333 58 -130.5 58 -195.5s-7.33301 -121.667 -22 -170s-37.167 -93.333 -67.5 -135s-72.5 -74.834 -126.5 -99.501s-116.667 -37 -188 -37h-381v-357h-148zM283 481.001l279.999 0.000976562
c108 0 194.5 23.667 259.5 71s97.5 119.666 97.5 216.999s-32.667 169.5 -98 216.5s-151.666 70.5 -258.999 70.5h-280v-575z" />
    <glyph glyph-name="germandbls" unicode="&#xdf;" horiz-adv-x="1146" 
d="M135 0l-0.00195312 878.992c0 204 12.333 339.667 37 407c31.333 86 71.666 144.333 120.999 175c69.333 42.667 155.833 64 259.5 64s186.667 -28.333 249 -85s93.5 -122.167 93.5 -196.5s-18 -136.166 -54 -185.499s-80.667 -84.333 -134 -105
c-11.333 -4.66699 -27.166 -10.667 -47.499 -18s-34.5 -12.666 -42.5 -15.999s-18.667 -8.16602 -32 -14.499s-22.5 -12 -27.5 -17s-10.833 -11.5 -17.5 -19.5c-10 -14 -15 -35 -15 -63s6 -52.5 18 -73.5s30.333 -39.167 55 -54.5c38 -24 82.333 -43.667 133 -59
s84.167 -25.666 100.5 -30.999s38.333 -13.5 66 -24.5s49.334 -21.5 65.001 -31.5s33.5 -23.167 53.5 -39.5s35.333 -33.5 46 -51.5c26 -45.333 39 -94.666 39 -147.999c0 -88.667 -33.667 -161.334 -101 -218.001s-144 -85 -230 -85s-155 13 -207 39s-100 74.333 -144 145
l99 64c34.667 -54 67.667 -90.167 99 -108.5s78.666 -27.5 141.999 -27.5c65.333 0 118.333 17.667 159 53c34 29.333 51 65.333 51 108s-7.33301 76.667 -22 102s-35.667 46 -63 62c-44 25.333 -90.167 43.833 -138.5 55.5s-86.333 22.334 -114 32.001
s-56.167 22.834 -85.5 39.501s-54.666 35.334 -75.999 56.001c-48.667 47.333 -73 105.666 -73 174.999c0 84.667 22.667 147.334 68 188.001c42 38 102.667 67.667 182 89c62 17.333 99.667 48 113 92c6.66699 20.667 10 46 10 76c0 55.333 -21.167 98.5 -63.5 129.5
s-89.833 46.5 -142.5 46.5s-95.167 -6.5 -127.5 -19.5s-59.166 -32 -80.499 -57s-38 -59.5 -50 -103.5c-20.667 -79.333 -31 -194.666 -31 -345.999v-879h-140z" />
    <glyph glyph-name="agrave" unicode="&#xe0;" horiz-adv-x="928" 
d="M110 1414l87 87l295 -295l-66 -65zM90 382.5c12 35.667 30.8301 67.333 56.4971 95s54.834 52.167 87.501 73.5s73.334 40.666 122.001 57.999c88.667 31.333 197 59.666 325 84.999c0 105.333 -20.333 175.666 -61 210.999c-36 31.333 -88.333 47 -157 47
c-84 0 -156.333 -32 -217 -96c-26 -26 -44 -49.333 -54 -70l-95 63c74.667 143.333 201.667 215 381 215c160.667 0 263.334 -61.667 308.001 -185c18 -50 27 -110.667 27 -182v-549c0 -19.333 3.66699 -45.666 11 -78.999s14 -56.333 20 -69h-133c-20 10 -30 66 -30 168
c-94 -120.667 -197.667 -181 -311 -181c-125.333 0 -212.333 44 -261 132c-24.667 44.667 -37 90.834 -37 138.501s6 89.334 18 125.001zM228.997 371.999c-16.667 -30.667 -24.999 -70.6689 -24.999 -120.002s17.333 -87.166 52 -113.499s73.167 -39.5 115.5 -39.5
s79.666 6.33301 111.999 19s61.833 29 88.5 49c48.667 36.667 85 69.334 109 98.001v317c-126.667 -32.667 -201.667 -52.667 -225 -60c-117.333 -38 -193 -88 -227 -150z" />
    <glyph glyph-name="aacute" unicode="&#xe1;" horiz-adv-x="928" 
d="M464 1206l295 295l87 -87l-316 -273zM90 382.5c12 35.667 30.8301 67.333 56.4971 95s54.834 52.167 87.501 73.5s73.334 40.666 122.001 57.999c88.667 31.333 197 59.666 325 84.999c0 105.333 -20.333 175.666 -61 210.999c-36 31.333 -88.333 47 -157 47
c-84 0 -156.333 -32 -217 -96c-26 -26 -44 -49.333 -54 -70l-95 63c74.667 143.333 201.667 215 381 215c160.667 0 263.334 -61.667 308.001 -185c18 -50 27 -110.667 27 -182v-549c0 -19.333 3.66699 -45.666 11 -78.999s14 -56.333 20 -69h-133c-20 10 -30 66 -30 168
c-94 -120.667 -197.667 -181 -311 -181c-125.333 0 -212.333 44 -261 132c-24.667 44.667 -37 90.834 -37 138.501s6 89.334 18 125.001zM228.997 371.999c-16.667 -30.667 -24.999 -70.6689 -24.999 -120.002s17.333 -87.166 52 -113.499s73.167 -39.5 115.5 -39.5
s79.666 6.33301 111.999 19s61.833 29 88.5 49c48.667 36.667 85 69.334 109 98.001v317c-126.667 -32.667 -201.667 -52.667 -225 -60c-117.333 -38 -193 -88 -227 -150z" />
    <glyph glyph-name="acircumflex" unicode="&#xe2;" horiz-adv-x="928" 
d="M256 1253l222 222l222 -222l-66 -64l-156 156l-157 -157zM90 382.5c12 35.667 30.8301 67.333 56.4971 95s54.834 52.167 87.501 73.5s73.334 40.666 122.001 57.999c88.667 31.333 197 59.666 325 84.999c0 105.333 -20.333 175.666 -61 210.999
c-36 31.333 -88.333 47 -157 47c-84 0 -156.333 -32 -217 -96c-26 -26 -44 -49.333 -54 -70l-95 63c74.667 143.333 201.667 215 381 215c160.667 0 263.334 -61.667 308.001 -185c18 -50 27 -110.667 27 -182v-549c0 -19.333 3.66699 -45.666 11 -78.999s14 -56.333 20 -69
h-133c-20 10 -30 66 -30 168c-94 -120.667 -197.667 -181 -311 -181c-125.333 0 -212.333 44 -261 132c-24.667 44.667 -37 90.834 -37 138.501s6 89.334 18 125.001zM228.997 371.999c-16.667 -30.667 -24.999 -70.6689 -24.999 -120.002s17.333 -87.166 52 -113.499
s73.167 -39.5 115.5 -39.5s79.666 6.33301 111.999 19s61.833 29 88.5 49c48.667 36.667 85 69.334 109 98.001v317c-126.667 -32.667 -201.667 -52.667 -225 -60c-117.333 -38 -193 -88 -227 -150z" />
    <glyph glyph-name="atilde" unicode="&#xe3;" horiz-adv-x="928" 
d="M783 1341c-16.667 -48 -41.167 -86.001 -73.5 -114.001s-66.833 -42 -103.5 -42s-68.834 7.66699 -96.501 23s-53.667 30.5 -78 45.5s-47.833 22.5 -70.5 22.5h-10c-21.333 -2 -40.333 -10.667 -57 -26s-29 -34.666 -37 -57.999l-83 40c16.667 48 40 85 70 111
c34.667 30 68.834 45 102.501 45s62 -4.66699 85 -14s41.833 -19.666 56.5 -30.999c38 -30.667 74 -46 108 -46h10c21.333 2 40.333 10.667 57 26s29 34.666 37 57.999zM90 382.499c12 35.667 30.8301 67.333 56.4971 95s54.834 52.167 87.501 73.5
s73.334 40.666 122.001 57.999c88.667 31.333 197 59.666 325 84.999c0 105.333 -20.333 175.666 -61 210.999c-36 31.333 -88.333 47 -157 47c-84 0 -156.333 -32 -217 -96c-26 -26 -44 -49.333 -54 -70l-95 63c74.667 143.333 201.667 215 381 215
c160.667 0 263.334 -61.667 308.001 -185c18 -50 27 -110.667 27 -182v-549c0 -19.333 3.66699 -45.666 11 -78.999s14 -56.333 20 -69h-133c-20 10 -30 66 -30 168c-94 -120.667 -197.667 -181 -311 -181c-125.333 0 -212.333 44 -261 132
c-24.667 44.667 -37 90.834 -37 138.501s6 89.334 18 125.001zM228.997 371.998c-16.667 -30.667 -24.999 -70.6689 -24.999 -120.002s17.333 -87.166 52 -113.499s73.167 -39.5 115.5 -39.5s79.666 6.33301 111.999 19s61.833 29 88.5 49
c48.667 36.667 85 69.334 109 98.001v317c-126.667 -32.667 -201.667 -52.667 -225 -60c-117.333 -38 -193 -88 -227 -150z" />
    <glyph glyph-name="adieresis" unicode="&#xe4;" horiz-adv-x="928" 
d="M244 1188v150h150v-150h-150zM563 1188v150h150v-150h-150zM90 382.5c12 35.667 30.8301 67.333 56.4971 95s54.834 52.167 87.501 73.5s73.334 40.666 122.001 57.999c88.667 31.333 197 59.666 325 84.999c0 105.333 -20.333 175.666 -61 210.999
c-36 31.333 -88.333 47 -157 47c-84 0 -156.333 -32 -217 -96c-26 -26 -44 -49.333 -54 -70l-95 63c74.667 143.333 201.667 215 381 215c160.667 0 263.334 -61.667 308.001 -185c18 -50 27 -110.667 27 -182v-549c0 -19.333 3.66699 -45.666 11 -78.999s14 -56.333 20 -69
h-133c-20 10 -30 66 -30 168c-94 -120.667 -197.667 -181 -311 -181c-125.333 0 -212.333 44 -261 132c-24.667 44.667 -37 90.834 -37 138.501s6 89.334 18 125.001zM228.997 371.999c-16.667 -30.667 -24.999 -70.6689 -24.999 -120.002s17.333 -87.166 52 -113.499
s73.167 -39.5 115.5 -39.5s79.666 6.33301 111.999 19s61.833 29 88.5 49c48.667 36.667 85 69.334 109 98.001v317c-126.667 -32.667 -201.667 -52.667 -225 -60c-117.333 -38 -193 -88 -227 -150z" />
    <glyph glyph-name="aring" unicode="&#xe5;" horiz-adv-x="928" 
d="M205 1413c0 70.667 24.833 130.834 74.5 180.501s109.834 74.5 180.501 74.5s130.834 -24.833 180.501 -74.5s74.5 -109.834 74.5 -180.501s-24.833 -130.834 -74.5 -180.501s-109.834 -74.5 -180.501 -74.5s-130.834 24.833 -180.501 74.5s-74.5 109.834 -74.5 180.501z
M301 1413c0 -43.333 15.5 -80.5 46.5 -111.5s68.167 -46.5 111.5 -46.5s80.5 15.5 111.5 46.5s46.5 68.167 46.5 111.5s-15.5 80.5 -46.5 111.5s-68.167 46.5 -111.5 46.5s-80.5 -15.5 -111.5 -46.5s-46.5 -68.167 -46.5 -111.5zM90 382.5
c12 35.667 30.8301 67.333 56.4971 95s54.834 52.167 87.501 73.5s73.334 40.666 122.001 57.999c88.667 31.333 197 59.666 325 84.999c0 105.333 -20.333 175.666 -61 210.999c-36 31.333 -88.333 47 -157 47c-84 0 -156.333 -32 -217 -96c-26 -26 -44 -49.333 -54 -70
l-95 63c74.667 143.333 201.667 215 381 215c160.667 0 263.334 -61.667 308.001 -185c18 -50 27 -110.667 27 -182v-549c0 -19.333 3.66699 -45.666 11 -78.999s14 -56.333 20 -69h-133c-20 10 -30 66 -30 168c-94 -120.667 -197.667 -181 -311 -181
c-125.333 0 -212.333 44 -261 132c-24.667 44.667 -37 90.834 -37 138.501s6 89.334 18 125.001zM228.997 371.999c-16.667 -30.667 -24.999 -70.6689 -24.999 -120.002s17.333 -87.166 52 -113.499s73.167 -39.5 115.5 -39.5s79.666 6.33301 111.999 19s61.833 29 88.5 49
c48.667 36.667 85 69.334 109 98.001v317c-126.667 -32.667 -201.667 -52.667 -225 -60c-117.333 -38 -193 -88 -227 -150z" />
    <glyph glyph-name="ae" unicode="&#xe6;" horiz-adv-x="1527" 
d="M90 384.5c12 35.667 30.834 67.335 56.501 95.002s54.834 52.167 87.501 73.5s73.334 40.666 122.001 57.999c88.667 31.333 197 59.666 325 84.999c0 105.333 -20.333 175.666 -61 210.999c-36 31.333 -88.333 47 -157 47c-84 0 -156.333 -32 -217 -96
c-26 -26 -44 -49.333 -54 -70l-95 63c74.667 143.333 201.667 215 381 215c147.333 0 246 -52.333 296 -157c69.333 104.667 170.333 157 303 157c122.667 0 216 -50.667 280 -152c57.333 -90.667 86 -224.334 86 -401.001h-634c0 -178 45 -299.333 135 -364
c44.667 -32 89.667 -48 135 -48s84.166 7.5 116.499 22.5s59.166 33.833 80.499 56.5c41.333 44.667 68 82 80 112l90 -63c-24.667 -49.333 -58.334 -93.333 -101.001 -132c-79.333 -72 -162 -108 -248 -108s-160 21.5 -222 64.5s-110.333 102.5 -145 178.5
c-108.667 -162 -228.667 -243 -360 -243c-125.333 0 -212.333 44 -261 132c-24.667 44.667 -37 90.834 -37 138.501s6 89.334 18 125.001zM229.001 374.001c-16.667 -30.667 -24.999 -70.668 -24.999 -120.001s17.333 -87.166 52 -113.499s72.334 -39.5 113.001 -39.5
s75.667 5.5 105 16.5s55.166 23.833 77.499 38.5s45.166 32 68.499 52c32 29.333 60 58 84 86c-17.333 46 -26 106 -26 180c0 12 0.5 30.167 1.5 54.5s1.5 42.833 1.5 55.5c-126.667 -32.667 -201.667 -52.667 -225 -60c-117.333 -38 -193 -88 -227 -150zM815.002 625
l496 0.00195312c0 99.333 -23 181.666 -69 246.999c-38.667 54.667 -93.667 82 -165 82c-116.667 0 -194.667 -54 -234 -162c-18.667 -50.667 -28 -106.334 -28 -167.001z" />
    <glyph glyph-name="ccedilla" unicode="&#xe7;" horiz-adv-x="926" 
d="M417 -314l-36 0.999023v94c59.333 0 98.833 5.33301 118.5 16s29.5 21 29.5 31c0 48 -23.667 102 -71 162c-124 8.66699 -217.333 54.667 -280 138c-68.667 93.333 -103 224 -103 392c0 364 141.667 546 425 546c70 0 129 -16.667 177 -50
c47.333 -33.333 78.666 -63.333 93.999 -90c26.667 -45.333 45 -83 55 -113l-106 -48c-1.33301 13.333 -8.5 33 -21.5 59s-26.833 47.333 -41.5 64s-35.834 31.834 -63.501 45.501s-58.834 20.5 -93.501 20.5c-195.333 0 -293 -141.667 -293 -425
c0 -137.333 25.833 -243 77.5 -317s123.5 -111 215.5 -111c63.333 0 116 24.333 158 73c36.667 42 61.334 79.333 74.001 112l9 22l104 -50c-23.333 -64.667 -61.666 -123.334 -114.999 -176.001c-24 -23.333 -56.667 -44.666 -98 -63.999
c-25.333 -12 -51.666 -20.333 -78.999 -25c46 -65.333 69 -129.333 69 -192c0 -76.667 -68.333 -115 -205 -115z" />
    <glyph glyph-name="egrave" unicode="&#xe8;" horiz-adv-x="925" 
d="M107 1414l87 87l295 -295l-66 -65zM100.5 311c-17 60 -25.498 123.002 -25.498 189.002s4.66699 126.167 14 180.5s21.666 100.5 36.999 138.5s34 71.833 56 101.5s44.667 53.5 68 71.5s48.666 32.667 75.999 44c47.333 20 92.333 30 135 30s79 -3.83301 109 -11.5
s62.167 -23.334 96.5 -47.001s63.833 -54.834 88.5 -93.501c57.333 -90.667 86 -224.334 86 -401.001h-634c0 -178 45 -299.333 135 -364c44.667 -32 94.334 -48 149.001 -48c102.667 0 190 63.667 262 191l91 -63c-26 -48 -60 -91.333 -102 -130
c-80 -73.333 -159 -110 -237 -110s-144.333 14.333 -199 43s-98.334 67.334 -131.001 116.001s-57.5 103 -74.5 163zM213.002 625.002l496 0.00195312c0 99.333 -23 181.666 -69 246.999c-38.667 54.667 -93.667 82 -165 82c-116.667 0 -194.667 -54 -234 -162
c-18.667 -50.667 -28 -106.334 -28 -167.001z" />
    <glyph glyph-name="eacute" unicode="&#xe9;" horiz-adv-x="925" 
d="M461 1206l295 295l87 -87l-316 -273zM100.5 311c-17 60 -25.498 123.002 -25.498 189.002s4.66699 126.167 14 180.5s21.666 100.5 36.999 138.5s34 71.833 56 101.5s44.667 53.5 68 71.5s48.666 32.667 75.999 44c47.333 20 92.333 30 135 30s79 -3.83301 109 -11.5
s62.167 -23.334 96.5 -47.001s63.833 -54.834 88.5 -93.501c57.333 -90.667 86 -224.334 86 -401.001h-634c0 -178 45 -299.333 135 -364c44.667 -32 94.334 -48 149.001 -48c102.667 0 190 63.667 262 191l91 -63c-26 -48 -60 -91.333 -102 -130
c-80 -73.333 -159 -110 -237 -110s-144.333 14.333 -199 43s-98.334 67.334 -131.001 116.001s-57.5 103 -74.5 163zM213.002 625.002l496 0.00195312c0 99.333 -23 181.666 -69 246.999c-38.667 54.667 -93.667 82 -165 82c-116.667 0 -194.667 -54 -234 -162
c-18.667 -50.667 -28 -106.334 -28 -167.001z" />
    <glyph glyph-name="ecircumflex" unicode="&#xea;" horiz-adv-x="925" 
d="M253 1253l222 222l222 -222l-66 -64l-156 156l-157 -157zM100.5 311c-17 60 -25.498 123.002 -25.498 189.002s4.66699 126.167 14 180.5s21.666 100.5 36.999 138.5s34 71.833 56 101.5s44.667 53.5 68 71.5s48.666 32.667 75.999 44c47.333 20 92.333 30 135 30
s79 -3.83301 109 -11.5s62.167 -23.334 96.5 -47.001s63.833 -54.834 88.5 -93.501c57.333 -90.667 86 -224.334 86 -401.001h-634c0 -178 45 -299.333 135 -364c44.667 -32 94.334 -48 149.001 -48c102.667 0 190 63.667 262 191l91 -63c-26 -48 -60 -91.333 -102 -130
c-80 -73.333 -159 -110 -237 -110s-144.333 14.333 -199 43s-98.334 67.334 -131.001 116.001s-57.5 103 -74.5 163zM213.002 625.002l496 0.00195312c0 99.333 -23 181.666 -69 246.999c-38.667 54.667 -93.667 82 -165 82c-116.667 0 -194.667 -54 -234 -162
c-18.667 -50.667 -28 -106.334 -28 -167.001z" />
    <glyph glyph-name="edieresis" unicode="&#xeb;" horiz-adv-x="925" 
d="M240 1188v150h150v-150h-150zM559 1188v150h150v-150h-150zM100.5 311c-17 60 -25.498 123.002 -25.498 189.002s4.66699 126.167 14 180.5s21.666 100.5 36.999 138.5s34 71.833 56 101.5s44.667 53.5 68 71.5s48.666 32.667 75.999 44c47.333 20 92.333 30 135 30
s79 -3.83301 109 -11.5s62.167 -23.334 96.5 -47.001s63.833 -54.834 88.5 -93.501c57.333 -90.667 86 -224.334 86 -401.001h-634c0 -178 45 -299.333 135 -364c44.667 -32 94.334 -48 149.001 -48c102.667 0 190 63.667 262 191l91 -63c-26 -48 -60 -91.333 -102 -130
c-80 -73.333 -159 -110 -237 -110s-144.333 14.333 -199 43s-98.334 67.334 -131.001 116.001s-57.5 103 -74.5 163zM213.002 625.002l496 0.00195312c0 99.333 -23 181.666 -69 246.999c-38.667 54.667 -93.667 82 -165 82c-116.667 0 -194.667 -54 -234 -162
c-18.667 -50.667 -28 -106.334 -28 -167.001z" />
    <glyph glyph-name="igrave" unicode="&#xec;" horiz-adv-x="417" 
d="M-173 1414l87 87l295 -295l-66 -65zM129 0v1055h132v-1055h-132z" />
    <glyph glyph-name="iacute" unicode="&#xed;" horiz-adv-x="417" 
d="M181 1206l295 295l87 -87l-316 -273zM129 0v1055h132v-1055h-132z" />
    <glyph glyph-name="icircumflex" unicode="&#xee;" horiz-adv-x="417" 
d="M-27 1253l222 222l222 -222l-66 -64l-156 156l-157 -157zM129 0v1055h132v-1055h-132z" />
    <glyph glyph-name="idieresis" unicode="&#xef;" horiz-adv-x="417" 
d="M-40 1188v150h150v-150h-150zM279 1188v150h150v-150h-150zM129 0v1055h132v-1055h-132z" />
    <glyph glyph-name="eth" unicode="&#xf0;" horiz-adv-x="981" 
d="M532 1515c33.333 -20.667 74.999 -61.666 124.999 -122.999l162 94l46 -80l-155 -90c124.667 -200.667 187 -463.667 187 -789c0 -219.333 -62.333 -375.666 -187 -468.999c-62.667 -46 -137 -69 -223 -69c-129.333 0 -230.333 50.167 -303 150.5s-109 231.5 -109 393.5
s36.167 291.333 108.5 388s173.5 145 303.5 145c98 0 175.333 -23.333 232 -70c-52.667 137.333 -83 213.333 -91 228l-17 34l-203 -116l-46 80l199 114c-38 51.333 -75.167 93.666 -111.5 126.999s-55.166 50.666 -56.499 51.999h139zM206.999 528.001
c0 -210.667 55.001 -344.332 165.001 -400.999c33.333 -17.333 71.666 -26 114.999 -26s81.833 8.66699 115.5 26s60.5 39.666 80.5 66.999s36.333 60 49 98c22 66.667 33 145 33 235c0 284.667 -93 427 -279 427s-279 -142 -279 -426z" />
    <glyph glyph-name="ntilde" unicode="&#xf1;" 
d="M795 1341c-16.667 -48 -41.167 -86.001 -73.5 -114.001s-66.833 -42 -103.5 -42s-68.834 7.66699 -96.501 23s-53.667 30.5 -78 45.5s-47.833 22.5 -70.5 22.5h-10c-21.333 -2 -40.333 -10.667 -57 -26s-29 -34.666 -37 -57.999l-83 40c16.667 48 40 85 70 111
c34.667 30 68.834 45 102.501 45s62 -4.66699 85 -14s41.833 -19.666 56.5 -30.999c38 -30.667 74 -46 108 -46h10c21.333 2 40.333 10.667 57 26s29 34.666 37 57.999zM120 -0.000976562v1055h132v-173c58.667 58 114.334 103.167 167.001 135.5s114.667 48.5 186 48.5
s131.666 -23.333 180.999 -70s74 -116.667 74 -210v-786h-132v786c0 50 -17.833 90.5 -53.5 121.5s-74.167 46.5 -115.5 46.5c-98.667 0 -201 -57.667 -307 -173v-781h-132z" />
    <glyph glyph-name="ograve" unicode="&#xf2;" horiz-adv-x="972" 
d="M119 1414l87 87l295 -295l-66 -65zM183.5 921c72.333 96.667 173.5 145 303.5 145s230.833 -48.667 302.5 -146s107.5 -227.333 107.5 -390s-36.167 -293.667 -108.5 -393s-172.833 -149 -301.5 -149c-131.333 0 -233.333 51.333 -306 154
c-70.667 100.667 -106 231.5 -106 392.5s36.167 289.833 108.5 386.5zM207 528c0 -211.333 55.001 -345.331 165.001 -401.998c33.333 -17.333 71.666 -26 114.999 -26s81.833 8.66699 115.5 26s60.5 39.666 80.5 66.999s36.333 60.333 49 99
c22 67.333 33 145.666 33 234.999c0 284.667 -93 427 -279 427s-279 -142 -279 -426z" />
    <glyph glyph-name="oacute" unicode="&#xf3;" horiz-adv-x="972" 
d="M473 1206l295 295l87 -87l-316 -273zM183.5 921c72.333 96.667 173.5 145 303.5 145s230.833 -48.667 302.5 -146s107.5 -227.333 107.5 -390s-36.167 -293.667 -108.5 -393s-172.833 -149 -301.5 -149c-131.333 0 -233.333 51.333 -306 154
c-70.667 100.667 -106 231.5 -106 392.5s36.167 289.833 108.5 386.5zM207 528c0 -211.333 55.001 -345.331 165.001 -401.998c33.333 -17.333 71.666 -26 114.999 -26s81.833 8.66699 115.5 26s60.5 39.666 80.5 66.999s36.333 60.333 49 99
c22 67.333 33 145.666 33 234.999c0 284.667 -93 427 -279 427s-279 -142 -279 -426z" />
    <glyph glyph-name="ocircumflex" unicode="&#xf4;" horiz-adv-x="972" 
d="M265 1253l222 222l222 -222l-66 -64l-156 156l-157 -157zM183.5 921c72.333 96.667 173.5 145 303.5 145s230.833 -48.667 302.5 -146s107.5 -227.333 107.5 -390s-36.167 -293.667 -108.5 -393s-172.833 -149 -301.5 -149c-131.333 0 -233.333 51.333 -306 154
c-70.667 100.667 -106 231.5 -106 392.5s36.167 289.833 108.5 386.5zM207 528c0 -211.333 55.001 -345.331 165.001 -401.998c33.333 -17.333 71.666 -26 114.999 -26s81.833 8.66699 115.5 26s60.5 39.666 80.5 66.999s36.333 60.333 49 99
c22 67.333 33 145.666 33 234.999c0 284.667 -93 427 -279 427s-279 -142 -279 -426z" />
    <glyph glyph-name="otilde" unicode="&#xf5;" horiz-adv-x="972" 
d="M791 1341c-16.667 -48 -41.167 -86.001 -73.5 -114.001s-66.833 -42 -103.5 -42s-68.834 7.66699 -96.501 23s-53.667 30.5 -78 45.5s-47.833 22.5 -70.5 22.5h-10c-21.333 -2 -40.333 -10.667 -57 -26s-29 -34.666 -37 -57.999l-83 40c16.667 48 40 85 70 111
c34.667 30 68.834 45 102.501 45s62 -4.66699 85 -14s41.833 -19.666 56.5 -30.999c38 -30.667 74 -46 108 -46h10c21.333 2 40.333 10.667 57 26s29 34.666 37 57.999zM183.5 920.999c72.333 96.667 173.5 145 303.5 145s230.833 -48.667 302.5 -146
s107.5 -227.333 107.5 -390s-36.167 -293.667 -108.5 -393s-172.833 -149 -301.5 -149c-131.333 0 -233.333 51.333 -306 154c-70.667 100.667 -106 231.5 -106 392.5s36.167 289.833 108.5 386.5zM207 527.999c0 -211.333 55.001 -345.331 165.001 -401.998
c33.333 -17.333 71.666 -26 114.999 -26s81.833 8.66699 115.5 26s60.5 39.666 80.5 66.999s36.333 60.333 49 99c22 67.333 33 145.666 33 234.999c0 284.667 -93 427 -279 427s-279 -142 -279 -426z" />
    <glyph glyph-name="odieresis" unicode="&#xf6;" horiz-adv-x="972" 
d="M252 1188v150h150v-150h-150zM571 1188v150h150v-150h-150zM183.5 921c72.333 96.667 173.5 145 303.5 145s230.833 -48.667 302.5 -146s107.5 -227.333 107.5 -390s-36.167 -293.667 -108.5 -393s-172.833 -149 -301.5 -149c-131.333 0 -233.333 51.333 -306 154
c-70.667 100.667 -106 231.5 -106 392.5s36.167 289.833 108.5 386.5zM207 528c0 -211.333 55.001 -345.331 165.001 -401.998c33.333 -17.333 71.666 -26 114.999 -26s81.833 8.66699 115.5 26s60.5 39.666 80.5 66.999s36.333 60.333 49 99
c22 67.333 33 145.666 33 234.999c0 284.667 -93 427 -279 427s-279 -142 -279 -426z" />
    <glyph glyph-name="divide" unicode="&#xf7;" horiz-adv-x="903" 
d="M75 674v132h753v-132h-753zM377 319v150h150v-150h-150zM377 1011v150h150v-150h-150z" />
    <glyph glyph-name="oslash" unicode="&#xf8;" horiz-adv-x="972" 
d="M177 148c-68 98.667 -101.999 227.999 -101.999 387.999s36.167 288.333 108.5 385s173.5 145 303.5 145c71.333 0 135.666 -16 192.999 -48l48 84l114 -66l-60 -106c76.667 -98.667 115 -230.667 115 -396s-36.167 -297.666 -108.5 -396.999s-172.833 -149 -301.5 -149
c-79.333 0 -150.333 21 -213 63l-50 -87l-115 66zM207.001 527.999c0 -101.333 13.667 -187 41 -257l375 649c-38.667 22.667 -84 34 -136 34c-186.667 0 -280 -142 -280 -426zM332.001 151.999c43.333 -34.667 90.832 -51.998 142.499 -51.998s94.334 8.66699 128.001 26
s60.5 39.666 80.5 66.999s36.333 60.333 49 99c22 67.333 33 153.666 33 258.999s-16.667 193.333 -50 264z" />
    <glyph glyph-name="ugrave" unicode="&#xf9;" horiz-adv-x="979" 
d="M131 1414l87 87l295 -295l-66 -65zM129 269v786.001h132v-786c0 -50 17.833 -90.5 53.5 -121.5s74.167 -46.5 115.5 -46.5c98.667 0 201 57.667 307 173v781h132v-1055h-132v174c-94.667 -92.667 -175.667 -149.334 -243 -170.001c-32.667 -10 -66.667 -15 -102 -15
c-76.667 0 -139.667 23.333 -189 70s-74 116.667 -74 210z" />
    <glyph glyph-name="uacute" unicode="&#xfa;" horiz-adv-x="979" 
d="M485 1206l295 295l87 -87l-316 -273zM129 269v786.001h132v-786c0 -50 17.833 -90.5 53.5 -121.5s74.167 -46.5 115.5 -46.5c98.667 0 201 57.667 307 173v781h132v-1055h-132v174c-94.667 -92.667 -175.667 -149.334 -243 -170.001c-32.667 -10 -66.667 -15 -102 -15
c-76.667 0 -139.667 23.333 -189 70s-74 116.667 -74 210z" />
    <glyph glyph-name="ucircumflex" unicode="&#xfb;" horiz-adv-x="979" 
d="M277 1253l222 222l222 -222l-66 -64l-156 156l-157 -157zM129 269v786.001h132v-786c0 -50 17.833 -90.5 53.5 -121.5s74.167 -46.5 115.5 -46.5c98.667 0 201 57.667 307 173v781h132v-1055h-132v174c-94.667 -92.667 -175.667 -149.334 -243 -170.001
c-32.667 -10 -66.667 -15 -102 -15c-76.667 0 -139.667 23.333 -189 70s-74 116.667 -74 210z" />
    <glyph glyph-name="udieresis" unicode="&#xfc;" horiz-adv-x="979" 
d="M264 1188v150h150v-150h-150zM583 1188v150h150v-150h-150zM129 269v786.001h132v-786c0 -50 17.833 -90.5 53.5 -121.5s74.167 -46.5 115.5 -46.5c98.667 0 201 57.667 307 173v781h132v-1055h-132v174c-94.667 -92.667 -175.667 -149.334 -243 -170.001
c-32.667 -10 -66.667 -15 -102 -15c-76.667 0 -139.667 23.333 -189 70s-74 116.667 -74 210z" />
    <glyph glyph-name="yacute" unicode="&#xfd;" horiz-adv-x="905" 
d="M438 1206l295 295l87 -87l-316 -273zM150 -393c-42 0 -83.001 2.66895 -123.001 8.00195l10 121c24 -11.333 56 -17 96 -17s73 5.16699 99 15.5s47.333 23.666 64 39.999s31.834 34.333 45.501 54s24.5 39.5 32.5 59.5c14 37.333 24 73.666 30 108.999l-379 1058h142
l299 -859l280 859h134l-368 -1119c-38 -114 -76 -191.333 -114 -232c-42 -44 -83.333 -71.167 -124 -81.5s-82 -15.5 -124 -15.5z" />
    <glyph glyph-name="thorn" unicode="&#xfe;" horiz-adv-x="1015" 
d="M129 -410v1925h132v-624c16 30 42.333 60 79 90c69.333 56.667 141.666 85 216.999 85c140 0 246.667 -76.667 320 -230c42 -88 63 -184.333 63 -289c0 -184 -45 -330.333 -135 -439c-65.333 -79.333 -152.333 -119 -261 -119c-61.333 0 -120.666 18.5 -177.999 55.5
s-92.333 68.833 -105 95.5v-550h-132zM261 254c30.667 -44 68 -80.5 112 -109.5s85.833 -43.5 125.5 -43.5s73 3.83301 100 11.5s53.667 21.667 80 42s48.833 46.833 67.5 79.5c41.333 72 62 176.333 62 313c0 166.667 -38.667 284 -116 352
c-41.333 36.667 -93.333 55 -156 55c-84 0 -157.333 -35.333 -220 -106c-16 -18 -34.333 -41 -55 -69v-525z" />
    <glyph glyph-name="ydieresis" unicode="&#xff;" horiz-adv-x="905" 
d="M218 1193v150h150v-150h-150zM537 1193v150h150v-150h-150zM150 -393c-42 0 -83.001 2.66895 -123.001 8.00195l10 121c24 -11.333 56 -17 96 -17s73 5.16699 99 15.5s47.333 23.666 64 39.999s31.834 34.333 45.501 54s24.5 39.5 32.5 59.5
c14 37.333 24 73.666 30 108.999l-379 1058h142l299 -859l280 859h134l-368 -1119c-38 -114 -76 -191.333 -114 -232c-42 -44 -83.333 -71.167 -124 -81.5s-82 -15.5 -124 -15.5z" />
    <glyph glyph-name="Amacron" unicode="&#x100;" horiz-adv-x="1130" 
d="M302 1654v92h527v-92h-527zM25 0l432 1515h216l432 -1515h-154l-130 478h-509l-133 -478h-154zM346 602h440l-221 787z" />
    <glyph glyph-name="amacron" unicode="&#x101;" horiz-adv-x="928" 
d="M214 1188v92h527v-92h-527zM90 382.5c12 35.667 30.8301 67.333 56.4971 95s54.834 52.167 87.501 73.5s73.334 40.666 122.001 57.999c88.667 31.333 197 59.666 325 84.999c0 105.333 -20.333 175.666 -61 210.999c-36 31.333 -88.333 47 -157 47
c-84 0 -156.333 -32 -217 -96c-26 -26 -44 -49.333 -54 -70l-95 63c74.667 143.333 201.667 215 381 215c160.667 0 263.334 -61.667 308.001 -185c18 -50 27 -110.667 27 -182v-549c0 -19.333 3.66699 -45.666 11 -78.999s14 -56.333 20 -69h-133c-20 10 -30 66 -30 168
c-94 -120.667 -197.667 -181 -311 -181c-125.333 0 -212.333 44 -261 132c-24.667 44.667 -37 90.834 -37 138.501s6 89.334 18 125.001zM228.997 371.999c-16.667 -30.667 -24.999 -70.6689 -24.999 -120.002s17.333 -87.166 52 -113.499s73.167 -39.5 115.5 -39.5
s79.666 6.33301 111.999 19s61.833 29 88.5 49c48.667 36.667 85 69.334 109 98.001v317c-126.667 -32.667 -201.667 -52.667 -225 -60c-117.333 -38 -193 -88 -227 -150z" />
    <glyph glyph-name="Abreve" unicode="&#x102;" horiz-adv-x="1130" 
d="M771 1789c-43.333 -90 -112 -135 -206 -135s-162.667 45 -206 135l69 40c12 -28 31 -51 57 -69s52.667 -27 80 -27s54 9 80 27s45 41 57 69zM25 0l432 1515h216l432 -1515h-154l-130 478h-509l-133 -478h-154zM346 602h440l-221 787z" />
    <glyph glyph-name="abreve" unicode="&#x103;" horiz-adv-x="928" 
d="M684 1323c-43.333 -90 -112 -135 -206 -135s-162.667 45 -206 135l69 40c12 -28 31 -51 57 -69s52.667 -27 80 -27s54 9 80 27s45 41 57 69zM90 382.5c12 35.667 30.8301 67.333 56.4971 95s54.834 52.167 87.501 73.5s73.334 40.666 122.001 57.999
c88.667 31.333 197 59.666 325 84.999c0 105.333 -20.333 175.666 -61 210.999c-36 31.333 -88.333 47 -157 47c-84 0 -156.333 -32 -217 -96c-26 -26 -44 -49.333 -54 -70l-95 63c74.667 143.333 201.667 215 381 215c160.667 0 263.334 -61.667 308.001 -185
c18 -50 27 -110.667 27 -182v-549c0 -19.333 3.66699 -45.666 11 -78.999s14 -56.333 20 -69h-133c-20 10 -30 66 -30 168c-94 -120.667 -197.667 -181 -311 -181c-125.333 0 -212.333 44 -261 132c-24.667 44.667 -37 90.834 -37 138.501s6 89.334 18 125.001z
M228.997 371.999c-16.667 -30.667 -24.999 -70.6689 -24.999 -120.002s17.333 -87.166 52 -113.499s73.167 -39.5 115.5 -39.5s79.666 6.33301 111.999 19s61.833 29 88.5 49c48.667 36.667 85 69.334 109 98.001v317c-126.667 -32.667 -201.667 -52.667 -225 -60
c-117.333 -38 -193 -88 -227 -150z" />
    <glyph glyph-name="Aogonek" unicode="&#x104;" horiz-adv-x="1130" 
d="M1085 -314c-136.667 0 -205 38.333 -205 115c0 64 24.333 130 73 198h98c-52 -64 -78 -121 -78 -171c0 -24 39 -39 117 -45c12 -1.33301 22.333 -2 31 -2v-94zM346 602h440l-221 787zM25 0l432 1515h216l432 -1515h-154l-130 478h-509l-133 -478h-154z" />
    <glyph glyph-name="aogonek" unicode="&#x105;" horiz-adv-x="928" 
d="M843 -313c-136.667 0 -205.003 38.332 -205.003 114.999c0 64 24.333 130 73 198c-20 10 -30 66 -30 168c-94 -120.667 -197.667 -181 -311 -181c-125.333 0 -212.333 44 -261 132c-24.667 44.667 -37 90.834 -37 138.501s6 89.334 18 125.001s30.833 67.334 56.5 95.001
s54.834 52.167 87.501 73.5s73.334 40.666 122.001 57.999c88.667 31.333 197 59.666 325 84.999c0 105.333 -20.333 175.666 -61 210.999c-36 31.333 -88.333 47 -157 47c-84 0 -156.333 -32 -217 -96c-26 -26 -44 -49.333 -54 -70l-95 63
c74.667 143.333 201.667 215 381 215c160.667 0 263.334 -61.667 308.001 -185c18 -50 27 -110.667 27 -182v-549c0 -19.333 3.66699 -45.666 11 -78.999s14 -56.333 20 -69h-35c-52 -64 -78 -121 -78 -171c0 -24 39 -39 117 -45c12 -1.33301 22.333 -2 31 -2v-94z
M228.997 371.999c-16.667 -30.667 -24.999 -70.6689 -24.999 -120.002s17.333 -87.166 52 -113.499s73.167 -39.5 115.5 -39.5s79.666 6.33301 111.999 19s61.833 29 88.5 49c48.667 36.667 85 69.334 109 98.001v317c-126.667 -32.667 -201.667 -52.667 -225 -60
c-117.333 -38 -193 -88 -227 -150z" />
    <glyph glyph-name="Cacute" unicode="&#x106;" horiz-adv-x="1174" 
d="M604 1672l295 295l87 -87l-316 -273zM88.5 600c-5.66699 52 -8.49805 110.499 -8.49805 175.499s5.83301 133.333 17.5 205s31.167 141.334 58.5 209.001s61.333 126.5 102 176.5s91.834 90.167 153.501 120.5s124.5 45.5 188.5 45.5s118.5 -8.16699 163.5 -24.5
s82.833 -37.5 113.5 -63.5s58.667 -54.833 84 -86.5s45.333 -63.5 60 -95.5c30.667 -66 49.667 -116 57 -150l6 -24v-1l-152 -41c-10.667 76 -24.167 131.5 -40.5 166.5s-32.666 63.667 -48.999 86s-34.5 41.166 -54.5 56.499c-47.333 35.333 -104 53 -170 53
c-260 0 -390 -216.333 -390 -649c0 -185.333 27.333 -336.666 82 -453.999c62 -131.333 164.667 -197 308 -197c117.333 0 208.666 46 273.999 138c45.333 64.667 68 137 68 217l146 -23c-2.66699 -7.33301 -8.83398 -25.333 -18.501 -54s-17.834 -52 -24.501 -70
s-17.5 -42.5 -32.5 -73.5s-30 -56.833 -45 -77.5s-35 -43.5 -60 -68.5s-51.5 -44.833 -79.5 -59.5c-67.333 -35.333 -136.333 -53 -207 -53s-130.167 8 -178.5 24s-90.5 37.833 -126.5 65.5s-68.5 61 -97.5 100s-53.167 81 -72.5 126s-35.333 93.333 -48 145
s-21.834 103.5 -27.501 155.5z" />
    <glyph glyph-name="cacute" unicode="&#x107;" horiz-adv-x="926" 
d="M486 1206l295 295l87 -87l-316 -273zM75 520c0 364 141.668 545.999 425.001 545.999c70 0 129 -16.667 177 -50c47.333 -33.333 78.666 -63.333 93.999 -90c26.667 -45.333 45 -83 55 -113l-106 -48c-1.33301 13.333 -8.5 33 -21.5 59s-26.833 47.333 -41.5 64
s-35.834 31.834 -63.501 45.501s-58.834 20.5 -93.501 20.5c-195.333 0 -293 -141.667 -293 -425c0 -137.333 25.833 -243 77.5 -317s123.5 -111 215.5 -111c63.333 0 116 24.333 158 73c36.667 42 61.334 79.333 74.001 112l9 22l104 -50
c-23.333 -64.667 -61.666 -123.334 -114.999 -176.001c-24 -23.333 -56.667 -44.666 -98 -63.999s-85.333 -29 -132 -29c-145.333 0 -252.5 46.5 -321.5 139.5s-103.5 223.5 -103.5 391.5z" />
    <glyph glyph-name="Ccircumflex" unicode="&#x108;" horiz-adv-x="1174" 
d="M396 1719l222 222l222 -222l-66 -64l-156 156l-157 -157zM88.5 600c-5.66699 52 -8.49805 110.499 -8.49805 175.499s5.83301 133.333 17.5 205s31.167 141.334 58.5 209.001s61.333 126.5 102 176.5s91.834 90.167 153.501 120.5s124.5 45.5 188.5 45.5
s118.5 -8.16699 163.5 -24.5s82.833 -37.5 113.5 -63.5s58.667 -54.833 84 -86.5s45.333 -63.5 60 -95.5c30.667 -66 49.667 -116 57 -150l6 -24v-1l-152 -41c-10.667 76 -24.167 131.5 -40.5 166.5s-32.666 63.667 -48.999 86s-34.5 41.166 -54.5 56.499
c-47.333 35.333 -104 53 -170 53c-260 0 -390 -216.333 -390 -649c0 -185.333 27.333 -336.666 82 -453.999c62 -131.333 164.667 -197 308 -197c117.333 0 208.666 46 273.999 138c45.333 64.667 68 137 68 217l146 -23c-2.66699 -7.33301 -8.83398 -25.333 -18.501 -54
s-17.834 -52 -24.501 -70s-17.5 -42.5 -32.5 -73.5s-30 -56.833 -45 -77.5s-35 -43.5 -60 -68.5s-51.5 -44.833 -79.5 -59.5c-67.333 -35.333 -136.333 -53 -207 -53s-130.167 8 -178.5 24s-90.5 37.833 -126.5 65.5s-68.5 61 -97.5 100s-53.167 81 -72.5 126
s-35.333 93.333 -48 145s-21.834 103.5 -27.501 155.5z" />
    <glyph glyph-name="ccircumflex" unicode="&#x109;" horiz-adv-x="926" 
d="M278 1253l222 222l222 -222l-66 -64l-156 156l-157 -157zM75 520c0 364 141.668 545.999 425.001 545.999c70 0 129 -16.667 177 -50c47.333 -33.333 78.666 -63.333 93.999 -90c26.667 -45.333 45 -83 55 -113l-106 -48c-1.33301 13.333 -8.5 33 -21.5 59
s-26.833 47.333 -41.5 64s-35.834 31.834 -63.501 45.501s-58.834 20.5 -93.501 20.5c-195.333 0 -293 -141.667 -293 -425c0 -137.333 25.833 -243 77.5 -317s123.5 -111 215.5 -111c63.333 0 116 24.333 158 73c36.667 42 61.334 79.333 74.001 112l9 22l104 -50
c-23.333 -64.667 -61.666 -123.334 -114.999 -176.001c-24 -23.333 -56.667 -44.666 -98 -63.999s-85.333 -29 -132 -29c-145.333 0 -252.5 46.5 -321.5 139.5s-103.5 223.5 -103.5 391.5z" />
    <glyph glyph-name="Cdotaccent" unicode="&#x10a;" horiz-adv-x="1174" 
d="M543 1654v150h150v-150h-150zM88.5 600c-5.66699 52 -8.49805 110.499 -8.49805 175.499s5.83301 133.333 17.5 205s31.167 141.334 58.5 209.001s61.333 126.5 102 176.5s91.834 90.167 153.501 120.5s124.5 45.5 188.5 45.5s118.5 -8.16699 163.5 -24.5
s82.833 -37.5 113.5 -63.5s58.667 -54.833 84 -86.5s45.333 -63.5 60 -95.5c30.667 -66 49.667 -116 57 -150l6 -24v-1l-152 -41c-10.667 76 -24.167 131.5 -40.5 166.5s-32.666 63.667 -48.999 86s-34.5 41.166 -54.5 56.499c-47.333 35.333 -104 53 -170 53
c-260 0 -390 -216.333 -390 -649c0 -185.333 27.333 -336.666 82 -453.999c62 -131.333 164.667 -197 308 -197c117.333 0 208.666 46 273.999 138c45.333 64.667 68 137 68 217l146 -23c-2.66699 -7.33301 -8.83398 -25.333 -18.501 -54s-17.834 -52 -24.501 -70
s-17.5 -42.5 -32.5 -73.5s-30 -56.833 -45 -77.5s-35 -43.5 -60 -68.5s-51.5 -44.833 -79.5 -59.5c-67.333 -35.333 -136.333 -53 -207 -53s-130.167 8 -178.5 24s-90.5 37.833 -126.5 65.5s-68.5 61 -97.5 100s-53.167 81 -72.5 126s-35.333 93.333 -48 145
s-21.834 103.5 -27.501 155.5z" />
    <glyph glyph-name="cdotaccent" unicode="&#x10b;" horiz-adv-x="926" 
d="M425 1188v150h150v-150h-150zM75 520c0 364 141.668 545.999 425.001 545.999c70 0 129 -16.667 177 -50c47.333 -33.333 78.666 -63.333 93.999 -90c26.667 -45.333 45 -83 55 -113l-106 -48c-1.33301 13.333 -8.5 33 -21.5 59s-26.833 47.333 -41.5 64
s-35.834 31.834 -63.501 45.501s-58.834 20.5 -93.501 20.5c-195.333 0 -293 -141.667 -293 -425c0 -137.333 25.833 -243 77.5 -317s123.5 -111 215.5 -111c63.333 0 116 24.333 158 73c36.667 42 61.334 79.333 74.001 112l9 22l104 -50
c-23.333 -64.667 -61.666 -123.334 -114.999 -176.001c-24 -23.333 -56.667 -44.666 -98 -63.999s-85.333 -29 -132 -29c-145.333 0 -252.5 46.5 -321.5 139.5s-103.5 223.5 -103.5 391.5z" />
    <glyph glyph-name="Ccaron" unicode="&#x10c;" horiz-adv-x="1174" 
d="M396 1876l65 65l157 -157l156 156l66 -64l-222 -222zM88.5 600c-5.66699 52 -8.49805 110.499 -8.49805 175.499s5.83301 133.333 17.5 205s31.167 141.334 58.5 209.001s61.333 126.5 102 176.5s91.834 90.167 153.501 120.5s124.5 45.5 188.5 45.5
s118.5 -8.16699 163.5 -24.5s82.833 -37.5 113.5 -63.5s58.667 -54.833 84 -86.5s45.333 -63.5 60 -95.5c30.667 -66 49.667 -116 57 -150l6 -24v-1l-152 -41c-10.667 76 -24.167 131.5 -40.5 166.5s-32.666 63.667 -48.999 86s-34.5 41.166 -54.5 56.499
c-47.333 35.333 -104 53 -170 53c-260 0 -390 -216.333 -390 -649c0 -185.333 27.333 -336.666 82 -453.999c62 -131.333 164.667 -197 308 -197c117.333 0 208.666 46 273.999 138c45.333 64.667 68 137 68 217l146 -23c-2.66699 -7.33301 -8.83398 -25.333 -18.501 -54
s-17.834 -52 -24.501 -70s-17.5 -42.5 -32.5 -73.5s-30 -56.833 -45 -77.5s-35 -43.5 -60 -68.5s-51.5 -44.833 -79.5 -59.5c-67.333 -35.333 -136.333 -53 -207 -53s-130.167 8 -178.5 24s-90.5 37.833 -126.5 65.5s-68.5 61 -97.5 100s-53.167 81 -72.5 126
s-35.333 93.333 -48 145s-21.834 103.5 -27.501 155.5z" />
    <glyph glyph-name="ccaron" unicode="&#x10d;" horiz-adv-x="926" 
d="M278 1410l65 65l157 -157l156 156l66 -64l-222 -222zM75 520c0 364 141.668 545.999 425.001 545.999c70 0 129 -16.667 177 -50c47.333 -33.333 78.666 -63.333 93.999 -90c26.667 -45.333 45 -83 55 -113l-106 -48c-1.33301 13.333 -8.5 33 -21.5 59
s-26.833 47.333 -41.5 64s-35.834 31.834 -63.501 45.501s-58.834 20.5 -93.501 20.5c-195.333 0 -293 -141.667 -293 -425c0 -137.333 25.833 -243 77.5 -317s123.5 -111 215.5 -111c63.333 0 116 24.333 158 73c36.667 42 61.334 79.333 74.001 112l9 22l104 -50
c-23.333 -64.667 -61.666 -123.334 -114.999 -176.001c-24 -23.333 -56.667 -44.666 -98 -63.999s-85.333 -29 -132 -29c-145.333 0 -252.5 46.5 -321.5 139.5s-103.5 223.5 -103.5 391.5z" />
    <glyph glyph-name="Dcaron" unicode="&#x10e;" horiz-adv-x="1214" 
d="M310 1876l65 65l157 -157l156 156l66 -64l-222 -222zM135 0l-0.000976562 1515h361c334.667 0 539.334 -148.667 614.001 -446c24 -96 36 -194 36 -294s-7 -185.333 -21 -256s-37.167 -138.167 -69.5 -202.5s-72.833 -119.5 -121.5 -165.5
c-107.333 -100.667 -253.333 -151 -438 -151h-361zM282.999 124h213c218 0 366 93 444 279c38.667 93.333 58 207.333 58 342c0 239.333 -46 410 -138 512c-36 39.333 -84.833 71.5 -146.5 96.5s-134.167 37.5 -217.5 37.5h-213v-1267z" />
    <glyph glyph-name="dcaron" unicode="&#x10f;" horiz-adv-x="1345" 
d="M977 1114l87 250h-65v150h150v-150c-18 -38 -43.333 -88.667 -76 -152s-50 -96 -52 -98h-44zM742 166c-68 -118 -162.667 -177 -284 -177c-60.667 0 -116 15.167 -166 45.5s-90.333 70.5 -121 120.5c-64 104.667 -96 223 -96 355c0 98 15.833 189 47.5 273
s78.167 152.167 139.5 204.5s126.833 78.5 196.5 78.5s131.167 -18 184.5 -54s86.333 -67.667 99 -95v598h132v-1369c0 -20 2.83301 -46.167 8.5 -78.5s11.5 -54.833 17.5 -67.5h-133c-16.667 8 -25 63.333 -25 166zM207 510c0 -118 20.999 -214.667 62.999 -290
c44 -79.333 113.667 -119 209 -119c63.333 0 115.333 18 156 54c32.667 28.667 68.334 69.667 107.001 123v525c-70.667 100.667 -149.667 151 -237 151c-198.667 0 -298 -148 -298 -444z" />
    <glyph glyph-name="Dcroat" unicode="&#x110;" horiz-adv-x="1224" 
d="M9 676v136h128v703h361c103.333 0 194.333 -14.333 273 -43s142 -66.5 190 -113.5s87 -104.5 117 -172.5c52 -118.667 78 -265.667 78 -441c0 -262.667 -72.667 -461 -218 -595c-107.333 -100 -254 -150 -440 -150h-361v676h-128zM285 124l212.999 0.000976562
c170.667 0 299.334 57.333 386.001 172c82.667 110 124 259.667 124 449c0 289.333 -73.333 480.666 -220 573.999c-75.333 48 -172 72 -290 72h-213v-579h324v-136h-324v-552z" />
    <glyph glyph-name="dcroat" unicode="&#x111;" horiz-adv-x="984" 
d="M207 510c0 -118 20.999 -214.667 62.999 -290c44 -79.333 113.667 -119 209 -119c63.333 0 115.333 18 156 54c32.667 28.667 68.334 69.667 107.001 123v525c-70.667 100.667 -149.667 151 -237 151c-198.667 0 -298 -148 -298 -444zM741.999 166
c-68 -118 -162.667 -177 -284 -177c-60.667 0 -116 15.167 -166 45.5s-90.333 70.5 -121 120.5c-64 104.667 -96 223 -96 355c0 98 15.833 189 47.5 273s78.167 152.167 139.5 204.5s126.833 78.5 196.5 78.5s131.167 -18 184.5 -54s86.333 -67.667 99 -95v250h-300v112h300
v236h132v-236h88v-112h-88v-1021c0 -20 2.83301 -46.167 8.5 -78.5s11.5 -54.833 17.5 -67.5h-133c-16.667 8 -25 63.333 -25 166z" />
    <glyph glyph-name="Emacron" unicode="&#x112;" horiz-adv-x="1062" 
d="M282 1654v92h527v-92h-527zM135 0v1515h821v-124h-673v-533h483v-124h-483v-601h711v-133h-859z" />
    <glyph glyph-name="emacron" unicode="&#x113;" horiz-adv-x="925" 
d="M212 1188v92h527v-92h-527zM100.5 311c-17 60 -25.498 123.002 -25.498 189.002s4.66699 126.167 14 180.5s21.666 100.5 36.999 138.5s34 71.833 56 101.5s44.667 53.5 68 71.5s48.666 32.667 75.999 44c47.333 20 92.333 30 135 30s79 -3.83301 109 -11.5
s62.167 -23.334 96.5 -47.001s63.833 -54.834 88.5 -93.501c57.333 -90.667 86 -224.334 86 -401.001h-634c0 -178 45 -299.333 135 -364c44.667 -32 94.334 -48 149.001 -48c102.667 0 190 63.667 262 191l91 -63c-26 -48 -60 -91.333 -102 -130
c-80 -73.333 -159 -110 -237 -110s-144.333 14.333 -199 43s-98.334 67.334 -131.001 116.001s-57.5 103 -74.5 163zM213.002 625.002l496 0.00195312c0 99.333 -23 181.666 -69 246.999c-38.667 54.667 -93.667 82 -165 82c-116.667 0 -194.667 -54 -234 -162
c-18.667 -50.667 -28 -106.334 -28 -167.001z" />
    <glyph glyph-name="Ebreve" unicode="&#x114;" horiz-adv-x="1062" 
d="M751 1789c-43.333 -90 -112 -135 -206 -135s-162.667 45 -206 135l69 40c12 -28 31 -51 57 -69s52.667 -27 80 -27s54 9 80 27s45 41 57 69zM135 0v1515h821v-124h-673v-533h483v-124h-483v-601h711v-133h-859z" />
    <glyph glyph-name="ebreve" unicode="&#x115;" horiz-adv-x="925" 
d="M681 1323c-43.333 -90 -112 -135 -206 -135s-162.667 45 -206 135l69 40c12 -28 31 -51 57 -69s52.667 -27 80 -27s54 9 80 27s45 41 57 69zM100.5 311c-17 60 -25.498 123.002 -25.498 189.002s4.66699 126.167 14 180.5s21.666 100.5 36.999 138.5s34 71.833 56 101.5
s44.667 53.5 68 71.5s48.666 32.667 75.999 44c47.333 20 92.333 30 135 30s79 -3.83301 109 -11.5s62.167 -23.334 96.5 -47.001s63.833 -54.834 88.5 -93.501c57.333 -90.667 86 -224.334 86 -401.001h-634c0 -178 45 -299.333 135 -364
c44.667 -32 94.334 -48 149.001 -48c102.667 0 190 63.667 262 191l91 -63c-26 -48 -60 -91.333 -102 -130c-80 -73.333 -159 -110 -237 -110s-144.333 14.333 -199 43s-98.334 67.334 -131.001 116.001s-57.5 103 -74.5 163zM213.002 625.002l496 0.00195312
c0 99.333 -23 181.666 -69 246.999c-38.667 54.667 -93.667 82 -165 82c-116.667 0 -194.667 -54 -234 -162c-18.667 -50.667 -28 -106.334 -28 -167.001z" />
    <glyph glyph-name="Edotaccent" unicode="&#x116;" horiz-adv-x="1062" 
d="M471 1654v150h150v-150h-150zM135 0v1515h821v-124h-673v-533h483v-124h-483v-601h711v-133h-859z" />
    <glyph glyph-name="edotaccent" unicode="&#x117;" horiz-adv-x="925" 
d="M400 1188v150h150v-150h-150zM100.5 311c-17 60 -25.498 123.002 -25.498 189.002s4.66699 126.167 14 180.5s21.666 100.5 36.999 138.5s34 71.833 56 101.5s44.667 53.5 68 71.5s48.666 32.667 75.999 44c47.333 20 92.333 30 135 30s79 -3.83301 109 -11.5
s62.167 -23.334 96.5 -47.001s63.833 -54.834 88.5 -93.501c57.333 -90.667 86 -224.334 86 -401.001h-634c0 -178 45 -299.333 135 -364c44.667 -32 94.334 -48 149.001 -48c102.667 0 190 63.667 262 191l91 -63c-26 -48 -60 -91.333 -102 -130
c-80 -73.333 -159 -110 -237 -110s-144.333 14.333 -199 43s-98.334 67.334 -131.001 116.001s-57.5 103 -74.5 163zM213.002 625.002l496 0.00195312c0 99.333 -23 181.666 -69 246.999c-38.667 54.667 -93.667 82 -165 82c-116.667 0 -194.667 -54 -234 -162
c-18.667 -50.667 -28 -106.334 -28 -167.001z" />
    <glyph glyph-name="Eogonek" unicode="&#x118;" horiz-adv-x="1062" 
d="M958 -303c-136.667 0 -205.001 38.332 -205.001 114.999c0 60.667 22 123.334 66 188.001h-684v1515h821v-124h-673v-533h483v-124h-483v-601h711v-133h-78c-46.667 -60 -70 -113.667 -70 -161c0 -24 38.667 -39 116 -45c12.667 -1.33301 23.334 -2 32.001 -2v-94z" />
    <glyph glyph-name="eogonek" unicode="&#x119;" horiz-adv-x="925" 
d="M574 -314c-136.667 0 -204.999 38.335 -204.999 115.002c0 62 23 126 69 192c-50 6 -94 19 -132 39c-54.667 28.667 -98.334 67.334 -131.001 116.001s-57.5 103 -74.5 163s-25.5 123 -25.5 189s4.66699 126.167 14 180.5s21.666 100.5 36.999 138.5s34 71.833 56 101.5
s44.667 53.5 68 71.5s48.666 32.667 75.999 44c47.333 20 92.333 30 135 30s79 -3.83301 109 -11.5s62.167 -23.334 96.5 -47.001s63.833 -54.834 88.5 -93.501c57.333 -90.667 86 -224.334 86 -401.001h-634c0 -178 45 -299.333 135 -364
c44.667 -32 94.334 -48 149.001 -48c102.667 0 190 63.667 262 191l91 -63c-26 -48 -60 -91.333 -102 -130c-70 -64.667 -139.667 -100.667 -209 -108c-47.333 -60.667 -71 -115 -71 -163c0 -24 38.667 -39.333 116 -46c12.667 -0.666992 23.334 -1 32.001 -1v-94z
M213.001 625.002l496 0.00195312c0 99.333 -23 181.666 -69 246.999c-38.667 54.667 -93.667 82 -165 82c-116.667 0 -194.667 -54 -234 -162c-18.667 -50.667 -28 -106.334 -28 -167.001z" />
    <glyph glyph-name="Ecaron" unicode="&#x11a;" horiz-adv-x="1062" 
d="M324 1876l65 65l157 -157l156 156l66 -64l-222 -222zM135 0v1515h821v-124h-673v-533h483v-124h-483v-601h711v-133h-859z" />
    <glyph glyph-name="ecaron" unicode="&#x11b;" horiz-adv-x="925" 
d="M253 1410l65 65l157 -157l156 156l66 -64l-222 -222zM100.5 311c-17 60 -25.498 123.002 -25.498 189.002s4.66699 126.167 14 180.5s21.666 100.5 36.999 138.5s34 71.833 56 101.5s44.667 53.5 68 71.5s48.666 32.667 75.999 44c47.333 20 92.333 30 135 30
s79 -3.83301 109 -11.5s62.167 -23.334 96.5 -47.001s63.833 -54.834 88.5 -93.501c57.333 -90.667 86 -224.334 86 -401.001h-634c0 -178 45 -299.333 135 -364c44.667 -32 94.334 -48 149.001 -48c102.667 0 190 63.667 262 191l91 -63c-26 -48 -60 -91.333 -102 -130
c-80 -73.333 -159 -110 -237 -110s-144.333 14.333 -199 43s-98.334 67.334 -131.001 116.001s-57.5 103 -74.5 163zM213.002 625.002l496 0.00195312c0 99.333 -23 181.666 -69 246.999c-38.667 54.667 -93.667 82 -165 82c-116.667 0 -194.667 -54 -234 -162
c-18.667 -50.667 -28 -106.334 -28 -167.001z" />
    <glyph glyph-name="Gcircumflex" unicode="&#x11c;" horiz-adv-x="1246" 
d="M414 1719l222 222l222 -222l-66 -64l-156 156l-157 -157zM98.5 542c-12.333 72.667 -18.5 144.167 -18.5 214.5s4.66699 135.833 14 196.5s23.333 119.667 42 177s43.5 110.166 74.5 158.499s66.167 90.833 105.5 127.5c85.333 77.333 192 116 320 116
c94 0 182.333 -28.333 265 -85c96.667 -66 167 -182 211 -348l-145 -36c-0.666992 4.66699 -1.5 11.167 -2.5 19.5s-4.66699 24.5 -11 48.5s-13.833 46.833 -22.5 68.5s-21.834 45.667 -39.501 72s-37.5 49.166 -59.5 68.499c-50.667 45.333 -114.667 68 -192 68
s-143.333 -18 -198 -54s-97 -85.333 -127 -148c-58 -120 -87 -266 -87 -438c0 -205.333 26.667 -358.666 80 -459.999c70 -133.333 180.333 -200 331 -200c187.333 0 295.666 108 324.999 324c6 46.667 9 99.667 9 159h-337v124h482v-715h-120v192
c-75.333 -104 -155 -168 -239 -192c-37.333 -10.667 -86.666 -16 -147.999 -16s-123.833 15.333 -187.5 46s-116.5 71.334 -158.5 122.001s-77.167 110.167 -105.5 178.5s-48.666 138.833 -60.999 211.5z" />
    <glyph glyph-name="gcircumflex" unicode="&#x11d;" horiz-adv-x="1005" 
d="M295 1246l222 222l222 -222l-66 -64l-156 156l-157 -157zM82.5 -297.5c-27 37 -40.5 73.502 -40.5 109.502s5 64 15 84s25.167 38 45.5 54s38 28.833 53 38.5s35.5 21 61.5 34s41.667 21.167 47 24.5c-54.667 11.333 -96 31.333 -124 60s-42 54.834 -42 78.501
s4.5 45.167 13.5 64.5s22.5 37.333 40.5 54c29.333 26 53.666 45 72.999 57s30 18.667 32 20c-40 34 -75.167 78.5 -105.5 133.5s-45.5 115.333 -45.5 181s18.167 127.5 54.5 185.5s85 103.333 146 136s120.167 49 177.5 49s103.5 -7 138.5 -21s72.5 -34.667 112.5 -62
c50.667 41.333 92 65 124 71c41.333 8.66699 79.333 13.334 114 14.001v-120h-2c-114 0 -171 -10.333 -171 -31c34 -62.667 55.167 -108.834 63.5 -138.501s12.5 -59.5 12.5 -89.5c0 -107.333 -34.5 -198.166 -103.5 -272.499s-158.5 -111.5 -268.5 -111.5
c-58 0 -117.333 12.667 -178 38c-5.33301 -4.66699 -17.333 -13.667 -36 -27c-40 -28 -60 -56 -60 -84c0 -30.667 14 -51.667 42 -63c21.333 -8.66699 47.833 -15.334 79.5 -20.001s54 -7.83398 67 -9.50098s34.833 -2.83398 65.5 -3.50098
c74.667 -0.666992 163.334 -13.334 266.001 -38.001c64.667 -15.333 117.5 -46 158.5 -92s61.5 -101 61.5 -165c0 -190.667 -159.667 -286 -479 -286c-112.667 0 -213 20.333 -301 61c-44.667 20.667 -80.5 49.5 -107.5 86.5zM174 -168.998
c0 -65.333 35.333 -109.664 106 -132.997c60.667 -20.667 117.5 -31 170.5 -31s88.167 0.166992 105.5 0.5s39.666 1.66602 66.999 3.99902s49.666 5.66602 66.999 9.99902s36.333 10.833 57 19.5s37 19 49 31c28 28 42 62 42 102s-13.333 71.833 -40 95.5
s-60.5 40.5 -101.5 50.5s-81.5 17.167 -121.5 21.5s-78.167 7.33301 -114.5 9s-58.166 3.5 -65.499 5.5c-71.333 -26.667 -117.666 -46.334 -138.999 -59.001c-54.667 -32 -82 -74 -82 -126zM238 689.004c0 -78 23.333 -142.833 70 -194.5s110.167 -77.5 190.5 -77.5
s141.333 26.333 183 79s62.5 116.667 62.5 192s-20.5 138.5 -61.5 189.5s-100.5 76.5 -178.5 76.5s-141.833 -24.667 -191.5 -74s-74.5 -113 -74.5 -191z" />
    <glyph glyph-name="Gbreve" unicode="&#x11e;" horiz-adv-x="1246" 
d="M842 1789c-43.333 -90 -112 -135 -206 -135s-162.667 45 -206 135l69 40c12 -28 31 -51 57 -69s52.667 -27 80 -27s54 9 80 27s45 41 57 69zM98.5 542c-12.333 72.667 -18.5 144.167 -18.5 214.5s4.66699 135.833 14 196.5s23.333 119.667 42 177
s43.5 110.166 74.5 158.499s66.167 90.833 105.5 127.5c85.333 77.333 192 116 320 116c94 0 182.333 -28.333 265 -85c96.667 -66 167 -182 211 -348l-145 -36c-0.666992 4.66699 -1.5 11.167 -2.5 19.5s-4.66699 24.5 -11 48.5s-13.833 46.833 -22.5 68.5
s-21.834 45.667 -39.501 72s-37.5 49.166 -59.5 68.499c-50.667 45.333 -114.667 68 -192 68s-143.333 -18 -198 -54s-97 -85.333 -127 -148c-58 -120 -87 -266 -87 -438c0 -205.333 26.667 -358.666 80 -459.999c70 -133.333 180.333 -200 331 -200
c187.333 0 295.666 108 324.999 324c6 46.667 9 99.667 9 159h-337v124h482v-715h-120v192c-75.333 -104 -155 -168 -239 -192c-37.333 -10.667 -86.666 -16 -147.999 -16s-123.833 15.333 -187.5 46s-116.5 71.334 -158.5 122.001s-77.167 110.167 -105.5 178.5
s-48.666 138.833 -60.999 211.5z" />
    <glyph glyph-name="gbreve" unicode="&#x11f;" horiz-adv-x="1005" 
d="M717 1325c-43.333 -90 -112 -135 -206 -135s-162.667 45 -206 135l69 40c12 -28 31 -51 57 -69s52.667 -27 80 -27s54 9 80 27s45 41 57 69zM82.5 -297.5c-27 37 -40.5 73.502 -40.5 109.502s5 64 15 84s25.167 38 45.5 54s38 28.833 53 38.5s35.5 21 61.5 34
s41.667 21.167 47 24.5c-54.667 11.333 -96 31.333 -124 60s-42 54.834 -42 78.501s4.5 45.167 13.5 64.5s22.5 37.333 40.5 54c29.333 26 53.666 45 72.999 57s30 18.667 32 20c-40 34 -75.167 78.5 -105.5 133.5s-45.5 115.333 -45.5 181s18.167 127.5 54.5 185.5
s85 103.333 146 136s120.167 49 177.5 49s103.5 -7 138.5 -21s72.5 -34.667 112.5 -62c50.667 41.333 92 65 124 71c41.333 8.66699 79.333 13.334 114 14.001v-120h-2c-114 0 -171 -10.333 -171 -31c34 -62.667 55.167 -108.834 63.5 -138.501s12.5 -59.5 12.5 -89.5
c0 -107.333 -34.5 -198.166 -103.5 -272.499s-158.5 -111.5 -268.5 -111.5c-58 0 -117.333 12.667 -178 38c-5.33301 -4.66699 -17.333 -13.667 -36 -27c-40 -28 -60 -56 -60 -84c0 -30.667 14 -51.667 42 -63c21.333 -8.66699 47.833 -15.334 79.5 -20.001
s54 -7.83398 67 -9.50098s34.833 -2.83398 65.5 -3.50098c74.667 -0.666992 163.334 -13.334 266.001 -38.001c64.667 -15.333 117.5 -46 158.5 -92s61.5 -101 61.5 -165c0 -190.667 -159.667 -286 -479 -286c-112.667 0 -213 20.333 -301 61
c-44.667 20.667 -80.5 49.5 -107.5 86.5zM174 -168.998c0 -65.333 35.333 -109.664 106 -132.997c60.667 -20.667 117.5 -31 170.5 -31s88.167 0.166992 105.5 0.5s39.666 1.66602 66.999 3.99902s49.666 5.66602 66.999 9.99902s36.333 10.833 57 19.5s37 19 49 31
c28 28 42 62 42 102s-13.333 71.833 -40 95.5s-60.5 40.5 -101.5 50.5s-81.5 17.167 -121.5 21.5s-78.167 7.33301 -114.5 9s-58.166 3.5 -65.499 5.5c-71.333 -26.667 -117.666 -46.334 -138.999 -59.001c-54.667 -32 -82 -74 -82 -126zM238 689.004
c0 -78 23.333 -142.833 70 -194.5s110.167 -77.5 190.5 -77.5s141.333 26.333 183 79s62.5 116.667 62.5 192s-20.5 138.5 -61.5 189.5s-100.5 76.5 -178.5 76.5s-141.833 -24.667 -191.5 -74s-74.5 -113 -74.5 -191z" />
    <glyph glyph-name="Gdotaccent" unicode="&#x120;" horiz-adv-x="1246" 
d="M561 1654v150h150v-150h-150zM98.5 542c-12.333 72.667 -18.5 144.167 -18.5 214.5s4.66699 135.833 14 196.5s23.333 119.667 42 177s43.5 110.166 74.5 158.499s66.167 90.833 105.5 127.5c85.333 77.333 192 116 320 116c94 0 182.333 -28.333 265 -85
c96.667 -66 167 -182 211 -348l-145 -36c-0.666992 4.66699 -1.5 11.167 -2.5 19.5s-4.66699 24.5 -11 48.5s-13.833 46.833 -22.5 68.5s-21.834 45.667 -39.501 72s-37.5 49.166 -59.5 68.499c-50.667 45.333 -114.667 68 -192 68s-143.333 -18 -198 -54
s-97 -85.333 -127 -148c-58 -120 -87 -266 -87 -438c0 -205.333 26.667 -358.666 80 -459.999c70 -133.333 180.333 -200 331 -200c187.333 0 295.666 108 324.999 324c6 46.667 9 99.667 9 159h-337v124h482v-715h-120v192c-75.333 -104 -155 -168 -239 -192
c-37.333 -10.667 -86.666 -16 -147.999 -16s-123.833 15.333 -187.5 46s-116.5 71.334 -158.5 122.001s-77.167 110.167 -105.5 178.5s-48.666 138.833 -60.999 211.5z" />
    <glyph glyph-name="gdotaccent" unicode="&#x121;" horiz-adv-x="1005" 
d="M433 1190v150h150v-150h-150zM82.5 -297.5c-27 37 -40.5 73.502 -40.5 109.502s5 64 15 84s25.167 38 45.5 54s38 28.833 53 38.5s35.5 21 61.5 34s41.667 21.167 47 24.5c-54.667 11.333 -96 31.333 -124 60s-42 54.834 -42 78.501s4.5 45.167 13.5 64.5
s22.5 37.333 40.5 54c29.333 26 53.666 45 72.999 57s30 18.667 32 20c-40 34 -75.167 78.5 -105.5 133.5s-45.5 115.333 -45.5 181s18.167 127.5 54.5 185.5s85 103.333 146 136s120.167 49 177.5 49s103.5 -7 138.5 -21s72.5 -34.667 112.5 -62
c50.667 41.333 92 65 124 71c41.333 8.66699 79.333 13.334 114 14.001v-120h-2c-114 0 -171 -10.333 -171 -31c34 -62.667 55.167 -108.834 63.5 -138.501s12.5 -59.5 12.5 -89.5c0 -107.333 -34.5 -198.166 -103.5 -272.499s-158.5 -111.5 -268.5 -111.5
c-58 0 -117.333 12.667 -178 38c-5.33301 -4.66699 -17.333 -13.667 -36 -27c-40 -28 -60 -56 -60 -84c0 -30.667 14 -51.667 42 -63c21.333 -8.66699 47.833 -15.334 79.5 -20.001s54 -7.83398 67 -9.50098s34.833 -2.83398 65.5 -3.50098
c74.667 -0.666992 163.334 -13.334 266.001 -38.001c64.667 -15.333 117.5 -46 158.5 -92s61.5 -101 61.5 -165c0 -190.667 -159.667 -286 -479 -286c-112.667 0 -213 20.333 -301 61c-44.667 20.667 -80.5 49.5 -107.5 86.5zM174 -168.998
c0 -65.333 35.333 -109.664 106 -132.997c60.667 -20.667 117.5 -31 170.5 -31s88.167 0.166992 105.5 0.5s39.666 1.66602 66.999 3.99902s49.666 5.66602 66.999 9.99902s36.333 10.833 57 19.5s37 19 49 31c28 28 42 62 42 102s-13.333 71.833 -40 95.5
s-60.5 40.5 -101.5 50.5s-81.5 17.167 -121.5 21.5s-78.167 7.33301 -114.5 9s-58.166 3.5 -65.499 5.5c-71.333 -26.667 -117.666 -46.334 -138.999 -59.001c-54.667 -32 -82 -74 -82 -126zM238 689.004c0 -78 23.333 -142.833 70 -194.5s110.167 -77.5 190.5 -77.5
s141.333 26.333 183 79s62.5 116.667 62.5 192s-20.5 138.5 -61.5 189.5s-100.5 76.5 -178.5 76.5s-141.833 -24.667 -191.5 -74s-74.5 -113 -74.5 -191z" />
    <glyph glyph-name="Gcommaaccent" unicode="&#x122;" horiz-adv-x="1246" 
d="M550 -538l87 250h-65v150h150v-150c-18 -38 -43.333 -88.667 -76 -152s-50 -96 -52 -98h-44zM98.5 542c-12.333 72.667 -18.5 144.167 -18.5 214.5s4.66699 135.833 14 196.5s23.333 119.667 42 177s43.5 110.166 74.5 158.499s66.167 90.833 105.5 127.5
c85.333 77.333 192 116 320 116c94 0 182.333 -28.333 265 -85c96.667 -66 167 -182 211 -348l-145 -36c-0.666992 4.66699 -1.5 11.167 -2.5 19.5s-4.66699 24.5 -11 48.5s-13.833 46.833 -22.5 68.5s-21.834 45.667 -39.501 72s-37.5 49.166 -59.5 68.499
c-50.667 45.333 -114.667 68 -192 68s-143.333 -18 -198 -54s-97 -85.333 -127 -148c-58 -120 -87 -266 -87 -438c0 -205.333 26.667 -358.666 80 -459.999c70 -133.333 180.333 -200 331 -200c187.333 0 295.666 108 324.999 324c6 46.667 9 99.667 9 159h-337v124h482
v-715h-120v192c-75.333 -104 -155 -168 -239 -192c-37.333 -10.667 -86.666 -16 -147.999 -16s-123.833 15.333 -187.5 46s-116.5 71.334 -158.5 122.001s-77.167 110.167 -105.5 178.5s-48.666 138.833 -60.999 211.5z" />
    <glyph glyph-name="gcommaaccent" unicode="&#x123;" horiz-adv-x="1005" 
d="M475 1115l87 250h-65v150h150v-150c-18 -38 -43.333 -88.667 -76 -152s-50 -96 -52 -98h-44zM82.5 -297.5c-27 37 -40.5 73.502 -40.5 109.502s5 64 15 84s25.167 38 45.5 54s38 28.833 53 38.5s35.5 21 61.5 34s41.667 21.167 47 24.5
c-54.667 11.333 -96 31.333 -124 60s-42 54.834 -42 78.501s4.5 45.167 13.5 64.5s22.5 37.333 40.5 54c29.333 26 53.666 45 72.999 57s30 18.667 32 20c-40 34 -75.167 78.5 -105.5 133.5s-45.5 115.333 -45.5 181s18.167 127.5 54.5 185.5s85 103.333 146 136
s120.167 49 177.5 49s103.5 -7 138.5 -21s72.5 -34.667 112.5 -62c50.667 41.333 92 65 124 71c41.333 8.66699 79.333 13.334 114 14.001v-120h-2c-114 0 -171 -10.333 -171 -31c34 -62.667 55.167 -108.834 63.5 -138.501s12.5 -59.5 12.5 -89.5
c0 -107.333 -34.5 -198.166 -103.5 -272.499s-158.5 -111.5 -268.5 -111.5c-58 0 -117.333 12.667 -178 38c-5.33301 -4.66699 -17.333 -13.667 -36 -27c-40 -28 -60 -56 -60 -84c0 -30.667 14 -51.667 42 -63c21.333 -8.66699 47.833 -15.334 79.5 -20.001
s54 -7.83398 67 -9.50098s34.833 -2.83398 65.5 -3.50098c74.667 -0.666992 163.334 -13.334 266.001 -38.001c64.667 -15.333 117.5 -46 158.5 -92s61.5 -101 61.5 -165c0 -190.667 -159.667 -286 -479 -286c-112.667 0 -213 20.333 -301 61
c-44.667 20.667 -80.5 49.5 -107.5 86.5zM174 -168.998c0 -65.333 35.333 -109.664 106 -132.997c60.667 -20.667 117.5 -31 170.5 -31s88.167 0.166992 105.5 0.5s39.666 1.66602 66.999 3.99902s49.666 5.66602 66.999 9.99902s36.333 10.833 57 19.5s37 19 49 31
c28 28 42 62 42 102s-13.333 71.833 -40 95.5s-60.5 40.5 -101.5 50.5s-81.5 17.167 -121.5 21.5s-78.167 7.33301 -114.5 9s-58.166 3.5 -65.499 5.5c-71.333 -26.667 -117.666 -46.334 -138.999 -59.001c-54.667 -32 -82 -74 -82 -126zM238 689.004
c0 -78 23.333 -142.833 70 -194.5s110.167 -77.5 190.5 -77.5s141.333 26.333 183 79s62.5 116.667 62.5 192s-20.5 138.5 -61.5 189.5s-100.5 76.5 -178.5 76.5s-141.833 -24.667 -191.5 -74s-74.5 -113 -74.5 -191z" />
    <glyph glyph-name="Hcircumflex" unicode="&#x124;" horiz-adv-x="1254" 
d="M405 1719l222 222l222 -222l-66 -64l-156 156l-157 -157zM135 0v1515h148v-657h688v657h148v-1515h-148v734h-688v-734h-148z" />
    <glyph glyph-name="hcircumflex" unicode="&#x125;" horiz-adv-x="979" 
d="M277 1702l222 222l222 -222l-66 -64l-156 156l-157 -157zM129 0v1515h132v-633c98.667 94 179.667 150.667 243 170c32.667 9.33301 66.667 14 102 14c76.667 0 139.667 -23.333 189 -70s74 -116.667 74 -210v-786h-132v786c0 50 -17.833 90.5 -53.5 121.5
s-74.167 46.5 -115.5 46.5c-98.667 0 -201 -57.667 -307 -173v-781h-132z" />
    <glyph glyph-name="Hbar" unicode="&#x126;" horiz-adv-x="1254" 
d="M85 1050v124h50v341h148v-341h688v341h148v-341h50v-124h-50v-1050h-148v734h-688v-734h-148v1050h-50zM971 1050h-688v-192h688v192z" />
    <glyph glyph-name="hbar" unicode="&#x127;" horiz-adv-x="979" 
d="M22 1159v112h107v244h132v-244h285v-112h-285v-277c98.667 94 179.667 150.667 243 170c32.667 9.33301 66.667 14 102 14c76.667 0 139.667 -23.333 189 -70s74 -116.667 74 -210v-786h-132v786c0 50 -17.833 90.5 -53.5 121.5s-74.167 46.5 -115.5 46.5
c-98.667 0 -201 -57.667 -307 -173v-781h-132v1159h-107z" />
    <glyph glyph-name="Itilde" unicode="&#x128;" horiz-adv-x="418" 
d="M513 1807c-16.667 -48 -41.167 -86.001 -73.5 -114.001s-66.833 -42 -103.5 -42s-68.834 7.66699 -96.501 23s-53.667 30.5 -78 45.5s-47.833 22.5 -70.5 22.5h-10c-21.333 -2 -40.333 -10.667 -57 -26s-29 -34.666 -37 -57.999l-83 40c16.667 48 40 85 70 111
c34.667 30 68.834 45 102.501 45s62 -4.66699 85 -14s41.833 -19.666 56.5 -30.999c38 -30.667 74 -46 108 -46h10c21.333 2 40.333 10.667 57 26s29 34.666 37 57.999zM135 -0.000976562v1515h148v-1515h-148z" />
    <glyph glyph-name="itilde" unicode="&#x129;" horiz-adv-x="417" 
d="M499 1341c-16.667 -48 -41.167 -86.001 -73.5 -114.001s-66.833 -42 -103.5 -42s-68.834 7.66699 -96.501 23s-53.667 30.5 -78 45.5s-47.833 22.5 -70.5 22.5h-10c-21.333 -2 -40.333 -10.667 -57 -26s-29 -34.666 -37 -57.999l-83 40c16.667 48 40 85 70 111
c34.667 30 68.834 45 102.501 45s62 -4.66699 85 -14s41.833 -19.666 56.5 -30.999c38 -30.667 74 -46 108 -46h10c21.333 2 40.333 10.667 57 26s29 34.666 37 57.999zM129 -0.000976562v1055h132v-1055h-132z" />
    <glyph glyph-name="Imacron" unicode="&#x12a;" horiz-adv-x="418" 
d="M-54 1654v92h527v-92h-527zM135 0v1515h148v-1515h-148z" />
    <glyph glyph-name="imacron" unicode="&#x12b;" horiz-adv-x="417" 
d="M-68 1188v92h527v-92h-527zM129 0v1055h132v-1055h-132z" />
    <glyph glyph-name="Ibreve" unicode="&#x12c;" horiz-adv-x="418" 
d="M415 1789c-43.333 -90 -112 -135 -206 -135s-162.667 45 -206 135l69 40c12 -28 31 -51 57 -69s52.667 -27 80 -27s54 9 80 27s45 41 57 69zM135 0v1515h148v-1515h-148z" />
    <glyph glyph-name="ibreve" unicode="&#x12d;" horiz-adv-x="417" 
d="M401 1323c-43.333 -90 -112 -135 -206 -135s-162.667 45 -206 135l69 40c12 -28 31 -51 57 -69s52.667 -27 80 -27s54 9 80 27s45 41 57 69zM129 0v1055h132v-1055h-132z" />
    <glyph glyph-name="Iogonek" unicode="&#x12e;" horiz-adv-x="418" 
d="M292 -303c-136.667 0 -205.001 38.333 -205.001 115c0 64 24.333 130 73 198h98c-52 -64 -78 -121 -78 -171c0 -24 38.667 -39 116 -45c12.667 -1.33301 23.334 -2 32.001 -2v-94zM134.999 0v1515h148v-1515h-148z" />
    <glyph glyph-name="iogonek" unicode="&#x12f;" horiz-adv-x="417" 
d="M278 -303c-136.667 0 -205.001 38.333 -205.001 115c0 64 24.333 130 73 198h98c-52 -64 -78 -121 -78 -171c0 -24 38.667 -39 116 -45c12.667 -1.33301 23.334 -2 32.001 -2v-94zM119.999 1188v150h150v-150h-150zM128.999 0v1055h132v-1055h-132z" />
    <glyph glyph-name="Idotaccent" unicode="&#x130;" horiz-adv-x="418" 
d="M134 1654v150h150v-150h-150zM135 0v1515h148v-1515h-148z" />
    <glyph glyph-name="dotlessi" unicode="&#x131;" horiz-adv-x="417" 
d="M129 0v1055h132v-1055h-132z" />
    <glyph glyph-name="IJ" unicode="&#x132;" horiz-adv-x="1314" 
d="M443 244l103.001 53c16 -42.667 45.333 -83.667 88 -123c18 -16.667 42.333 -31.834 73 -45.501s63 -20.5 97 -20.5c81.333 0 139.5 27.833 174.5 83.5s52.5 134.834 52.5 237.501v1086h148v-1086c0 -217.333 -72.333 -356.333 -217 -417c-46 -18.667 -97 -28 -153 -28
s-106 8.83301 -150 26.5s-78.333 37.667 -103 60s-46.334 47.833 -65.001 76.5c-26.667 40.667 -42.667 73 -48 97zM135.001 0v1515h148v-1515h-148z" />
    <glyph glyph-name="ij" unicode="&#x133;" horiz-adv-x="733" 
d="M482 1188v150h150v-150h-150zM308 -225c64.667 0 111.335 11.334 140.002 34.001s43 76.667 43 162v1084h132v-1055c0 -114 -14 -193.333 -42 -238c-10.667 -16.667 -20.334 -30.5 -29.001 -41.5s-21.167 -20.333 -37.5 -28s-29.833 -13.334 -40.5 -17.001
s-26.334 -6.5 -47.001 -8.5c-28 -2.66699 -53 -4 -75 -4h-36zM120.001 1188v150h150v-150h-150zM129.001 0.000976562v1055h132v-1055h-132z" />
    <glyph glyph-name="Jcircumflex" unicode="&#x134;" horiz-adv-x="896" 
d="M465 1719l222 222l222 -222l-66 -64l-156 156l-157 -157zM25 244l103.001 53c16 -42.667 45.333 -83.667 88 -123c18 -16.667 42.333 -31.834 73 -45.501s63 -20.5 97 -20.5c81.333 0 139.5 27.833 174.5 83.5s52.5 134.834 52.5 237.501v1086h148v-1086
c0 -217.333 -72.333 -356.333 -217 -417c-46 -18.667 -97 -28 -153 -28s-106 8.83301 -150 26.5s-78.333 37.667 -103 60s-46.334 47.833 -65.001 76.5c-26.667 40.667 -42.667 73 -48 97z" />
    <glyph glyph-name="jcircumflex" unicode="&#x135;" horiz-adv-x="362" 
d="M-40 1253l222 222l222 -222l-66 -64l-156 156l-157 -157zM-63 -225c64.667 0 111.335 11.334 140.002 34.001s43 76.667 43 162v1084h132v-1055c0 -114 -14 -193.333 -42 -238c-10.667 -16.667 -20.334 -30.5 -29.001 -41.5s-21.167 -20.333 -37.5 -28
s-29.833 -13.334 -40.5 -17.001s-26.334 -6.5 -47.001 -8.5c-28 -2.66699 -53 -4 -75 -4h-36z" />
    <glyph glyph-name="Kcommaaccent" unicode="&#x136;" horiz-adv-x="1140" 
d="M539 -522l87 250h-65v150h150v-150c-18 -38 -43.333 -88.667 -76 -152s-50 -96 -52 -98h-44zM135 0v1515h149v-824l617 824h159l-434 -569l489 -946h-166l-417 822l-248 -327v-495h-149z" />
    <glyph glyph-name="kcommaaccent" unicode="&#x137;" horiz-adv-x="911" 
d="M422 -522l87 250h-65v150h150v-150c-18 -38 -43.333 -88.667 -76 -152s-50 -96 -52 -98h-44zM130 0v1515h132v-982l404 522h158l-276 -359l338 -696h-146l-282 582l-196 -243v-339h-132z" />
    <glyph glyph-name="kgreenlandic" unicode="&#x138;" horiz-adv-x="832" 
d="M120 2v1053h132v-506l382 506h134l-304 -398l343 -657h-143l-280 553l-132 -176v-375h-132z" />
    <glyph glyph-name="Lacute" unicode="&#x139;" horiz-adv-x="980" 
d="M195 1672l295 295l87 -87l-316 -273zM135 0v1515h148v-1373h672v-142h-820z" />
    <glyph glyph-name="lacute" unicode="&#x13a;" horiz-adv-x="417" 
d="M181 1655l295 295l87 -87l-316 -273zM129 -2v1517h132v-1517h-132z" />
    <glyph glyph-name="Lcommaaccent" unicode="&#x13b;" horiz-adv-x="980" 
d="M459 -522l87 250h-65v150h150v-150c-18 -38 -43.333 -88.667 -76 -152s-50 -96 -52 -98h-44zM135 0v1515h148v-1373h672v-142h-820z" />
    <glyph glyph-name="lcommaaccent" unicode="&#x13c;" horiz-adv-x="417" 
d="M109 -524l87 250h-65v150h150v-150c-18 -38 -43.333 -88.667 -76 -152s-50 -96 -52 -98h-44zM129 -2v1517h132v-1517h-132z" />
    <glyph glyph-name="Lcaron" unicode="&#x13d;" horiz-adv-x="980" 
d="M415 1093l87 250h-65v150h150v-150c-18 -38 -43.333 -88.667 -76 -152s-50 -96 -52 -98h-44zM135 0v1515h148v-1373h672v-142h-820z" />
    <glyph glyph-name="lcaron" unicode="&#x13e;" horiz-adv-x="620" 
d="M378 1115l87 250h-65v150h150v-150c-18 -38 -43.333 -88.667 -76 -152s-50 -96 -52 -98h-44zM129 -2v1517h132v-1517h-132z" />
    <glyph glyph-name="Ldot" unicode="&#x13f;" horiz-adv-x="980" 
d="M470 691v150h150v-150h-150zM135 0v1515h148v-1373h672v-142h-820z" />
    <glyph glyph-name="ldot" unicode="&#x140;" horiz-adv-x="704" 
d="M484 786v150h150v-150h-150zM129 -2v1517h132v-1517h-132z" />
    <glyph glyph-name="Lslash" unicode="&#x141;" horiz-adv-x="980" 
d="M-156 324v155l291 291v745h148v-597l305 305v-156l-305 -305v-620h672v-142h-820v615z" />
    <glyph glyph-name="lslash" unicode="&#x142;" horiz-adv-x="656" 
d="M18 376v154l259 259v726h132v-594l229 229v-155l-229 -229v-768h-132v637z" />
    <glyph glyph-name="Nacute" unicode="&#x143;" horiz-adv-x="1251" 
d="M612 1672l295 295l87 -87l-316 -273zM128 0v1515h236l611 -1154v1154h148v-1515h-127l-720 1368v-1368h-148z" />
    <glyph glyph-name="nacute" unicode="&#x144;" 
d="M476 1206l295 295l87 -87l-316 -273zM120 0v1055h132v-173c58.667 58 114.334 103.167 167.001 135.5s114.667 48.5 186 48.5s131.666 -23.333 180.999 -70s74 -116.667 74 -210v-786h-132v786c0 50 -17.833 90.5 -53.5 121.5s-74.167 46.5 -115.5 46.5
c-98.667 0 -201 -57.667 -307 -173v-781h-132z" />
    <glyph glyph-name="Ncommaaccent" unicode="&#x145;" horiz-adv-x="1251" 
d="M540 -522l87 250h-65v150h150v-150c-18 -38 -43.333 -88.667 -76 -152s-50 -96 -52 -98h-44zM128 0v1515h236l611 -1154v1154h148v-1515h-127l-720 1368v-1368h-148z" />
    <glyph glyph-name="ncommaaccent" unicode="&#x146;" 
d="M404 -522l87 250h-65v150h150v-150c-18 -38 -43.333 -88.667 -76 -152s-50 -96 -52 -98h-44zM120 0v1055h132v-173c58.667 58 114.334 103.167 167.001 135.5s114.667 48.5 186 48.5s131.666 -23.333 180.999 -70s74 -116.667 74 -210v-786h-132v786
c0 50 -17.833 90.5 -53.5 121.5s-74.167 46.5 -115.5 46.5c-98.667 0 -201 -57.667 -307 -173v-781h-132z" />
    <glyph glyph-name="Ncaron" unicode="&#x147;" horiz-adv-x="1251" 
d="M404 1876l65 65l157 -157l156 156l66 -64l-222 -222zM128 0v1515h236l611 -1154v1154h148v-1515h-127l-720 1368v-1368h-148z" />
    <glyph glyph-name="ncaron" unicode="&#x148;" 
d="M268 1410l65 65l157 -157l156 156l66 -64l-222 -222zM120 0v1055h132v-173c58.667 58 114.334 103.167 167.001 135.5s114.667 48.5 186 48.5s131.666 -23.333 180.999 -70s74 -116.667 74 -210v-786h-132v786c0 50 -17.833 90.5 -53.5 121.5s-74.167 46.5 -115.5 46.5
c-98.667 0 -201 -57.667 -307 -173v-781h-132z" />
    <glyph glyph-name="napostrophe" unicode="&#x149;" horiz-adv-x="1127" 
d="M277 0v1055h132v-173c58.667 58 114.334 103.167 167.001 135.5s114.667 48.5 186 48.5s131.666 -23.333 180.999 -70s74 -116.667 74 -210v-786h-132v786c0 50 -17.833 90.5 -53.5 121.5s-74.167 46.5 -115.5 46.5c-98.667 0 -201 -57.667 -307 -173v-781h-132zM70 1046
l87 250h-65v150h150v-150c-18 -38 -43.333 -88.667 -76 -152s-50 -96 -52 -98h-44z" />
    <glyph glyph-name="Eng" unicode="&#x14a;" horiz-adv-x="1251" 
d="M128 0l-0.000976562 1515h236l611 -1154v1154h148v-1515c0 -141.333 -22.667 -233 -68 -275c-17.333 -16 -32.333 -28.167 -45 -36.5s-32 -14.5 -58 -18.5c-34 -5.33301 -64.667 -8 -92 -8h-44l-8 112c64.667 0 111.334 11.667 140.001 35s43 83.666 43 180.999v19
l-715 1359v-1368h-148z" />
    <glyph glyph-name="eng" unicode="&#x14b;" 
d="M120 0l0.000976562 1055h132v-173c58.667 58 114.334 103.167 167.001 135.5s114.667 48.5 186 48.5s131.666 -23.333 180.999 -70s74 -116.667 74 -210v-786c0 -114 -14 -193.333 -42 -238c-10.667 -16.667 -20.334 -30.5 -29.001 -41.5s-21.167 -20.333 -37.5 -28
s-29.833 -13.334 -40.5 -17.001s-26.334 -6.5 -47.001 -8.5c-28 -2.66699 -53 -4 -75 -4h-36l-8 112c64.667 0 111.334 11.167 140.001 33.5s43 86.166 43 191.499v786c0 50 -17.833 90.5 -53.5 121.5s-74.167 46.5 -115.5 46.5c-98.667 0 -201 -57.667 -307 -173v-781h-132
z" />
    <glyph glyph-name="Omacron" unicode="&#x14c;" horiz-adv-x="1263" 
d="M378 1654v92h527v-92h-527zM101 529.5c-14 72.333 -21.001 146.833 -21.001 223.5s6.33301 151.334 19 224.001s33.334 143 62.001 211s64.167 127.167 106.5 177.5s95.5 90.666 159.5 120.999s134.5 45.5 211.5 45.5s146.333 -15.5 208 -46.5s113 -72 154 -123
s75.5 -110.5 103.5 -178.5c52.667 -128 79 -272 79 -432c0 -292.667 -75.667 -510 -227 -652c-82 -77.333 -187 -116 -315 -116c-74 0 -142.333 14.833 -205 44.5s-115.5 69.334 -158.5 119.001s-79.667 107.667 -110 174s-52.5 135.666 -66.5 207.999zM240.999 951.5
c-8.66699 -62.333 -13.001 -133.167 -13.001 -212.5s7.83301 -156.5 23.5 -231.5s39.334 -142.833 71.001 -203.5s74.667 -108.5 129 -143.5s114.333 -52.5 180 -52.5s122 13.167 169 39.5s84.833 60.5 113.5 102.5s52.334 92 71.001 150c33.333 102.667 50 220 50 352
c0 219.333 -40.333 389.333 -121 510c-28.667 43.333 -66.334 78.5 -113.001 105.5s-100 40.5 -160 40.5s-113.833 -12 -161.5 -36s-87 -56.167 -118 -96.5s-56.667 -88.833 -77 -145.5s-34.833 -116.167 -43.5 -178.5z" />
    <glyph glyph-name="omacron" unicode="&#x14d;" horiz-adv-x="972" 
d="M224 1188v92h527v-92h-527zM183.5 921c72.333 96.667 173.5 145 303.5 145s230.833 -48.667 302.5 -146s107.5 -227.333 107.5 -390s-36.167 -293.667 -108.5 -393s-172.833 -149 -301.5 -149c-131.333 0 -233.333 51.333 -306 154
c-70.667 100.667 -106 231.5 -106 392.5s36.167 289.833 108.5 386.5zM207 528c0 -211.333 55.001 -345.331 165.001 -401.998c33.333 -17.333 71.666 -26 114.999 -26s81.833 8.66699 115.5 26s60.5 39.666 80.5 66.999s36.333 60.333 49 99
c22 67.333 33 145.666 33 234.999c0 284.667 -93 427 -279 427s-279 -142 -279 -426z" />
    <glyph glyph-name="Obreve" unicode="&#x14e;" horiz-adv-x="1263" 
d="M847 1789c-43.333 -90 -112 -135 -206 -135s-162.667 45 -206 135l69 40c12 -28 31 -51 57 -69s52.667 -27 80 -27s54 9 80 27s45 41 57 69zM101 529.5c-14 72.333 -21.001 146.833 -21.001 223.5s6.33301 151.334 19 224.001s33.334 143 62.001 211
s64.167 127.167 106.5 177.5s95.5 90.666 159.5 120.999s134.5 45.5 211.5 45.5s146.333 -15.5 208 -46.5s113 -72 154 -123s75.5 -110.5 103.5 -178.5c52.667 -128 79 -272 79 -432c0 -292.667 -75.667 -510 -227 -652c-82 -77.333 -187 -116 -315 -116
c-74 0 -142.333 14.833 -205 44.5s-115.5 69.334 -158.5 119.001s-79.667 107.667 -110 174s-52.5 135.666 -66.5 207.999zM240.999 951.5c-8.66699 -62.333 -13.001 -133.167 -13.001 -212.5s7.83301 -156.5 23.5 -231.5s39.334 -142.833 71.001 -203.5
s74.667 -108.5 129 -143.5s114.333 -52.5 180 -52.5s122 13.167 169 39.5s84.833 60.5 113.5 102.5s52.334 92 71.001 150c33.333 102.667 50 220 50 352c0 219.333 -40.333 389.333 -121 510c-28.667 43.333 -66.334 78.5 -113.001 105.5s-100 40.5 -160 40.5
s-113.833 -12 -161.5 -36s-87 -56.167 -118 -96.5s-56.667 -88.833 -77 -145.5s-34.833 -116.167 -43.5 -178.5z" />
    <glyph glyph-name="obreve" unicode="&#x14f;" horiz-adv-x="972" 
d="M693 1323c-43.333 -90 -112 -135 -206 -135s-162.667 45 -206 135l69 40c12 -28 31 -51 57 -69s52.667 -27 80 -27s54 9 80 27s45 41 57 69zM183.5 921c72.333 96.667 173.5 145 303.5 145s230.833 -48.667 302.5 -146s107.5 -227.333 107.5 -390
s-36.167 -293.667 -108.5 -393s-172.833 -149 -301.5 -149c-131.333 0 -233.333 51.333 -306 154c-70.667 100.667 -106 231.5 -106 392.5s36.167 289.833 108.5 386.5zM207 528c0 -211.333 55.001 -345.331 165.001 -401.998c33.333 -17.333 71.666 -26 114.999 -26
s81.833 8.66699 115.5 26s60.5 39.666 80.5 66.999s36.333 60.333 49 99c22 67.333 33 145.666 33 234.999c0 284.667 -93 427 -279 427s-279 -142 -279 -426z" />
    <glyph glyph-name="Ohungarumlaut" unicode="&#x150;" horiz-adv-x="1263" 
d="M697 1601l87 250h-65v150h150v-150c-18 -38 -43.333 -88.667 -76 -152s-50 -96 -52 -98h-44zM432 1601l87 250h-65v150h150v-150c-18 -38 -43.333 -88.667 -76 -152s-50 -96 -52 -98h-44zM101 529.5c-14 72.333 -21.001 146.833 -21.001 223.5
s6.33301 151.334 19 224.001s33.334 143 62.001 211s64.167 127.167 106.5 177.5s95.5 90.666 159.5 120.999s134.5 45.5 211.5 45.5s146.333 -15.5 208 -46.5s113 -72 154 -123s75.5 -110.5 103.5 -178.5c52.667 -128 79 -272 79 -432c0 -292.667 -75.667 -510 -227 -652
c-82 -77.333 -187 -116 -315 -116c-74 0 -142.333 14.833 -205 44.5s-115.5 69.334 -158.5 119.001s-79.667 107.667 -110 174s-52.5 135.666 -66.5 207.999zM240.999 951.5c-8.66699 -62.333 -13.001 -133.167 -13.001 -212.5s7.83301 -156.5 23.5 -231.5
s39.334 -142.833 71.001 -203.5s74.667 -108.5 129 -143.5s114.333 -52.5 180 -52.5s122 13.167 169 39.5s84.833 60.5 113.5 102.5s52.334 92 71.001 150c33.333 102.667 50 220 50 352c0 219.333 -40.333 389.333 -121 510c-28.667 43.333 -66.334 78.5 -113.001 105.5
s-100 40.5 -160 40.5s-113.833 -12 -161.5 -36s-87 -56.167 -118 -96.5s-56.667 -88.833 -77 -145.5s-34.833 -116.167 -43.5 -178.5z" />
    <glyph glyph-name="ohungarumlaut" unicode="&#x151;" horiz-adv-x="972" 
d="M541 1117l87 250h-65v150h150v-150c-18 -38 -43.333 -88.667 -76 -152s-50 -96 -52 -98h-44zM276 1117l87 250h-65v150h150v-150c-18 -38 -43.333 -88.667 -76 -152s-50 -96 -52 -98h-44zM183.5 921c72.333 96.667 173.5 145 303.5 145s230.833 -48.667 302.5 -146
s107.5 -227.333 107.5 -390s-36.167 -293.667 -108.5 -393s-172.833 -149 -301.5 -149c-131.333 0 -233.333 51.333 -306 154c-70.667 100.667 -106 231.5 -106 392.5s36.167 289.833 108.5 386.5zM207 528c0 -211.333 55.001 -345.331 165.001 -401.998
c33.333 -17.333 71.666 -26 114.999 -26s81.833 8.66699 115.5 26s60.5 39.666 80.5 66.999s36.333 60.333 49 99c22 67.333 33 145.666 33 234.999c0 284.667 -93 427 -279 427s-279 -142 -279 -426z" />
    <glyph glyph-name="OE" unicode="&#x152;" horiz-adv-x="1718" 
d="M101 533c-14 71.333 -21.001 144.833 -21.001 220.5s6.33301 149 19 220s33.334 139.667 62.001 206s64.167 124.166 106.5 173.499s95.5 88.666 159.5 117.999s135.333 44 214 44h971v-124h-673v-533h483v-124h-483v-601h711v-133h-1009c-74 0 -142.333 14.333 -205 43
s-115.5 67.334 -158.5 116.001s-79.667 105.334 -110 170.001s-52.5 132.667 -66.5 204zM317.999 313c28.667 -50.667 72 -93.665 130 -128.998c30.667 -18 71 -31.333 121 -40s87.667 -12.334 113 -11.001s48 1.66602 68 0.999023s33.667 -1 41 -1v1258
c-103.333 0 -175.333 -3.33301 -216 -10c-118.667 -20 -206.167 -79.833 -262.5 -179.5s-84.5 -246.667 -84.5 -441s30 -343.5 90 -447.5z" />
    <glyph glyph-name="oe" unicode="&#x153;" horiz-adv-x="1615" 
d="M183.5 921c72.333 96.667 173.499 145.003 303.499 145.003c78 0 146.5 -18.667 205.5 -56s105.167 -90 138.5 -158c52 110 134.333 178 247 204c28.667 6.66699 58.667 10 90 10s62 -3.83301 92 -11.5s62.167 -23.334 96.5 -47.001s63.833 -54.834 88.5 -93.501
c57.333 -90.667 86 -224.334 86 -401.001h-634c0 -178 45 -299.333 135 -364c44.667 -32 94.334 -48 149.001 -48c102.667 0 190 63.667 262 191l91 -63c-26 -48 -60 -91.333 -102 -130c-80 -73.333 -163.667 -110 -251 -110c-157.333 0 -274 72 -350 216
c-34.667 -68.667 -81.167 -122 -139.5 -160s-123.333 -57 -195 -57s-133.667 13.667 -186 41s-95.5 65 -129.5 113c-70.667 100.667 -106 231.5 -106 392.5s36.167 289.833 108.5 386.5zM206.999 528.003c0 -211.333 55.001 -345.331 165.001 -401.998
c33.333 -17.333 71.666 -26 114.999 -26s81.833 8.66699 115.5 26s60.5 39.666 80.5 66.999s36.333 60.333 49 99c22 67.333 33 145.666 33 234.999c0 284.667 -93 427 -279 427s-279 -142 -279 -426zM903 625.005l496 0.00195312c0 99.333 -23 181.666 -69 246.999
c-38.667 54.667 -93.667 82 -165 82c-116.667 0 -194.667 -54 -234 -162c-18.667 -50.667 -28 -106.334 -28 -167.001z" />
    <glyph glyph-name="Racute" unicode="&#x154;" horiz-adv-x="1093" 
d="M376 1672l295 295l87 -87l-316 -273zM135 0l0.000976562 1515h510c159.333 0 278.666 -62 357.999 -186c43.333 -67.333 65 -138 65 -212c0 -89.333 -21.333 -171 -64 -245c-46.667 -81.333 -122.667 -133.333 -228 -156l286 -716h-162l-276 692h-341v-692h-148z
M283.001 816h376c70 0 129.667 22 179 66c54.667 48.667 82 124.667 82 228c0 137.333 -74 225.333 -222 264c-44 11.333 -92 17 -144 17h-271v-575z" />
    <glyph glyph-name="racute" unicode="&#x155;" horiz-adv-x="639" 
d="M353 1206l295 295l87 -87l-316 -273zM120 0v1055h132v-284c31.333 69.333 55.333 117 72 143c65.333 101.333 150 152 254 152c8 0 20 -0.666992 36 -2v-112c-45.333 -6 -83 -14.5 -113 -25.5s-59.333 -28.5 -88 -52.5c-50 -41.333 -103.667 -123.666 -161 -246.999v-627
h-132z" />
    <glyph glyph-name="Rcommaaccent" unicode="&#x156;" horiz-adv-x="1093" 
d="M512 -522l87 250h-65v150h150v-150c-18 -38 -43.333 -88.667 -76 -152s-50 -96 -52 -98h-44zM135 0l0.000976562 1515h510c159.333 0 278.666 -62 357.999 -186c43.333 -67.333 65 -138 65 -212c0 -89.333 -21.333 -171 -64 -245
c-46.667 -81.333 -122.667 -133.333 -228 -156l286 -716h-162l-276 692h-341v-692h-148zM283.001 816h376c70 0 129.667 22 179 66c54.667 48.667 82 124.667 82 228c0 137.333 -74 225.333 -222 264c-44 11.333 -92 17 -144 17h-271v-575z" />
    <glyph glyph-name="rcommaaccent" unicode="&#x157;" horiz-adv-x="639" 
d="M100 -522l87 250h-65v150h150v-150c-18 -38 -43.333 -88.667 -76 -152s-50 -96 -52 -98h-44zM120 0v1055h132v-284c31.333 69.333 55.333 117 72 143c65.333 101.333 150 152 254 152c8 0 20 -0.666992 36 -2v-112c-45.333 -6 -83 -14.5 -113 -25.5
s-59.333 -28.5 -88 -52.5c-50 -41.333 -103.667 -123.666 -161 -246.999v-627h-132z" />
    <glyph glyph-name="Rcaron" unicode="&#x158;" horiz-adv-x="1093" 
d="M336 1876l65 65l157 -157l156 156l66 -64l-222 -222zM135 0l0.000976562 1515h510c159.333 0 278.666 -62 357.999 -186c43.333 -67.333 65 -138 65 -212c0 -89.333 -21.333 -171 -64 -245c-46.667 -81.333 -122.667 -133.333 -228 -156l286 -716h-162l-276 692h-341
v-692h-148zM283.001 816h376c70 0 129.667 22 179 66c54.667 48.667 82 124.667 82 228c0 137.333 -74 225.333 -222 264c-44 11.333 -92 17 -144 17h-271v-575z" />
    <glyph glyph-name="rcaron" unicode="&#x159;" horiz-adv-x="639" 
d="M145 1410l65 65l157 -157l156 156l66 -64l-222 -222zM120 0v1055h132v-284c31.333 69.333 55.333 117 72 143c65.333 101.333 150 152 254 152c8 0 20 -0.666992 36 -2v-112c-45.333 -6 -83 -14.5 -113 -25.5s-59.333 -28.5 -88 -52.5
c-50 -41.333 -103.667 -123.666 -161 -246.999v-627h-132z" />
    <glyph glyph-name="Sacute" unicode="&#x15a;" horiz-adv-x="1033" 
d="M433 1719l295 295l87 -87l-316 -273zM40 368l137.005 47.998c0.666992 0 2.16699 -5.66699 4.5 -17s6.66602 -26 12.999 -44s14.833 -38 25.5 -60s25.834 -44 45.501 -66s42.5 -42 68.5 -60c57.333 -40.667 133 -61 227 -61s164 25.667 210 77s69 114.5 69 189.5
s-14.5 134 -43.5 177s-79.833 79.5 -152.5 109.5c-21.333 8.66699 -49.333 19 -84 31l-95 33c-164.667 54.667 -275.334 124.667 -332.001 210c-39.333 59.333 -59 128.666 -59 207.999c0 94 37.333 181.667 112 263c35.333 37.333 80.333 67.666 135 90.999
s112.167 35 172.5 35s113.666 -8.16699 159.999 -24.5s83.666 -36.5 111.999 -60.5s53.833 -51.667 76.5 -83s39 -59.333 49 -84l29 -74c8.66699 -23.333 14 -37 16 -41l-130 -50c-1.33301 3.33301 -4.5 13.833 -9.5 31.5s-9.33301 32.167 -13 43.5s-10 27 -19 47
s-18.333 36.833 -28 50.5s-22.334 28.667 -38.001 45s-32.5 29.5 -50.5 39.5c-44 24 -93.667 36 -149 36c-82 0 -148.667 -24.167 -200 -72.5s-77 -112.5 -77 -192.5c0 -87.333 22.667 -148.666 68 -183.999c24.667 -19.333 45.5 -33.333 62.5 -42s37 -17.167 60 -25.5
s39.833 -14.666 50.5 -18.999s31.667 -11.166 63 -20.499l84 -26c154.667 -47.333 261 -117.666 319 -210.999c39.333 -63.333 59 -140 59 -230c0 -65.333 -20.667 -133.666 -62 -204.999c-51.333 -90.667 -129.333 -150.667 -234 -180
c-39.333 -10.667 -85.166 -16 -137.499 -16s-103.833 7 -154.5 21s-93.167 32.333 -127.5 55s-65.333 47.667 -93 75s-49.834 54.666 -66.501 81.999c-30.667 50 -52.334 93.333 -65.001 130z" />
    <glyph glyph-name="sacute" unicode="&#x15b;" horiz-adv-x="878" 
d="M412 1206l295 295l87 -87l-316 -273zM80 200l99 63.9961c35.333 -54.667 74.666 -95.5 117.999 -122.5s96.333 -40.5 159 -40.5c65.333 0 118.333 17.667 159 53c34 29.333 51 65.333 51 108s-7.33301 76.667 -22 102s-35.334 46 -62.001 62
c-44.667 25.333 -91.167 43.833 -139.5 55.5s-86.333 22.334 -114 32.001s-56.167 22.834 -85.5 39.501s-54.666 35.334 -75.999 56.001c-48.667 47.333 -73 109.833 -73 187.5s31.167 142 93.5 193s141.833 76.5 238.5 76.5c114 0 210.333 -41 289 -123
c14.667 -15.333 27 -30.333 37 -45l-91 -68c-4.66699 4.66699 -14 14.5 -28 29.5s-23 24.5 -27 28.5l-26 21c-12 10.667 -22 17.667 -30 21l-34 12c-21.333 8 -57.333 12 -108 12s-94.334 -14.5 -131.001 -43.5s-55 -60.833 -55 -95.5s6 -62.5 18 -83.5s30 -39.167 54 -54.5
c38.667 -24 83.334 -43.667 134.001 -59s84.167 -25.666 100.5 -30.999s38.333 -13.5 66 -24.5s49.334 -21.5 65.001 -31.5s33.5 -23.167 53.5 -39.5s35.333 -33.5 46 -51.5c26 -45.333 39 -94.666 39 -147.999c0 -88.667 -33.667 -161.334 -101 -218.001
s-145.333 -85 -234 -85s-163.167 16.833 -223.5 50.5s-113.5 87.167 -159.5 160.5z" />
    <glyph glyph-name="Scircumflex" unicode="&#x15c;" horiz-adv-x="1033" 
d="M277 1719l222 222l222 -222l-66 -64l-156 156l-157 -157zM40 368l137.005 47.998c0.666992 0 2.16699 -5.66699 4.5 -17s6.66602 -26 12.999 -44s14.833 -38 25.5 -60s25.834 -44 45.501 -66s42.5 -42 68.5 -60c57.333 -40.667 133 -61 227 -61s164 25.667 210 77
s69 114.5 69 189.5s-14.5 134 -43.5 177s-79.833 79.5 -152.5 109.5c-21.333 8.66699 -49.333 19 -84 31l-95 33c-164.667 54.667 -275.334 124.667 -332.001 210c-39.333 59.333 -59 128.666 -59 207.999c0 94 37.333 181.667 112 263
c35.333 37.333 80.333 67.666 135 90.999s112.167 35 172.5 35s113.666 -8.16699 159.999 -24.5s83.666 -36.5 111.999 -60.5s53.833 -51.667 76.5 -83s39 -59.333 49 -84l29 -74c8.66699 -23.333 14 -37 16 -41l-130 -50c-1.33301 3.33301 -4.5 13.833 -9.5 31.5
s-9.33301 32.167 -13 43.5s-10 27 -19 47s-18.333 36.833 -28 50.5s-22.334 28.667 -38.001 45s-32.5 29.5 -50.5 39.5c-44 24 -93.667 36 -149 36c-82 0 -148.667 -24.167 -200 -72.5s-77 -112.5 -77 -192.5c0 -87.333 22.667 -148.666 68 -183.999
c24.667 -19.333 45.5 -33.333 62.5 -42s37 -17.167 60 -25.5s39.833 -14.666 50.5 -18.999s31.667 -11.166 63 -20.499l84 -26c154.667 -47.333 261 -117.666 319 -210.999c39.333 -63.333 59 -140 59 -230c0 -65.333 -20.667 -133.666 -62 -204.999
c-51.333 -90.667 -129.333 -150.667 -234 -180c-39.333 -10.667 -85.166 -16 -137.499 -16s-103.833 7 -154.5 21s-93.167 32.333 -127.5 55s-65.333 47.667 -93 75s-49.834 54.666 -66.501 81.999c-30.667 50 -52.334 93.333 -65.001 130z" />
    <glyph glyph-name="scircumflex" unicode="&#x15d;" horiz-adv-x="878" 
d="M204 1253l222 222l222 -222l-66 -64l-156 156l-157 -157zM80 200l99 63.9961c35.333 -54.667 74.666 -95.5 117.999 -122.5s96.333 -40.5 159 -40.5c65.333 0 118.333 17.667 159 53c34 29.333 51 65.333 51 108s-7.33301 76.667 -22 102s-35.334 46 -62.001 62
c-44.667 25.333 -91.167 43.833 -139.5 55.5s-86.333 22.334 -114 32.001s-56.167 22.834 -85.5 39.501s-54.666 35.334 -75.999 56.001c-48.667 47.333 -73 109.833 -73 187.5s31.167 142 93.5 193s141.833 76.5 238.5 76.5c114 0 210.333 -41 289 -123
c14.667 -15.333 27 -30.333 37 -45l-91 -68c-4.66699 4.66699 -14 14.5 -28 29.5s-23 24.5 -27 28.5l-26 21c-12 10.667 -22 17.667 -30 21l-34 12c-21.333 8 -57.333 12 -108 12s-94.334 -14.5 -131.001 -43.5s-55 -60.833 -55 -95.5s6 -62.5 18 -83.5s30 -39.167 54 -54.5
c38.667 -24 83.334 -43.667 134.001 -59s84.167 -25.666 100.5 -30.999s38.333 -13.5 66 -24.5s49.334 -21.5 65.001 -31.5s33.5 -23.167 53.5 -39.5s35.333 -33.5 46 -51.5c26 -45.333 39 -94.666 39 -147.999c0 -88.667 -33.667 -161.334 -101 -218.001
s-145.333 -85 -234 -85s-163.167 16.833 -223.5 50.5s-113.5 87.167 -159.5 160.5z" />
    <glyph glyph-name="Scedilla" unicode="&#x15e;" horiz-adv-x="1033" 
d="M481 -319l-35.9932 0.999023v94c59.333 0 98.833 5.33301 118.5 16s29.5 21 29.5 31c0 47.333 -23.667 101.333 -71 162c-41.333 2 -82 8.66699 -122 20c-50.667 14 -93.167 32.333 -127.5 55s-65.333 47.667 -93 75s-49.834 54.666 -66.501 81.999
c-30.667 50 -52.334 93.333 -65.001 130l-8 21l137 48c0.666992 0 2.16699 -5.66699 4.5 -17s6.66602 -26 12.999 -44s14.833 -38 25.5 -60s25.834 -44 45.501 -66s42.5 -42 68.5 -60c57.333 -40.667 133 -61 227 -61s164 25.667 210 77s69 114.5 69 189.5
s-14.5 134 -43.5 177s-79.833 79.5 -152.5 109.5c-21.333 8.66699 -49.333 19 -84 31l-95 33c-166 57.333 -276.667 127.333 -332 210c-39.333 59.333 -59 128.666 -59 207.999c0 94 37.333 181.667 112 263c35.333 37.333 80.333 67.666 135 90.999s112.167 35 172.5 35
s113.666 -8.16699 159.999 -24.5s83.666 -36.5 111.999 -60.5s53.833 -51.667 76.5 -83s39 -59.333 49 -84l29 -74c10 -25.333 15.333 -39 16 -41l-130 -50c-1.33301 3.33301 -4.5 13.833 -9.5 31.5s-9.33301 32.167 -13 43.5s-10 27 -19 47s-18.333 36.833 -28 50.5
s-22.334 28.667 -38.001 45s-32.5 29.5 -50.5 39.5c-44 24 -93.667 36 -149 36c-82 0 -148.667 -24.167 -200 -72.5s-77 -112.5 -77 -192.5c0 -87.333 22.667 -148.666 68 -183.999c24.667 -19.333 45.5 -33.333 62.5 -42s37 -17.167 60 -25.5s39.833 -14.666 50.5 -18.999
s31.667 -11.166 63 -20.499l84 -26c155.333 -48 261.666 -118.333 318.999 -211c39.333 -63.333 59 -140 59 -230c0 -65.333 -20.667 -133.666 -62 -204.999c-51.333 -90.667 -129.333 -150.667 -234 -180c-22.667 -6 -47.334 -10.333 -74.001 -13
c45.333 -65.333 68 -129 68 -191c0 -76.667 -68.333 -115 -205 -115z" />
    <glyph glyph-name="scedilla" unicode="&#x15f;" horiz-adv-x="878" 
d="M375 -314l-35.998 0.99707v94c59.333 0 98.833 5.33301 118.5 16s29.5 21 29.5 31c0 48 -23.667 102.333 -71 163c-68.667 4.66699 -127.334 21 -176.001 49c-60.667 33.333 -114 86.666 -160 159.999l99 64c35.333 -54.667 74.666 -95.5 117.999 -122.5
s96.333 -40.5 159 -40.5c65.333 0 118.333 17.667 159 53c34 29.333 51 65.333 51 108s-7.33301 76.667 -22 102s-35.334 46 -62.001 62c-44.667 25.333 -91.167 43.833 -139.5 55.5s-86.333 22.334 -114 32.001s-56.167 22.834 -85.5 39.501s-54.666 35.334 -75.999 56.001
c-48.667 47.333 -73 109.833 -73 187.5s31.167 142 93.5 193s141.833 76.5 238.5 76.5c114 0 210.333 -41 289 -123c14.667 -15.333 27 -30.333 37 -45l-91 -68c-4.66699 4.66699 -14 14.667 -28 30l-27 28l-26 21c-12 10.667 -22 17.667 -30 21l-34 12
c-21.333 8 -57.333 12 -108 12s-94.334 -14.5 -131.001 -43.5s-55 -60.833 -55 -95.5s6 -62.5 18 -83.5s30 -39.167 54 -54.5c38.667 -24 83.334 -43.667 134.001 -59s84.167 -25.666 100.5 -30.999s38.333 -13.5 66 -24.5s49.334 -21.5 65.001 -31.5
s33.5 -23.167 53.5 -39.5s35.333 -33.5 46 -51.5c26 -45.333 39 -94.666 39 -147.999c0 -88.667 -33.667 -161.334 -101 -218.001c-54.667 -46 -116.334 -73.333 -185.001 -82c45.333 -65.333 68 -129 68 -191c0 -76.667 -68.333 -115 -205 -115z" />
    <glyph glyph-name="Scaron" unicode="&#x160;" horiz-adv-x="1033" 
d="M277 1876l65 65l157 -157l156 156l66 -64l-222 -222zM40 368l137.005 47.998c0.666992 0 2.16699 -5.66699 4.5 -17s6.66602 -26 12.999 -44s14.833 -38 25.5 -60s25.834 -44 45.501 -66s42.5 -42 68.5 -60c57.333 -40.667 133 -61 227 -61s164 25.667 210 77
s69 114.5 69 189.5s-14.5 134 -43.5 177s-79.833 79.5 -152.5 109.5c-21.333 8.66699 -49.333 19 -84 31l-95 33c-164.667 54.667 -275.334 124.667 -332.001 210c-39.333 59.333 -59 128.666 -59 207.999c0 94 37.333 181.667 112 263
c35.333 37.333 80.333 67.666 135 90.999s112.167 35 172.5 35s113.666 -8.16699 159.999 -24.5s83.666 -36.5 111.999 -60.5s53.833 -51.667 76.5 -83s39 -59.333 49 -84l29 -74c8.66699 -23.333 14 -37 16 -41l-130 -50c-1.33301 3.33301 -4.5 13.833 -9.5 31.5
s-9.33301 32.167 -13 43.5s-10 27 -19 47s-18.333 36.833 -28 50.5s-22.334 28.667 -38.001 45s-32.5 29.5 -50.5 39.5c-44 24 -93.667 36 -149 36c-82 0 -148.667 -24.167 -200 -72.5s-77 -112.5 -77 -192.5c0 -87.333 22.667 -148.666 68 -183.999
c24.667 -19.333 45.5 -33.333 62.5 -42s37 -17.167 60 -25.5s39.833 -14.666 50.5 -18.999s31.667 -11.166 63 -20.499l84 -26c154.667 -47.333 261 -117.666 319 -210.999c39.333 -63.333 59 -140 59 -230c0 -65.333 -20.667 -133.666 -62 -204.999
c-51.333 -90.667 -129.333 -150.667 -234 -180c-39.333 -10.667 -85.166 -16 -137.499 -16s-103.833 7 -154.5 21s-93.167 32.333 -127.5 55s-65.333 47.667 -93 75s-49.834 54.666 -66.501 81.999c-30.667 50 -52.334 93.333 -65.001 130z" />
    <glyph glyph-name="scaron" unicode="&#x161;" horiz-adv-x="878" 
d="M204 1410l65 65l157 -157l156 156l66 -64l-222 -222zM80 200l99 63.9961c35.333 -54.667 74.666 -95.5 117.999 -122.5s96.333 -40.5 159 -40.5c65.333 0 118.333 17.667 159 53c34 29.333 51 65.333 51 108s-7.33301 76.667 -22 102s-35.334 46 -62.001 62
c-44.667 25.333 -91.167 43.833 -139.5 55.5s-86.333 22.334 -114 32.001s-56.167 22.834 -85.5 39.501s-54.666 35.334 -75.999 56.001c-48.667 47.333 -73 109.833 -73 187.5s31.167 142 93.5 193s141.833 76.5 238.5 76.5c114 0 210.333 -41 289 -123
c14.667 -15.333 27 -30.333 37 -45l-91 -68c-4.66699 4.66699 -14 14.5 -28 29.5s-23 24.5 -27 28.5l-26 21c-12 10.667 -22 17.667 -30 21l-34 12c-21.333 8 -57.333 12 -108 12s-94.334 -14.5 -131.001 -43.5s-55 -60.833 -55 -95.5s6 -62.5 18 -83.5s30 -39.167 54 -54.5
c38.667 -24 83.334 -43.667 134.001 -59s84.167 -25.666 100.5 -30.999s38.333 -13.5 66 -24.5s49.334 -21.5 65.001 -31.5s33.5 -23.167 53.5 -39.5s35.333 -33.5 46 -51.5c26 -45.333 39 -94.666 39 -147.999c0 -88.667 -33.667 -161.334 -101 -218.001
s-145.333 -85 -234 -85s-163.167 16.833 -223.5 50.5s-113.5 87.167 -159.5 160.5z" />
    <glyph glyph-name="Tcommaaccent" unicode="&#x162;" horiz-adv-x="1062" 
d="M448 -303l-36 1.00098v94c59.333 0 98.833 5.33301 118.5 16s29.5 21 29.5 31c0 47.333 -23.333 101 -70 161h-33v1391h-432v124h1012v-124h-432v-1391h-18c44 -64.667 66 -127.334 66 -188.001c0 -76.667 -68.333 -115 -205 -115z" />
    <glyph glyph-name="tcommaaccent" unicode="&#x163;" horiz-adv-x="606" 
d="M348 -316l-36 1.00098v94c59.333 0 98.833 5.33301 118.5 16s29.5 21 29.5 31c0 48 -23.667 102.333 -71 163c-6 0 -11 0.333008 -15 1c-15.333 2 -34 8.33301 -56 19s-40 25.667 -54 45c-33.333 46.667 -50 120 -50 220v669h-178v112h178v385h132v-385h242v-112h-242
v-669c0 -67.333 10.333 -113.333 31 -138s54.667 -37 102 -37c19.333 0 42.333 1.66699 69 5s40 5.33301 40 6v-99c-34.667 -12.667 -68.667 -20.334 -102 -23.001c44.667 -64.667 67 -127.667 67 -189c0 -76.667 -68.333 -115 -205 -115z" />
    <glyph glyph-name="Tcaron" unicode="&#x164;" horiz-adv-x="1062" 
d="M309 1876l65 65l157 -157l156 156l66 -64l-222 -222zM25 1391v124h1012v-124h-432v-1391h-148v1391h-432z" />
    <glyph glyph-name="tcaron" unicode="&#x165;" horiz-adv-x="845" 
d="M603 1115l87 250h-65v150h150v-150c-18 -38 -43.333 -88.667 -76 -152s-50 -96 -52 -98h-44zM36 943v112h178v385h132v-385h242v-112h-242v-669c0 -67.333 10.333 -113.333 31 -138s54.667 -37 102 -37c19.333 0 42.333 1.66699 69 5s40 5.33301 40 6v-99
c-44 -16 -86.833 -24 -128.5 -24s-70.167 1 -85.5 3s-34 8.33301 -56 19s-40 25.667 -54 45c-33.333 46.667 -50 120 -50 220v669h-178z" />
    <glyph glyph-name="Tbar" unicode="&#x166;" horiz-adv-x="1062" 
d="M25 1391v124h1012v-124h-432v-500h221v-124h-221v-767h-148v767h-224v124h224v500h-432z" />
    <glyph glyph-name="tbar" unicode="&#x167;" horiz-adv-x="606" 
d="M47 592v112h167v239h-178v112h178v385h132v-385h242v-112h-242v-239h225v-112h-225v-318c0 -67.333 10.333 -113.333 31 -138s54.667 -37 102 -37c19.333 0 42.333 1.66699 69 5s40 5.33301 40 6v-99c-44 -16 -86.833 -24 -128.5 -24s-70.167 1 -85.5 3
s-34 8.33301 -56 19s-40 25.667 -54 45c-33.333 46.667 -50 120 -50 220v318h-167z" />
    <glyph glyph-name="Utilde" unicode="&#x168;" horiz-adv-x="1213" 
d="M913 1807c-16.667 -48 -41.167 -86.001 -73.5 -114.001s-66.833 -42 -103.5 -42s-68.834 7.66699 -96.501 23s-53.667 30.5 -78 45.5s-47.833 22.5 -70.5 22.5h-10c-21.333 -2 -40.333 -10.667 -57 -26s-29 -34.666 -37 -57.999l-83 40c16.667 48 40 85 70 111
c34.667 30 68.834 45 102.501 45s62 -4.66699 85 -14s41.833 -19.666 56.5 -30.999c38 -30.667 74 -46 108 -46h10c21.333 2 40.333 10.667 57 26s29 34.666 37 57.999zM135 454.999v1060h148v-1060c0 -90.667 22 -167 66 -229c55.333 -78.667 142 -118 260 -118
c176 0 280.333 79.333 313 238c8 36.667 12 73 12 109v1060h151v-1060c0 -109.333 -29.667 -207 -89 -293c-80 -118.667 -209 -178 -387 -178c-212.667 0 -355.667 84.667 -429 254c-30 70.667 -45 143 -45 217z" />
    <glyph glyph-name="utilde" unicode="&#x169;" horiz-adv-x="979" 
d="M803 1341c-16.667 -48 -41.167 -86.001 -73.5 -114.001s-66.833 -42 -103.5 -42s-68.834 7.66699 -96.501 23s-53.667 30.5 -78 45.5s-47.833 22.5 -70.5 22.5h-10c-21.333 -2 -40.333 -10.667 -57 -26s-29 -34.666 -37 -57.999l-83 40c16.667 48 40 85 70 111
c34.667 30 68.834 45 102.501 45s62 -4.66699 85 -14s41.833 -19.666 56.5 -30.999c38 -30.667 74 -46 108 -46h10c21.333 2 40.333 10.667 57 26s29 34.666 37 57.999zM129 268.999v786.001h132v-786c0 -50 17.833 -90.5 53.5 -121.5s74.167 -46.5 115.5 -46.5
c98.667 0 201 57.667 307 173v781h132v-1055h-132v174c-94.667 -92.667 -175.667 -149.334 -243 -170.001c-32.667 -10 -66.667 -15 -102 -15c-76.667 0 -139.667 23.333 -189 70s-74 116.667 -74 210z" />
    <glyph glyph-name="Umacron" unicode="&#x16a;" horiz-adv-x="1213" 
d="M345 1654v92h527v-92h-527zM135 455v1060h148v-1060c0 -90.667 22 -167 66 -229c55.333 -78.667 142 -118 260 -118c176 0 280.333 79.333 313 238c8 36.667 12 73 12 109v1060h151v-1060c0 -109.333 -29.667 -207 -89 -293c-80 -118.667 -209 -178 -387 -178
c-212.667 0 -355.667 84.667 -429 254c-30 70.667 -45 143 -45 217z" />
    <glyph glyph-name="umacron" unicode="&#x16b;" horiz-adv-x="979" 
d="M236 1188v92h527v-92h-527zM129 269v786.001h132v-786c0 -50 17.833 -90.5 53.5 -121.5s74.167 -46.5 115.5 -46.5c98.667 0 201 57.667 307 173v781h132v-1055h-132v174c-94.667 -92.667 -175.667 -149.334 -243 -170.001c-32.667 -10 -66.667 -15 -102 -15
c-76.667 0 -139.667 23.333 -189 70s-74 116.667 -74 210z" />
    <glyph glyph-name="Ubreve" unicode="&#x16c;" horiz-adv-x="1213" 
d="M815 1789c-43.333 -90 -112 -135 -206 -135s-162.667 45 -206 135l69 40c12 -28 31 -51 57 -69s52.667 -27 80 -27s54 9 80 27s45 41 57 69zM135 455v1060h148v-1060c0 -90.667 22 -167 66 -229c55.333 -78.667 142 -118 260 -118c176 0 280.333 79.333 313 238
c8 36.667 12 73 12 109v1060h151v-1060c0 -109.333 -29.667 -207 -89 -293c-80 -118.667 -209 -178 -387 -178c-212.667 0 -355.667 84.667 -429 254c-30 70.667 -45 143 -45 217z" />
    <glyph glyph-name="ubreve" unicode="&#x16d;" horiz-adv-x="979" 
d="M705 1323c-43.333 -90 -112 -135 -206 -135s-162.667 45 -206 135l69 40c12 -28 31 -51 57 -69s52.667 -27 80 -27s54 9 80 27s45 41 57 69zM129 269v786.001h132v-786c0 -50 17.833 -90.5 53.5 -121.5s74.167 -46.5 115.5 -46.5c98.667 0 201 57.667 307 173v781h132
v-1055h-132v174c-94.667 -92.667 -175.667 -149.334 -243 -170.001c-32.667 -10 -66.667 -15 -102 -15c-76.667 0 -139.667 23.333 -189 70s-74 116.667 -74 210z" />
    <glyph glyph-name="Uring" unicode="&#x16e;" horiz-adv-x="1213" 
d="M337 1916c0 70.667 24.833 130.834 74.5 180.501s109.834 74.5 180.501 74.5s130.834 -24.833 180.501 -74.5s74.5 -109.834 74.5 -180.501s-24.833 -130.834 -74.5 -180.501s-109.834 -74.5 -180.501 -74.5s-130.834 24.833 -180.501 74.5s-74.5 109.834 -74.5 180.501z
M433 1916c0 -43.333 15.5 -80.5 46.5 -111.5s68.167 -46.5 111.5 -46.5s80.5 15.5 111.5 46.5s46.5 68.167 46.5 111.5s-15.5 80.5 -46.5 111.5s-68.167 46.5 -111.5 46.5s-80.5 -15.5 -111.5 -46.5s-46.5 -68.167 -46.5 -111.5zM135 455v1060h148v-1060
c0 -90.667 22 -167 66 -229c55.333 -78.667 142 -118 260 -118c176 0 280.333 79.333 313 238c8 36.667 12 73 12 109v1060h151v-1060c0 -109.333 -29.667 -207 -89 -293c-80 -118.667 -209 -178 -387 -178c-212.667 0 -355.667 84.667 -429 254c-30 70.667 -45 143 -45 217
z" />
    <glyph glyph-name="uring" unicode="&#x16f;" horiz-adv-x="979" 
d="M227 1375c0 70.667 24.833 130.834 74.5 180.501s109.834 74.5 180.501 74.5s130.834 -24.833 180.501 -74.5s74.5 -109.834 74.5 -180.501s-24.833 -130.834 -74.5 -180.501s-109.834 -74.5 -180.501 -74.5s-130.834 24.833 -180.501 74.5s-74.5 109.834 -74.5 180.501z
M323 1375c0 -43.333 15.5 -80.5 46.5 -111.5s68.167 -46.5 111.5 -46.5s80.5 15.5 111.5 46.5s46.5 68.167 46.5 111.5s-15.5 80.5 -46.5 111.5s-68.167 46.5 -111.5 46.5s-80.5 -15.5 -111.5 -46.5s-46.5 -68.167 -46.5 -111.5zM129 269v786.001h132v-786
c0 -50 17.833 -90.5 53.5 -121.5s74.167 -46.5 115.5 -46.5c98.667 0 201 57.667 307 173v781h132v-1055h-132v174c-94.667 -92.667 -175.667 -149.334 -243 -170.001c-32.667 -10 -66.667 -15 -102 -15c-76.667 0 -139.667 23.333 -189 70s-74 116.667 -74 210z" />
    <glyph glyph-name="Uhungarumlaut" unicode="&#x170;" horiz-adv-x="1213" 
d="M670 1531l87 250h-65v150h150v-150c-18 -38 -43.333 -88.667 -76 -152s-50 -96 -52 -98h-44zM405 1531l87 250h-65v150h150v-150c-18 -38 -43.333 -88.667 -76 -152s-50 -96 -52 -98h-44zM135 455v1060h148v-1060c0 -90.667 22 -167 66 -229
c55.333 -78.667 142 -118 260 -118c176 0 280.333 79.333 313 238c8 36.667 12 73 12 109v1060h151v-1060c0 -109.333 -29.667 -207 -89 -293c-80 -118.667 -209 -178 -387 -178c-212.667 0 -355.667 84.667 -429 254c-30 70.667 -45 143 -45 217z" />
    <glyph glyph-name="uhungarumlaut" unicode="&#x171;" horiz-adv-x="979" 
d="M585 1115l87 250h-65v150h150v-150c-18 -38 -43.333 -88.667 -76 -152s-50 -96 -52 -98h-44zM320 1115l87 250h-65v150h150v-150c-18 -38 -43.333 -88.667 -76 -152s-50 -96 -52 -98h-44zM129 269v786.001h132v-786c0 -50 17.833 -90.5 53.5 -121.5
s74.167 -46.5 115.5 -46.5c98.667 0 201 57.667 307 173v781h132v-1055h-132v174c-94.667 -92.667 -175.667 -149.334 -243 -170.001c-32.667 -10 -66.667 -15 -102 -15c-76.667 0 -139.667 23.333 -189 70s-74 116.667 -74 210z" />
    <glyph glyph-name="Uogonek" unicode="&#x172;" horiz-adv-x="1213" 
d="M728 -224l-0.000976562 -94.001c-0.666992 0 -6 -0.166992 -16 -0.5s-18.667 -0.166016 -26 0.500977l-34 1c-47.333 2 -79.833 8.33301 -97.5 19s-31.167 20 -40.5 28c-18 15.333 -27 37.333 -27 66c0 62 22.333 125.333 67 190c-154 12.667 -266 74 -336 184
c-55.333 85.333 -83 180.333 -83 285v1060h148v-1060c0 -90.667 22 -167 66 -229c55.333 -78.667 142 -118 260 -118c176 0 280.333 79.333 313 238c8 36.667 12 73 12 109v1060h151v-1060c0 -106.667 -29.333 -203.667 -88 -291c-74 -110 -189.333 -169.667 -346 -179
c-47.333 -56 -71 -110 -71 -162c0 -24 38.667 -39 116 -45c12.667 -1.33301 23.334 -2 32.001 -2z" />
    <glyph glyph-name="uogonek" unicode="&#x173;" horiz-adv-x="979" 
d="M886 -314c-136.667 0 -205.001 38.333 -205.001 115c0 64 24.333 130 73 198h98c-52 -64 -78 -121 -78 -171c0 -24 38.667 -39 116 -45c12.667 -1.33301 23.334 -2 32.001 -2v-94zM128.999 269v786.001h132v-786c0 -50 17.833 -90.5 53.5 -121.5
s74.167 -46.5 115.5 -46.5c98.667 0 201 57.667 307 173v781h132v-1055h-132v174c-94.667 -92.667 -175.667 -149.334 -243 -170.001c-32.667 -10 -66.667 -15 -102 -15c-76.667 0 -139.667 23.333 -189 70s-74 116.667 -74 210z" />
    <glyph glyph-name="Wcircumflex" unicode="&#x174;" horiz-adv-x="1614" 
d="M585 1719l222 222l222 -222l-66 -64l-156 156l-157 -157zM25 1515h154l259 -1198h10l274 1198h170l274 -1198h10l259 1198h154l-351 -1515h-152l-274 1198h-10l-274 -1198h-152z" />
    <glyph glyph-name="wcircumflex" unicode="&#x175;" horiz-adv-x="1316" 
d="M436 1253l222 222l222 -222l-66 -64l-156 156l-157 -157zM25 1055h123l232 -795l208 795h120l226 -800l222 800h135l-301 -1055h-118l-224 809l-201 -809h-135z" />
    <glyph glyph-name="Ycircumflex" unicode="&#x176;" horiz-adv-x="1122" 
d="M339 1719l222 222l222 -222l-66 -64l-156 156l-157 -157zM25 1515h154l382 -713l382 713h154l-462 -855v-660h-148v660z" />
    <glyph glyph-name="ycircumflex" unicode="&#x177;" horiz-adv-x="905" 
d="M230 1253l222 222l222 -222l-66 -64l-156 156l-157 -157zM150 -393c-42 0 -83.001 2.66895 -123.001 8.00195l10 121c24 -11.333 56 -17 96 -17s73 5.16699 99 15.5s47.333 23.666 64 39.999s31.834 34.333 45.501 54s24.5 39.5 32.5 59.5
c14 37.333 24 73.666 30 108.999l-379 1058h142l299 -859l280 859h134l-368 -1119c-38 -114 -76 -191.333 -114 -232c-42 -44 -83.333 -71.167 -124 -81.5s-82 -15.5 -124 -15.5z" />
    <glyph glyph-name="Ydieresis" unicode="&#x178;" horiz-adv-x="1122" 
d="M326 1654v150h150v-150h-150zM645 1654v150h150v-150h-150zM25 1515h154l382 -713l382 713h154l-462 -855v-660h-148v660z" />
    <glyph glyph-name="Zacute" unicode="&#x179;" horiz-adv-x="1142" 
d="M532 1672l295 295l87 -87l-316 -273zM68 0v107l825 1280h-771v128h952v-123l-794 -1250h788v-142h-1000z" />
    <glyph glyph-name="zacute" unicode="&#x17a;" horiz-adv-x="779" 
d="M402 1206l295 295l87 -87l-316 -273zM25 0v85l560 858h-507v112h676v-74l-568 -861h568v-120h-729z" />
    <glyph glyph-name="Zdotaccent" unicode="&#x17b;" horiz-adv-x="1142" 
d="M521 1654v150h150v-150h-150zM68 0v107l825 1280h-771v128h952v-123l-794 -1250h788v-142h-1000z" />
    <glyph glyph-name="zdotaccent" unicode="&#x17c;" horiz-adv-x="779" 
d="M341 1188v150h150v-150h-150zM25 0v85l560 858h-507v112h676v-74l-568 -861h568v-120h-729z" />
    <glyph glyph-name="Zcaron" unicode="&#x17d;" horiz-adv-x="1142" 
d="M376 1876l65 65l157 -157l156 156l66 -64l-222 -222zM68 0v107l825 1280h-771v128h952v-123l-794 -1250h788v-142h-1000z" />
    <glyph glyph-name="zcaron" unicode="&#x17e;" horiz-adv-x="779" 
d="M194 1410l65 65l157 -157l156 156l66 -64l-222 -222zM25 0v85l560 858h-507v112h676v-74l-568 -861h568v-120h-729z" />
    <glyph glyph-name="longs" unicode="&#x17f;" horiz-adv-x="617" 
d="M13 943l-0.00195312 112h173c0 182.667 41.667 310.334 125 383.001c66.667 58 164.334 87 293.001 87v-120c-89.333 0 -155.666 -25.667 -198.999 -77c-54 -62.667 -81 -212.334 -81 -449.001v-879h-139v943h-172z" />
    <glyph glyph-name="bstroke" unicode="&#x180;" horiz-adv-x="994" 
d="M252 166c0 -102.667 -8.33105 -158 -24.998 -166h-133c17.333 36.667 26 85.334 26 146.001v1022h-98v112h98v235h132v-235h294v-112h-294v-251c12.667 27.333 45.667 59 99 95s110.666 54 171.999 54c120 0 216 -51.5 288 -154.5s108 -236.833 108 -401.5
c0 -98 -18.333 -190.667 -55 -278c-42.667 -100 -103.334 -170 -182.001 -210c-44 -22 -89 -33 -135 -33s-86 6.66699 -120 20s-62.667 30.666 -86 51.999c-39.333 36 -69 71 -89 105zM252.002 278c67.333 -92.667 126.667 -147.333 178 -164
c25.333 -8.66699 57.666 -13 96.999 -13s76.833 10.5 112.5 31.5s63.834 50.167 84.501 87.5c42 75.333 63 172 63 290c0 296 -99.333 444 -298 444c-87.333 0 -166.333 -50.333 -237 -151v-525z" />
    <glyph glyph-name="Bhook" unicode="&#x181;" horiz-adv-x="1132" 
d="M-58 1350c0 61.333 16.168 104.169 48.501 128.502s80.5 36.5 144.5 36.5h473c122 0 222.667 -34.833 302 -104.5s119 -155.834 119 -258.501c0 -170 -59.333 -278.667 -178 -326c-20.667 -8.66699 -46.334 -17.334 -77.001 -26.001
c109.333 -28 191.333 -93.667 246 -197c29.333 -56.667 44 -121 44 -193c0 -124.667 -39 -224.167 -117 -298.5s-191 -111.5 -339 -111.5h-473v1419c-38.667 0 -63.5 -4.5 -74.5 -13.5s-16.5 -28.667 -16.5 -59s2 -53.5 6 -69.5l-102 13c-4 22 -6 42 -6 60zM283.001 124.003
l325.001 0.00195312c108.667 0 188 22.667 238 68c21.333 19.333 39.666 47.666 54.999 84.999s23 81.666 23 132.999c0 94.667 -29 171 -87 229s-134.333 87 -229 87h-325v-602zM283.002 853.005l325 0.000976562c93.333 0 164 23.667 212 71
c20 19.333 37.5 48.666 52.5 87.999s22.5 86 22.5 140c0 78 -24.5 137.333 -73.5 178s-120.167 61 -213.5 61h-325v-538z" />
    <glyph glyph-name="Btopbar" unicode="&#x182;" horiz-adv-x="1132" 
d="M135 0v1515h906v-124h-758v-538h325c126.667 0 233 -34.333 319 -103c91.333 -74 137 -187.333 137 -340c0 -124.667 -39 -224.167 -117 -298.5s-191 -111.5 -339 -111.5h-473zM283 124l325.001 0.00195312c108.667 0 188 22.667 238 68
c21.333 19.333 39.666 47.666 54.999 84.999s23 81.666 23 132.999c0 94.667 -29 171 -87 229s-134.333 87 -229 87h-325v-602z" />
    <glyph glyph-name="btopbar" unicode="&#x183;" horiz-adv-x="994" 
d="M252 278c67.333 -92.667 126.667 -147.333 178 -164c25.333 -8.66699 57.666 -13 96.999 -13s76.833 10.5 112.5 31.5s63.834 50.167 84.501 87.5c42 75.333 63 172 63 290c0 296 -99.333 444 -298 444c-87.333 0 -166.333 -50.333 -237 -151v-525zM252.001 166.001
c0 -102.667 -8.33105 -158 -24.998 -166h-133c17.333 36.667 26 85.334 26 146.001v1369h656v-112h-524v-486c12.667 27.333 45.667 59 99 95s110.666 54 171.999 54c120 0 216 -51.5 288 -154.5s108 -236.833 108 -401.5c0 -98 -18.333 -190.667 -55 -278
c-42.667 -100 -103.334 -170 -182.001 -210c-44 -22 -89 -33 -135 -33s-86 6.66699 -120 20s-62.667 30.666 -86 51.999c-39.333 36 -69 71 -89 105z" />
    <glyph glyph-name="Tonesix" unicode="&#x184;" horiz-adv-x="1127" 
d="M270 515c14.667 -204 87.333 -331.333 218 -382c34 -13.333 69.5 -20 106.5 -20s72.833 6.66699 107.5 20s67.334 33.666 98.001 60.999c69.333 60.667 104 149.334 104 266.001s-27.667 205.167 -83 265.5s-130 90.5 -224 90.5c-102.667 0 -185 -38.333 -247 -115
c-34.667 -42.667 -61.334 -104.667 -80.001 -186zM109.999 1323c-18.667 -6 -41.166 -9.00195 -67.499 -9.00195s-46.833 2 -61.5 6l-13 102c94.667 0 142 31 142 93h148v-771c7.33301 15.333 17.666 30.333 30.999 45l39 46c22 24.667 50.333 45.334 85 62.001
c56.667 28.667 118 43 184 43c135.333 0 245 -42.167 329 -126.5s126 -196.166 126 -335.499c0 -94.667 -24 -183.667 -72 -267c-52.667 -91.333 -125.334 -155.333 -218.001 -192c-50.667 -20 -106 -30 -166 -30c-149.333 0 -267.666 60.667 -354.999 182
s-131 290.333 -131 507v645z" />
    <glyph glyph-name="tonesix" unicode="&#x185;" horiz-adv-x="1011" 
d="M110 594l-0.00195312 921.001h132v-855c14 51.333 49.667 97.333 107 138c48.667 34.667 111.334 52 188.001 52c124.667 0 222.334 -38.333 293.001 -115s106 -182.667 106 -318c0 -146.667 -45.667 -260.334 -137 -341.001c-66 -58 -150 -87 -252 -87
s-183.667 19.667 -245 59c-128 82.667 -192 264.667 -192 546zM803.998 417.001c0 214 -88.998 320.997 -266.998 320.997c-107.333 0 -186.333 -50 -237 -150c-16.667 -32 -30.334 -75.667 -41.001 -131l-5 -26c9.33301 -160 72.666 -263.667 189.999 -311
c30 -12.667 59 -19 87 -19s53.167 2.33301 75.5 7s46 13.834 71 27.501s46.5 31.834 64.5 54.501c41.333 50.667 62 126.334 62 227.001z" />
    <glyph glyph-name="Oopen" unicode="&#x186;" horiz-adv-x="1174" 
d="M1097.5 916c5.66699 -52 8.49805 -110.499 8.49805 -175.499s-5.83301 -133.333 -17.5 -205s-31.167 -141.334 -58.5 -209.001s-61.333 -126.5 -102 -176.5s-91.834 -90.167 -153.501 -120.5s-124.5 -45.5 -188.5 -45.5s-118.5 8.16699 -163.5 24.5
s-82.833 37.5 -113.5 63.5s-58.667 54.833 -84 86.5s-45.333 63.5 -60 95.5c-30.667 66 -49.667 116 -57 150l-6 24v1l152 41c10.667 -76 24.167 -131.5 40.5 -166.5s32.666 -63.667 48.999 -86s34.5 -41.166 54.5 -56.499c47.333 -35.333 104 -53 170 -53
c260 0 390 216.333 390 649c0 185.333 -27.333 336.666 -82 453.999c-62 131.333 -164.667 197 -308 197c-117.333 0 -208.666 -46 -273.999 -138c-45.333 -64.667 -68 -137 -68 -217l-146 23c2.66699 7.33301 8.83398 25.333 18.501 54s17.834 52 24.501 70
s17.5 42.5 32.5 73.5s30 56.833 45 77.5s35 43.5 60 68.5s51.5 44.833 79.5 59.5c67.333 35.333 136.333 53 207 53s130.167 -8 178.5 -24s90.5 -37.833 126.5 -65.5s68.5 -61 97.5 -100s53.167 -81 72.5 -126s35.333 -93.333 48 -145s21.834 -103.5 27.501 -155.5z" />
    <glyph glyph-name="Chook" unicode="&#x187;" horiz-adv-x="1174" 
d="M961 1358c12.667 109.333 61.335 164.001 146.002 164.001c44 0 83.667 -10.333 119 -31l-14 -101c-8 5.33301 -23.333 11.5 -46 18.5s-43.834 10.5 -63.501 10.5s-35.834 -7.33301 -48.501 -22c-21.333 -24 -32 -57 -32 -99c0 -25.333 15.333 -81 46 -167l16 -43v-1
l-152 -41c-10.667 76 -24.167 131.5 -40.5 166.5s-32.666 63.667 -48.999 86s-34.5 41.166 -54.5 56.499c-47.333 35.333 -104 53 -170 53c-260 0 -390 -216.333 -390 -649c0 -185.333 27.333 -336.666 82 -453.999c62 -131.333 164.667 -197 308 -197
c52 0 98.667 9.16699 140 27.5s74 40.666 98 66.999s44 56.833 60 91.5c28 57.333 42.667 113.666 44 168.999l146 -23c-2.66699 -7.33301 -8.83398 -25.333 -18.501 -54s-17.834 -52 -24.501 -70s-17.5 -42.5 -32.5 -73.5s-30 -56.833 -45 -77.5s-35 -43.5 -60 -68.5
s-51.5 -44.833 -79.5 -59.5c-67.333 -35.333 -136.333 -53 -207 -53s-130.167 8 -178.5 24s-90.5 37.833 -126.5 65.5s-68.5 61 -97.5 100s-53.167 81 -72.5 126s-35.333 93.167 -48 144.5c-24 98 -36 194 -36 288s5.83301 176.833 17.5 248.5s31.167 141.334 58.5 209.001
s61.333 126.5 102 176.5s91.834 90.167 153.501 120.5s130.5 45.5 206.5 45.5c140 0 254.333 -58 343 -174z" />
    <glyph glyph-name="chook" unicode="&#x188;" horiz-adv-x="926" 
d="M816 949c-4 -16.667 -5.99805 -37.167 -5.99805 -61.5s5.33301 -49.166 16 -74.499l-106 -48c-1.33301 13.333 -8.5 33 -21.5 59s-26.833 47.333 -41.5 64s-35.834 31.834 -63.501 45.501s-58.834 20.5 -93.501 20.5c-195.333 0 -293 -141.667 -293 -425
c0 -137.333 25.833 -243 77.5 -317s123.5 -111 215.5 -111c63.333 0 116 24.333 158 73c36.667 42 61.334 79.333 74.001 112l9 22l104 -50c-23.333 -64.667 -61.666 -123.334 -114.999 -176.001c-24 -23.333 -56.667 -44.666 -98 -63.999s-85.333 -29 -132 -29
c-145.333 0 -252.5 46.5 -321.5 139.5s-103.5 223.5 -103.5 391.5c0 364 141.667 546 425 546c101.333 0 184.333 -38 249 -114c4.66699 48 18.5 88.167 41.5 120.5s56.167 48.5 99.5 48.5s84.666 -10.333 123.999 -31l-14 -102c-8 5.33301 -23.333 11.666 -46 18.999
s-43.834 11 -63.501 11s-36 -7.33301 -49 -22s-21.5 -30.334 -25.5 -47.001z" />
    <glyph glyph-name="Dbar" unicode="&#x189;" horiz-adv-x="1224" 
d="M9 676v136h128v703h361c103.333 0 194.333 -14.333 273 -43s142 -66.5 190 -113.5s87 -104.5 117 -172.5c52 -118.667 78 -265.667 78 -441c0 -262.667 -72.667 -461 -218 -595c-107.333 -100 -254 -150 -440 -150h-361v676h-128zM285 124l212.999 0.000976562
c170.667 0 299.334 57.333 386.001 172c82.667 110 124 259.667 124 449c0 289.333 -73.333 480.666 -220 573.999c-75.333 48 -172 72 -290 72h-213v-579h324v-136h-324v-552z" />
    <glyph glyph-name="Dhook" unicode="&#x18a;" horiz-adv-x="1214" 
d="M283 124h213c218 0 366 93 444 279c38.667 93.333 58 207.333 58 342c0 239.333 -46 410 -138 512c-36 39.333 -84.833 71.5 -146.5 96.5s-134.167 37.5 -217.5 37.5h-213v-1267zM96 1518l399.999 -2.99902c334.667 0 539.334 -148.667 614.001 -446
c24 -96 36 -194 36 -294s-7 -185.333 -21 -256s-37.167 -138.167 -69.5 -202.5s-72.833 -119.5 -121.5 -165.5c-107.333 -100.667 -253.333 -151 -438 -151h-361v1447c-61.333 0 -92 -35 -92 -105c0 -25.333 2 -46 6 -62l-102 13c-4 22 -6 42 -6 60
c0 49.333 13.5 89.166 40.5 119.499s65.167 45.5 114.5 45.5z" />
    <glyph glyph-name="Dtopbar" unicode="&#x18b;" horiz-adv-x="1214" 
d="M68 517c0 76.667 5.33301 140.668 16 192.001s30.334 99.666 59.001 144.999s67 82 115 110c103.333 60.667 256.666 91 459.999 91h213v334h-758v126h906v-1515h-361c-236 -0 -404.667 47.333 -506 142c-96 89.333 -144 214.333 -144 375zM220.5 432.001
c3 -28 9.00195 -56.5 18.002 -85.5s21 -54.167 36 -75.5s35.167 -41.666 60.5 -60.999s55.666 -35 90.999 -47c75.333 -26 172.666 -39 291.999 -39h213v807h-213c-142.667 0 -250 -19 -322 -57c-74 -38.667 -122.667 -87.334 -146 -146.001
c-22.667 -57.333 -34 -114 -34 -170s1.5 -98 4.5 -126z" />
    <glyph glyph-name="dtopbar" unicode="&#x18c;" horiz-adv-x="984" 
d="M742 166c-68 -118 -162.667 -177 -284 -177c-60.667 0 -116 15.167 -166 45.5s-90.333 70.5 -121 120.5c-64 104.667 -96 223 -96 355c0 98 15.833 189 47.5 273s78.167 152.167 139.5 204.5s126.833 78.5 196.5 78.5s131.167 -18 184.5 -54s86.333 -67.667 99 -95v486
h-524v112h656v-1369c0 -20 2.83301 -46.167 8.5 -78.5s11.5 -54.833 17.5 -67.5h-133c-16.667 8 -25 63.333 -25 166zM207 510c0 -118 20.999 -214.667 62.999 -290c44 -79.333 113.667 -119 209 -119c63.333 0 115.333 18 156 54c32.667 28.667 68.334 69.667 107.001 123
v525c-70.667 100.667 -149.667 151 -237 151c-198.667 0 -298 -148 -298 -444z" />
    <glyph glyph-name="deltaturned" unicode="&#x18d;" horiz-adv-x="1081" 
d="M734 1324c-57.333 60 -129.668 90 -217.001 90c-54 0 -102.667 -12.167 -146 -36.5s-78 -56.833 -104 -97.5c-53.333 -83.333 -80 -182.5 -80 -297.5s29 -210.5 87 -286.5s138.833 -114 242.5 -114s185.834 37.667 246.501 113s91 178 91 308s-40 237 -120 321z
M511.998 470l401 -346.003v-124h-777v124h603l-514 445c-29.333 26 -58.333 65.667 -87 119c-55.333 104.667 -83 208.334 -83 311.001c0 138 44 260 132 366c40 48.667 89 87.667 147 117s119 44 183 44c134 0 245.667 -49.667 335 -149s134 -227.666 134 -384.999
s-43.333 -283.666 -130 -378.999s-199.667 -143 -339 -143h-5z" />
    <glyph glyph-name="Ereversed" unicode="&#x18e;" horiz-adv-x="1062" 
d="M135 0v133h711v601h-483v124h483v533h-673v124h821v-1515h-859z" />
    <glyph glyph-name="Schwa" unicode="&#x18f;" horiz-adv-x="1279" 
d="M1177 1015.5c14.667 -70.333 21.998 -147.499 21.998 -231.499s-6.66699 -164.667 -20 -242s-31 -143.166 -53 -197.499s-48.667 -102.5 -80 -144.5s-63.666 -75.833 -96.999 -101.5s-69 -46.834 -107 -63.501c-66 -28.667 -137 -43 -213 -43
c-162.667 0 -289.667 64.667 -381 194c-94 132.667 -141 331 -141 595h953c0 262 -66 442.667 -198 542c-72 54 -157.333 81 -256 81c-149.333 0 -277.333 -96.333 -384 -289c-2.66699 -4 -4.33398 -6.66699 -5.00098 -8l-114 79c28.667 54 64.667 103.167 108 147.5
s83 79.166 119 104.499c85.333 60 172.5 90 261.5 90s166.5 -13.5 232.5 -40.5s121.833 -63.5 167.5 -109.5s84.334 -100.333 116.001 -163s54.834 -129.167 69.501 -199.5zM1051 657.001l-805.001 0.00195312c0 -85.333 12.833 -162.833 38.5 -232.5
s52.334 -124.834 80.001 -165.501s64.5 -74.667 110.5 -102s96.5 -41 151.5 -41s104.667 9.33301 149 28s81.333 43.5 111 74.5s55.667 65.333 78 103s39.5 77.167 51.5 118.5c23.333 81.333 35 153.666 35 216.999z" />
    <glyph glyph-name="Epsilonlatin" unicode="&#x190;" horiz-adv-x="1109" 
d="M70 417c0 154 78.9971 279.001 236.997 375.001c-87.333 56.667 -145 138 -173 244c-10 36 -15 73.667 -15 113c0 67.333 19.833 130.166 59.5 188.499s92.167 104.5 157.5 138.5s141.833 51 229.5 51s169.834 -19.5 246.501 -58.5s139.334 -86.5 188.001 -142.5l-96 -93
c-31.333 40.667 -79 76 -143 106s-133.333 45 -208 45s-142.167 -21.5 -202.5 -64.5s-90.5 -103.833 -90.5 -182.5s23.167 -144.167 69.5 -196.5s113.833 -78.5 202.5 -78.5h213v-141h-213c-96 0 -173.333 -28.167 -232 -84.5s-88 -132.833 -88 -229.5
c0 -60 16.667 -111.333 50 -154c64 -80.667 163.333 -121 298 -121c60.667 0 115.334 9.5 164.001 28.5s84.167 38 106.5 57s45.5 40.5 69.5 64.5l40 42l101 -87c-130 -165.333 -290.333 -248 -481 -248c-148 0 -266.667 36.667 -356 110s-134 179.333 -134 318z" />
    <glyph glyph-name="Fhook" unicode="&#x191;" horiz-adv-x="1024" 
d="M-41 -155l5 102c29.333 -13.333 62.333 -20 99 -20c48 0 72 24.333 72 73v1515h821v-124h-673v-533h483v-124h-483v-734c0 -61.333 -16.833 -106 -50.5 -134s-90.5 -42 -170.5 -42c-36.667 0 -71 7 -103 21z" />
    <glyph glyph-name="florin" unicode="&#x192;" horiz-adv-x="570" 
d="M557 1515v-110.999h-89c-100 0 -150 -42 -150 -126v-223h239v-112h-239v-943c0 -156 -96.333 -234 -289 -234c-48.667 0 -76 3 -82 9v111h89c58.667 0 97.667 8.66699 117 26c22 19.333 33 48.666 33 87.999v943h-173v112h173v223c0 108.667 47 182 141 220
c44 17.333 91.833 26 143.5 26s80.5 -3 86.5 -9z" />
    <glyph glyph-name="Ghook" unicode="&#x193;" horiz-adv-x="1246" 
d="M98.5 542c-12.333 72.667 -18.4971 144.164 -18.4971 214.497s4.66699 135.833 14 196.5s23.333 119.667 42 177s43.5 110.166 74.5 158.499s66.167 90.833 105.5 127.5c85.333 77.333 192 116 320 116c173.333 0 306.666 -80.667 399.999 -242
c50.667 23.333 82 43.333 94 60s16.167 33.834 12.5 51.501s-15.834 36.5 -36.501 56.5s-37.334 33.333 -50.001 40l81 63c22 -13.333 45.333 -34.5 70 -63.5s37 -58.167 37 -87.5s-7.66699 -55.666 -23 -78.999s-35 -43.333 -59 -60c-34 -24 -63 -41.667 -87 -53l-6 5
c18 -41.333 32.333 -82.666 43 -123.999l-145 -36c-0.666992 4.66699 -1.5 11.167 -2.5 19.5s-4.66699 24.5 -11 48.5s-13.833 46.833 -22.5 68.5s-21.834 45.667 -39.501 72s-37.5 49.166 -59.5 68.499c-50.667 45.333 -114.667 68 -192 68s-143.333 -18 -198 -54
s-97 -85.333 -127 -148c-58 -120 -87 -266 -87 -438c0 -205.333 26.667 -358.666 80 -459.999c70 -133.333 180.333 -200 331 -200c187.333 0 295.666 108 324.999 324c6 46.667 9 99.667 9 159h-337v124h482v-715h-120v192c-75.333 -104 -155 -168 -239 -192
c-37.333 -10.667 -86.666 -16 -147.999 -16s-123.833 15.333 -187.5 46s-116.5 71.334 -158.5 122.001s-77.167 110.167 -105.5 178.5s-48.666 138.833 -60.999 211.5z" />
    <glyph glyph-name="Gammalatin" unicode="&#x194;" horiz-adv-x="901" 
d="M330.5 400.5c-32.333 -39.667 -48.5 -84 -48.5 -133s15.667 -88 47 -117s71.666 -43.5 120.999 -43.5s89.666 14.5 120.999 43.5s47 68 47 117s-16.167 93.333 -48.5 133s-72.166 59.5 -119.499 59.5s-87.166 -19.833 -119.499 -59.5zM25 1514l138 0.00390625
c-12.667 -12.667 -5.5 -73.5 21.5 -182.5s63.833 -219.5 110.5 -331.5l155 -334l156 334c58.667 137.333 102 270.666 130 399.999c7.33301 36 11 63.167 11 81.5s-3 29.166 -9 32.499h138c12 -10.667 5 -70.834 -21 -180.501s-61 -220.834 -105 -333.501l-197 -450
c48.667 -32 91.5 -75.333 128.5 -130s55.5 -107.667 55.5 -159c0 -78 -27.667 -142.833 -83 -194.5s-123 -77.5 -203 -77.5s-147.667 25.833 -203 77.5s-83 116.5 -83 194.5c0 51.333 18.5 104.333 55.5 159s79.833 98 128.5 130l-196 450
c-44 113.333 -79.167 224.833 -105.5 334.5s-33.833 169.5 -22.5 179.5z" />
    <glyph glyph-name="hv" unicode="&#x195;" horiz-adv-x="1553" 
d="M1347 336c0 167.333 -25.6689 407 -77.002 719h131c52 -306 78 -545.667 78 -719c0 -74 -18 -138 -54 -192c-69.333 -103.333 -175.333 -155 -318 -155c-124.667 0 -217 30.333 -277 91c-24.667 26 -43.5 64 -56.5 114s-21 96.667 -24 140s-4.5 102.333 -4.5 177v106
c0 165.333 -29 269 -87 311c-24 17.333 -54 26 -90 26c-98.667 0 -201 -57.667 -307 -173v-781h-132v1515h132v-633c98.667 94 179.667 150.667 243 170c32.667 9.33301 69.334 14 110.001 14s77.5 -8.33301 110.5 -25s58.833 -38.167 77.5 -64.5
s33.334 -60.5 44.001 -102.5c18 -67.333 27 -156.333 27 -267v-112c0 -120.667 5.5 -197.167 16.5 -229.5s22.167 -58.5 33.5 -78.5s25 -35.667 41 -47c38 -26 78 -39 120 -39s76.5 4.33301 103.5 13s52.5 22 76.5 40c55.333 39.333 83 100 83 182z" />
    <glyph glyph-name="Iotalatin" unicode="&#x196;" horiz-adv-x="418" 
d="M135 0v1515h148v-1515h-148z" />
    <glyph glyph-name="Ibar" unicode="&#x197;" horiz-adv-x="560" 
d="M18 762v136h190v617h148v-617h186v-136h-186v-762h-148v762h-190z" />
    <glyph glyph-name="Khook" unicode="&#x198;" horiz-adv-x="1174" 
d="M1138 1325c-43.333 60 -85.333 90 -126 90c-14.667 0 -30.167 -9.16699 -46.5 -27.5s-62.5 -77.5 -138.5 -177.5l-201 -264l489 -946h-166l-417 822l-248 -327v-495h-149v1515h149v-824l227 304c192.667 257.333 312.667 412.333 360 465s94 79 140 79
c85.333 0 156 -48.333 212 -145z" />
    <glyph glyph-name="khook" unicode="&#x199;" horiz-adv-x="911" 
d="M130 1260c0 194 42.665 326.666 127.998 397.999c60.667 51.333 131.334 69 212.001 53c16.667 -3.33301 31.334 -7.66602 44.001 -12.999l-32 -95c-51.333 14.667 -97.333 1.66699 -138 -39c-54.667 -54.667 -82 -156 -82 -304v-728l404 523h158l-276 -359l338 -696
h-146l-282 582l-196 -243v-339h-132v1260z" />
    <glyph glyph-name="lbar" unicode="&#x19a;" horiz-adv-x="574" 
d="M25 684v112h195v719h132v-719h197v-112h-197v-686h-132v686h-195z" />
    <glyph glyph-name="lambdastroke" unicode="&#x19b;" horiz-adv-x="905" 
d="M25 0l376 1050l-65 199l-147 -85l-56 96l168 97l-53 158h135l31 -93l173 100l56 -96l-194 -112l431 -1314h-134l-280 859l-299 -859h-142z" />
    <glyph glyph-name="mcapturn" unicode="&#x19c;" horiz-adv-x="1610" 
d="M1043 107c92.667 0 189.668 50 291.001 150v1258h148v-1515h-148v158c-97.333 -91.333 -175.333 -145.333 -234 -162c-30 -8.66699 -69.333 -13 -118 -13s-97 15.833 -145 47.5s-79.333 79.5 -94 143.5c-63.333 -59.333 -107.333 -98 -132 -116
c-68 -50 -139.5 -75 -214.5 -75s-137.333 24.167 -187 72.5s-74.5 119.5 -74.5 213.5v1246h148v-1246c0 -53.333 15.167 -93.666 45.5 -120.999s66.166 -41 107.499 -41c96.667 0 196 53 298 159v1249h148v-1246c0 -50.667 16.5 -90.334 49.5 -119.001s70.167 -43 111.5 -43
z" />
    <glyph glyph-name="Nhook" unicode="&#x19d;" horiz-adv-x="1251" 
d="M128 1515l236 0.000976562l611 -1154v1154h148v-1515h-127l-720 1368v-1368c0 -141.333 -22.667 -233 -68 -275c-17.333 -16 -32.333 -28.167 -45 -36.5s-31.667 -14.5 -57 -18.5c-34.667 -5.33301 -65.667 -8 -93 -8h-44l-8 112c54 0 95.333 11.667 124 35
s43 83.666 43 180.999v1525z" />
    <glyph glyph-name="nleg" unicode="&#x19e;" 
d="M120 0v1055h132v-173c58.667 58 114.334 103.167 167.001 135.5s114.667 48.5 186 48.5s131.666 -23.333 180.999 -70s74 -116.667 74 -210v-1196h-132v1196c0 50 -17.833 90.5 -53.5 121.5s-74.167 46.5 -115.5 46.5c-98.667 0 -201 -57.667 -307 -173v-781h-132z" />
    <glyph glyph-name="Obar" unicode="&#x19f;" horiz-adv-x="1263" 
d="M101 529.5c-14 72.333 -21.001 146.833 -21.001 223.5s6.33301 151.334 19 224.001s33.334 143 62.001 211s64.167 127.167 106.5 177.5s95.5 90.666 159.5 120.999s134.5 45.5 211.5 45.5s146.333 -15.5 208 -46.5s113 -72 154 -123s75.5 -110.5 103.5 -178.5
c52.667 -128 79 -272 79 -432c0 -292.667 -75.667 -510 -227 -652c-82 -77.333 -187 -116 -315 -116c-74 0 -142.333 14.833 -205 44.5s-115.5 69.334 -158.5 119.001s-79.667 107.667 -110 174s-52.5 135.666 -66.5 207.999zM1029 620h-795c26.667 -260 116 -422 268 -486
c42 -17.333 88.5 -26 139.5 -26s97.333 9.66699 139 29s76.5 45 104.5 77s52.333 70.667 73 116c36 78 59.667 174.667 71 290zM1035 744l0.000976562 8c0 219.333 -40.333 389.333 -121 510c-28.667 43.333 -66.334 78.5 -113.001 105.5s-100 40.5 -160 40.5
s-113.833 -12 -161.5 -36s-87 -56.167 -118 -96.5s-56.833 -88.833 -77.5 -145.5c-37.333 -104.667 -56 -230.667 -56 -378v-8h807z" />
    <glyph glyph-name="Ohorn" unicode="&#x1a0;" horiz-adv-x="1263" 
d="M241 951.5c-8.66699 -62.333 -13.001 -133.167 -13.001 -212.5s7.83301 -156.5 23.5 -231.5s39.334 -142.833 71.001 -203.5s74.667 -108.5 129 -143.5s114.333 -52.5 180 -52.5s122 13.167 169 39.5s84.833 60.5 113.5 102.5s52.334 92 71.001 150
c33.333 102.667 50 220 50 352c0 219.333 -40.333 389.333 -121 510c-28.667 43.333 -66.334 78.5 -113.001 105.5s-100 40.5 -160 40.5s-113.833 -12 -161.5 -36s-87 -56.167 -118 -96.5s-56.667 -88.833 -77 -145.5s-34.833 -116.167 -43.5 -178.5zM1244 1403
c0 -64.667 -52.332 -124.333 -156.999 -179c64 -134.667 96 -292 96 -472c0 -292.667 -75.667 -510 -227 -652c-82 -77.333 -187 -116 -315 -116c-74 0 -142.333 14.833 -205 44.5s-115.5 69.334 -158.5 119.001s-79.5 107.834 -109.5 174.501
c-58.667 127.333 -88 270.666 -88 429.999c0 162.667 27 308 81 436c60.667 143.333 149.334 242.666 266.001 297.999c64 30.667 135.333 46 214 46c173.333 0 309 -78.667 407 -236c103.333 45.333 122.666 99.333 57.999 162c-20.667 20 -37.334 33.333 -50.001 40l81 63
c22 -13.333 45.333 -34.5 70 -63.5s37 -60.5 37 -94.5z" />
    <glyph glyph-name="ohorn" unicode="&#x1a1;" horiz-adv-x="972" 
d="M207 528c0 -211.333 55.001 -345.331 165.001 -401.998c33.333 -17.333 71.666 -26 114.999 -26s81.833 8.66699 115.5 26s60.5 39.666 80.5 66.999s36.333 60.333 49 99c22 67.333 33 145.666 33 234.999c0 284.667 -93 427 -279 427s-279 -142 -279 -426z
M183.501 921.002c72.333 96.667 177.831 145 316.498 145s244 -62.333 316 -187c67.333 30 101 67.333 101 112c0 18.667 -11.667 40.167 -35 64.5s-41.666 40.166 -54.999 47.499l81 63c22 -13.333 45.333 -34.5 70 -63.5s37 -58.167 37 -87.5
s-7.66699 -55.666 -23 -78.999s-34.666 -43.333 -57.999 -60c-34.667 -24 -64 -41.667 -88 -53l-3 2c36 -82 54 -181.333 54 -298c0 -160.667 -36.167 -290.667 -108.5 -390s-172.833 -149 -301.5 -149c-131.333 0 -233.333 51.333 -306 154
c-70.667 100.667 -106 231.5 -106 392.5s36.167 289.833 108.5 386.5z" />
    <glyph glyph-name="OI" unicode="&#x1a2;" horiz-adv-x="1637" 
d="M241 951.5c-8.66699 -62.333 -13.001 -133.167 -13.001 -212.5s7.83301 -156.5 23.5 -231.5s39.334 -142.833 71.001 -203.5s74.667 -108.5 129 -143.5s114.333 -52.5 180 -52.5s122 13.167 169 39.5s84.833 60.5 113.5 102.5s52.334 92 71.001 150
c33.333 102.667 50 220 50 352c0 219.333 -40.333 389.333 -121 510c-28.667 43.333 -66.334 78.5 -113.001 105.5s-100 40.5 -160 40.5s-113.833 -12 -161.5 -36s-87 -56.167 -118 -96.5s-56.667 -88.833 -77 -145.5s-34.833 -116.167 -43.5 -178.5zM100.999 529.499
c-14 72.333 -21.0039 146.835 -21.0039 223.502s6.33301 151.334 19 224.001s33.334 143 62.001 211s64.167 127.167 106.5 177.5s95.5 90.666 159.5 120.999s135.333 45.5 214 45.5c114.667 0 213.667 -35.333 297 -106c57.333 71.333 136.833 107 238.5 107
s181.334 -30.667 239.001 -92s86.5 -137.666 86.5 -228.999v-1209h-148v1209c0 51.333 -17.333 97.666 -52 138.999s-77.167 62 -127.5 62s-101.166 -26.333 -152.499 -79c54 -73.333 94.333 -161.333 121 -264s40 -197.334 40 -284.001s-4.33301 -160.334 -13 -221.001
s-22 -120 -40 -178s-41.667 -111.167 -71 -159.5s-63.666 -90.833 -102.999 -127.5c-82 -77.333 -187 -116 -315 -116c-74 0 -142.333 14.833 -205 44.5s-115.5 69.334 -158.5 119.001s-79.667 107.667 -110 174s-52.5 135.666 -66.5 207.999z" />
    <glyph glyph-name="oi" unicode="&#x1a3;" horiz-adv-x="1379" 
d="M1091 865c-15.333 62 -55.667 93.001 -121 93.001c-42 0 -75.167 -10.5 -99.5 -31.5s-39.833 -41.167 -46.5 -60.5c48.667 -94.667 73 -215 73 -361s-36.167 -268.667 -108.5 -368s-172.833 -149 -301.5 -149c-131.333 0 -233.333 51.333 -306 154
c-70.667 100.667 -106 231.5 -106 392.5s36.167 289.833 108.5 386.5s173.5 145 303.5 145c45.333 0 94.166 -8.83301 146.499 -26.5s92.5 -43.167 120.5 -76.5c8.66699 17.333 23.334 35 44.001 53c40.667 34.667 98 52 172 52c43.333 0 81.5 -7 114.5 -21
s57.833 -31 74.5 -51c34.667 -40.667 55 -77.334 61 -110.001l3 -21v-1057h-132v1057zM206.999 528.001c0 -211.333 55.001 -345.331 165.001 -401.998c33.333 -17.333 71.666 -26 114.999 -26s81.833 8.66699 115.5 26s60.5 39.666 80.5 66.999s36.333 60.333 49 99
c22 67.333 33 145.666 33 234.999c0 284.667 -93 427 -279 427s-279 -142 -279 -426z" />
    <glyph glyph-name="Phook" unicode="&#x1a4;" horiz-adv-x="1136" 
d="M135 1419c-38.667 0 -63.5 -4.49805 -74.5 -13.498s-16.5 -28.667 -16.5 -59s2 -53.5 6 -69.5l-102 13c-4 22 -6 42 -6 60c0 61.333 16.167 104.166 48.5 128.499s80.5 36.5 144.5 36.5h529c156.667 0 272 -62 346 -186c38.667 -65.333 58 -130.5 58 -195.5
s-7.33301 -121.667 -22 -170s-37.167 -93.333 -67.5 -135s-72.5 -74.834 -126.5 -99.501s-116.667 -37 -188 -37h-381v-692h-148v1419zM283 816.002l279.999 0.000976562c108 0 194.5 23.667 259.5 71s97.5 119.666 97.5 216.999s-32.667 169.5 -98 216.5
s-151.666 70.5 -258.999 70.5h-280v-575z" />
    <glyph glyph-name="phook" unicode="&#x1a5;" horiz-adv-x="1015" 
d="M261 254c30.667 -44 68 -80.5 112 -109.5s85.833 -43.5 125.5 -43.5s73 3.83301 100 11.5s53.667 21.667 80 42s48.833 46.833 67.5 79.5c41.333 72 62 176.333 62 313c0 166.667 -38.667 284 -116 352c-41.333 36.667 -93.333 55 -156 55
c-84 0 -157.333 -35.333 -220 -106c-16 -18 -34.333 -41 -55 -69v-525zM867 1076c-12 -9.33301 -21.333 -21.999 -28 -37.999s-10.334 -30.833 -11.001 -44.5s0.333008 -28.834 3 -45.501c2 -14.667 5.66699 -30.667 11 -48c65.333 -96 98 -213.667 98 -353
c0 -184 -45 -330.333 -135 -439c-65.333 -79.333 -152.333 -119 -261 -119c-61.333 0 -120.666 18.5 -177.999 55.5s-92.333 68.833 -105 95.5v-550h-132v1465h132v-164c16 30 42.333 60 79 90c69.333 56.667 142.333 85 219 85s145 -25.667 205 -77
c-4 128 40.667 195 134 201c44 2 83.333 -4.66699 118 -20v-102c-21.333 10 -48.5 16.167 -81.5 18.5s-55.5 -1.16699 -67.5 -10.5z" />
    <glyph glyph-name="YR" unicode="&#x1a6;" horiz-adv-x="1093" 
d="M135 0v1648h148v-134h362c158.667 0 278 -62 358 -186c43.333 -66.667 65 -137 65 -211c0 -89.333 -21.333 -171 -64 -245c-46.667 -81.333 -122.667 -133.333 -228 -156l451 -1130h-162l-441 1106h-341v-692h-148zM283 816h376c70 0 129.667 22 179 66
c54.667 48.667 82 124.667 82 228c0 137.333 -74 225.333 -222 264c-44 11.333 -92 17 -144 17h-271v-575z" />
    <glyph glyph-name="Tonetwo" unicode="&#x1a7;" horiz-adv-x="1033" 
d="M40 407c0 32 5.5 67.6641 16.5 106.997s25.167 73 42.5 101s39.166 53.833 65.499 77.5s52.333 42.834 78 57.501s55 29 88 43s62.167 25 87.5 33l84 26c93.333 28.667 159.666 54.667 198.999 78c70 42.667 105 108.834 105 198.501s-25.667 158.667 -77 207
s-118 72.5 -200 72.5c-101.333 0 -180.333 -40 -237 -120c-22.667 -32 -39.667 -68 -51 -108s-17.666 -61.667 -18.999 -65l-130 50c2 4 7.33301 17.667 16 41l29 74c24.667 61.333 66.334 117 125.001 167c67.333 56.667 156.333 85 267 85c64 0 123.333 -11.667 178 -35
s99.667 -53.666 135 -90.999c74.667 -81.333 112 -169 112 -263c0 -149.333 -68.333 -261.666 -205 -336.999c-58.667 -32 -111.334 -56 -158.001 -72l-123 -42c-34.667 -12 -62.667 -22.333 -84 -31c-72.667 -30 -123.5 -66.5 -152.5 -109.5s-43.5 -102 -43.5 -177
s23 -138.167 69 -189.5s115 -77 207 -77c126.667 0 226 40.333 298 121c42.667 47.333 70.667 104 84 170c2.66699 11.333 4.33398 17 5.00098 17l137 -48l-8 -21c-42.667 -120.667 -117.334 -216.334 -224.001 -287.001c-77.333 -50.667 -174.666 -76 -291.999 -76
c-128 0 -230.333 40.667 -307 122c-78 82.667 -117 183 -117 301z" />
    <glyph glyph-name="tonetwo" unicode="&#x1a8;" horiz-adv-x="878" 
d="M638 732c12 20.667 18.001 48.333 18.001 83s-18.333 66.5 -55 95.5s-83.667 43.5 -141 43.5c-44 0 -75 -3.33301 -93 -10l-39 -14c-8 -3.33301 -18 -10.333 -30 -21l-26 -21c-4 -4 -13 -13.5 -27 -28.5s-23.333 -24.833 -28 -29.5l-91 68
c21.333 31.333 49.666 60.666 84.999 87.999c69.333 53.333 151 80 245 80s172.167 -25.5 234.5 -76.5s93.5 -119.5 93.5 -205.5c0 -97.333 -49.667 -174.333 -149 -231c-48 -27.333 -97.167 -47 -147.5 -59s-88 -22.5 -113 -31.5s-51.167 -21.167 -78.5 -36.5
c-56 -33.333 -84 -83 -84 -149c0 -74 34 -125.667 102 -155c33.333 -14 75.333 -21 126 -21c102.667 0 189 54.333 259 163l99 -64c-46 -73.333 -99.167 -126.833 -159.5 -160.5s-134.833 -50.5 -223.5 -50.5s-166.667 28.333 -234 85s-101 128.834 -101 216.501
s27.5 154 82.5 199s141.5 85.167 259.5 120.5s190 76 216 122z" />
    <glyph glyph-name="Esh" unicode="&#x1a9;" horiz-adv-x="1136" 
d="M480 744l-412 648v127h952v-132h-771l415 -643l-384 -602h788v-142h-1000v107z" />
    <glyph glyph-name="eshreversedloop" unicode="&#x1aa;" horiz-adv-x="664" 
d="M651 -225c-6 -6 -33.333 -9 -82 -9c-192.667 0 -289 78 -289 234v1278c0 12.667 -0.166992 30 -0.5 52s-0.5 38 -0.5 48c-20.667 -4 -54.5 -6 -101.5 -6s-86.167 16.833 -117.5 50.5s-47 72.667 -47 117s15.5 83 46.5 116s73.833 49.5 128.5 49.5
c105.333 0 173.333 -50 204 -150l2 -1l-1 -2c14 -47.333 21 -98 21 -152l-2 -142v-1258c0 -58.667 23 -94 69 -106c20.667 -5.33301 47.667 -8 81 -8h89v-111zM274 1477c-8 84 -35.001 126 -81.001 126c-24.667 0 -44.5 -6.16699 -59.5 -18.5s-22.5 -26.833 -22.5 -43.5
s7.16699 -33 21.5 -49s37.833 -24 70.5 -24s56.334 3 71.001 9z" />
    <glyph glyph-name="tpalatalhook" unicode="&#x1ab;" horiz-adv-x="606" 
d="M608.5 -126.5c-2.33301 -34.333 -12.6719 -62.501 -31.0049 -84.501s-42.166 -36.667 -71.499 -44c-39.333 -10 -80.666 -11.333 -123.999 -4l-12 100c6.66699 -4 30.334 -4.16699 71.001 -0.5s67 12.834 79 27.501c23.333 30 25.333 71.667 6 125
c-23.333 -4 -50.666 -6 -81.999 -6s-54.666 1 -69.999 3s-34 8.33301 -56 19s-40 25.667 -54 45c-33.333 46.667 -50 120 -50 220v669h-178v112h178v385h132v-385h242v-112h-242v-669c0 -67.333 10.333 -113.333 31 -138s54.667 -37 102 -37c19.333 0 42.333 1.66699 69 5
s40 5.33301 40 6c0 -24 4 -60.833 12 -110.5s10.833 -91.667 8.5 -126z" />
    <glyph glyph-name="Thook" unicode="&#x1ac;" horiz-adv-x="1062" 
d="M193 1391c-38.667 0 -63.5 -4.33301 -74.5 -13s-16.5 -28.167 -16.5 -58.5s2 -53.5 6 -69.5h-98c-6.66699 24.667 -10 48.667 -10 72c0 64 17 112.167 51 144.5s81.333 48.5 142 48.5h844v-124h-432v-1391h-148v1391h-264z" />
    <glyph glyph-name="thook" unicode="&#x1ad;" horiz-adv-x="606" 
d="M36 943l0.00195312 112h178v385c0 64.667 16.167 108.667 48.5 132s72.666 35 120.999 35s88.5 -7 120.5 -21l-5 -102c-29.333 13.333 -58.833 20 -88.5 20s-47.834 -4.66699 -54.501 -14s-10 -26 -10 -50v-385h242v-112h-242v-669c0 -67.333 10.333 -113.333 31 -138
s54.667 -37 102 -37c19.333 0 42.333 1.66699 69 5s40 5.33301 40 6v-99c-44 -16 -86.833 -24 -128.5 -24s-70.167 1 -85.5 3s-34 8.33301 -56 19s-40 25.667 -54 45c-33.333 46.667 -50 120 -50 220v669h-178z" />
    <glyph glyph-name="Tretroflexhook" unicode="&#x1ae;" horiz-adv-x="1062" 
d="M457 10v1381h-432v124h1012v-124h-432v-1391c0 -97.333 14.333 -157.666 43 -180.999s70 -35 124 -35l-8 -112h-7c-98 0 -160.333 8.66699 -187 26c-43.333 28.667 -70 58 -80 88c-22 66 -33 140.667 -33 224z" />
    </font>
</defs>
</svg>
